<?xml version="1.0" encoding="UTF-8"?>
<!DOCTYPE svg  PUBLIC '-//W3C//DTD SVG 1.1//EN'  'http://www.w3.org/Graphics/SVG/1.1/DTD/svg11.dtd'>
<svg version="1.1" xmlns="http://www.w3.org/2000/svg">
<defs>
<font id="GaramondPremrPro" horiz-adv-x="486">
<font-face font-family="Garamond Premr Pro" font-weight="400" ascent="725" bbox="-73 -277 1002 840.667" cap-height="646" descent="-275" panose-1="2 2 4 2 6 5 6 2 4 3" underline-position="-100" underline-thickness="50" unicode-range="U+0020-00FE" units-per-em="1000" x-height="393"/>
<missing-glyph/>
<glyph glyph-name="space" horiz-adv-x="199" unicode=" "/>
<glyph d="M162 612q38 0 50 -50q4 -17 4 -33q-1 -20 -26 -235q-7 -59 -8 -65q-2 -25 -15 -34q-3 -2 -5 -2q-13 0 -18 27q-2 7 -2 13q-1 10 -10 80q-20 166 -24 218q-4 58 38 77q9 4 16 4zM161 115q44 0 58 -43q3 -11 3 -20q0 -41 -34 -58q-14 -6 -28 -6q-39 0 -55 33q-7 14 -7 31 q0 43 43 59q11 4 20 4z" glyph-name="exclam" horiz-adv-x="291" unicode="!"/>
<glyph d="M105 689q14 -2 16 -21q0 -40 -27 -177q-11 -29 -22 -30q-10 1 -13 25q-17 144 -17 150q1 13 7 18q45 34 56 35zM250 696q12 -2 13 -21q0 -63 -24 -170q-1 -5 -2 -9q-7 -31 -21 -33q-3 0 -5 2.5t-3.5 6t-2.5 7t-2 7.5l-1 3q-8 76 -16 135q-3 19 -3 25q2 12 15 21 q40 24 48 25q2 1 4 1z" glyph-name="quotedbl" horiz-adv-x="302" unicode='"'/>
<glyph d="M447 430q-9 -33 -16 -34l-76 -3q-3 -1 -6 -10l-27 -107q0 -5 3 -6l81 3q7 0 6 -20v-3q-5 -27 -18 -36q-3 -2 -5 -2l-79 -3q-4 0 -5 -5q-1 -1 -1 -2l-45 -171q-6 -12 -27 -14q-12 0 -12 7v4l43 171q1 7 -4 9l-97 -4q-5 -2 -10 -8l-46 -173q-3 -10 -23 -11q-10 0 -14 10 q-1 2 -1 3l43 168q0 9 -6 10l-71 -2q-5 1 -7 16q9 38 22 43l73 4q7 2 9 7l27 108q-1 7 -4 8l-83 -2v3q-3 15 -1 28q8 24 17 29l81 4q3 1 6 5l40 155q6 10 30 11q5 0 9 -7q1 -1 1 -2l-39 -154q1 -4 3 -6l103 3q4 2 6 8l40 157q5 10 31 10q5 0 7 -7q1 -4 0 -7l-39 -151 q-2 -8 2 -9l76 1q6 -16 3 -26zM308 381q1 9 -3 10l-100 -3q-6 -1 -8 -8l-27 -107q-2 -4 3 -7q2 -1 3 -1l98 4q6 2 8 8z" glyph-name="numbersign" unicode="#"/>
<glyph d="M257 258l-23 -224q1 -3 4 -5q75 8 106 59q15 25 15 53q0 56 -51 94q-18 13 -45 28q-5 -2 -6 -5zM237 374l23 207q-1 7 -5 8q-71 -2 -99 -57q-12 -24 -12 -53q0 -67 85 -108q1 -1 2 -1q5 0 6 4zM266 625l8 67q2 2 5 3q19 -2 25 -10l-6 -59q1 -5 4 -6q25 -3 86 -21 q8 -3 16 -26q1 -3 1 -5q7 -39 7 -57q-1 -25 -9 -26q-10 2 -17 18q-24 63 -88 84q-5 0 -7 -7l-22 -223q1 -5 4 -9q120 -57 148 -119q13 -29 13 -65q-1 -72 -73 -127q-30 -25 -114 -37q-6 0 -11 -1q-6 -1 -7 -8l-10 -75q-5 -7 -18 -7q-7 1 -13 6l8 77q-1 6 -4 7q-31 3 -56 10 q-12 3 -22.5 6t-21.5 7l-11 3q-14 3 -19 24q-1 3 -1.5 7.5t-2 10.5t-2.5 13l-2 14l-2 14t-2 13t-1.5 11t-0.5 8l-1 3q1 15 9 17q14 -2 37 -43q39 -69 101 -86q5 0 6 4l25 237q-1 7 -3 9q-119 58 -141 139q-6 20 -6 42q1 59 47 104q46 49 129 54h10q3 2 5 5z" glyph-name="dollar" unicode="$"/>
<glyph d="M185 631q79 0 119 -85q20 -44 20 -89q0 -97 -53 -149q-38 -36 -91 -36q-88 0 -123 89q-16 40 -16 86q0 102 57 153q37 31 87 31zM191 298q55 0 63 121q1 16 1 30q0 90 -34 133q-19 22 -45 23q-55 0 -65 -114q-1 -16 -1 -32q0 -80 31 -129q21 -31 50 -32zM559 643 q3 0 5.5 -1t5 -2.5t4.5 -3.5t3.5 -4t3 -3.5t1.5 -2.5v-2q-256 -410 -412 -653q-5 -4 -20 2q-12 12 -5 25q64 102 193 307q141 222 205 325q7 11 16 13zM543 346q79 0 119 -85q20 -44 20 -89q0 -100 -55 -152q-37 -34 -89 -34q-87 0 -123 89q-16 41 -16 86q0 100 56 152 q37 33 88 33zM548 12q54 0 64 117q1 18 1 34q0 83 -31 128q-21 27 -48 28q-54 0 -65 -108q-2 -20 -2 -38q0 -76 30 -126q22 -34 51 -35z" glyph-name="percent" horiz-adv-x="725" unicode="%"/>
<glyph d="M269 613q70 -1 110 -61q21 -32 21 -63q1 -49 -65 -91q-7 -4 -20 -11q-10 -6 -14 -9q-3 -3 0 -6q54 -34 135 -123q18 -19 30 -34q7 -7 15 0q37 38 103 138q12 19 12 29v1q0 12 -41 21h-2q-18 4 -20 13q2 11 25 12q74 0 101 3q66 9 71 9q20 -1 22 -10q-2 -10 -22 -16 q-50 -14 -97 -63q-10 -9 -22 -23q-16 -17 -63 -75q-43 -52 -57 -67q-3 -7 0 -12q7 -10 23 -33q21 -30 31 -45q37 -52 110 -54q40 0 75 22q9 5 11 -4q-1 -15 -18 -32q-48 -45 -128 -46h-7q-38 0 -64 10q-26 13 -41 40q-37 67 -47 82l-1 1h-5q-60 -71 -110 -104q-4 -3 -6 -4 q-48 -27 -95 -27q-84 0 -137 64q-41 49 -41 114q1 81 92 152q37 28 60 42q3 3 1 6q-66 53 -67 115q0 61 47 102q46 37 95 37zM254 584q-26 0 -45 -27q-16 -22 -16 -53q0 -54 63 -101q8 -6 16 -11q7 -3 14 1q10 6 26 25l1 1q18 22 18 69q0 48 -30 77q-20 18 -47 19zM264 48 q59 0 120 61q15 14 25 28q5 11 -4 23q-52 71 -141 147q-25 22 -36 28q-10 6 -22 -2q-85 -66 -86 -149q2 -59 45 -97q45 -39 99 -39z" glyph-name="ampersand" horiz-adv-x="770" unicode="&amp;"/>
<glyph d="M113 693q13 -2 14 -21q1 -50 -26 -178q-11 -29 -23 -31q-9 0 -15 20q-1 4 -1 7q-10 111 -19 151q1 8 7 16q21 21 50 33q8 3 13 3z" glyph-name="quotesingle" horiz-adv-x="174" unicode="'"/>
<glyph d="M129 282q0 -186 52 -298q26 -54 103 -163q8 -11 2 -20q-13 -10 -22 -11q-14 1 -30 18q-159 179 -159 452q0 206 108 378q31 50 65 85q17 17 29 18q19 -2 24 -14q-1 -9 -10 -18q-97 -89 -140 -255q-22 -86 -22 -172z" glyph-name="parenleft" horiz-adv-x="341" unicode="("/>
<glyph d="M211 247q0 200 -75 334q-30 55 -85 123q-5 11 2 20q11 10 22 11q18 -1 34 -19q154 -188 154 -445q0 -208 -111 -380q-30 -45 -61 -78q-18 -18 -29 -19q-14 1 -19 11q-2 6 8 19q107 110 145 283q15 70 15 140z" glyph-name="parenright" horiz-adv-x="341" unicode=")"/>
<glyph d="M147 653q7 0 14 -14q3 -8 19 -86q1 -3 1 -5q3 -3 7 -1q44 30 72 43q22 5 24 -5q-1 -8 -11 -18q-20 -22 -65 -53q-3 -5 1 -8q58 -33 77 -49q13 -10 14 -15q-1 -13 -25 -8q-35 9 -82 32q-1 1 -4 -2q-1 -3 -1 -4q1 -30 1 -75q-1 -26 -12 -29q-12 1 -19 20q-8 28 -14 82 q-3 5 -6 5q-48 -29 -79 -40q-19 -5 -24 5q1 12 11 19q16 13 67 48q2 6 -1 9q-43 22 -70 41q-11 8 -12 17q2 13 23 7q8 -2 80 -30q3 0 5 5q-4 78 -1 93q2 13 10 16z" glyph-name="asterisk" horiz-adv-x="327" unicode="*"/>
<glyph d="M283 499q7 10 47 14q12 -1 15 -11l-3 -217q1 -5 6 -6l207 2q6 -3 8 -14q-1 -34 -14 -38l-201 -3q-5 -2 -6 -9l-2 -216q0 -11 -29 -15q-8 -1 -15 -1q-8 0 -11 8q-1 2 -1 3l-1 219q-1 9 -6 11l-196 1q-21 2 -21 25q0 21 12 27q2 1 3 1l202 -1q5 1 6 7v213z" glyph-name="plus" horiz-adv-x="624" unicode="+"/>
<glyph d="M90 112q42 0 64 -41q12 -24 12 -52q0 -73 -73 -111q-27 -14 -42 -14q-17 1 -18 9q0 8 17 15l1 1q58 36 59 73q-1 22 -29 32q-37 15 -38 42q0 35 34 44q7 2 13 2z" glyph-name="comma" horiz-adv-x="205" unicode=","/>
<glyph d="M52 231q50 7 194 22q4 0 7 -9q1 -1 1 -2q0 -35 -13 -46q-3 -2 -5 -2q-29 -3 -185 -19q-13 2 -16 14q0 32 15 41q1 1 2 1z" glyph-name="hyphen" horiz-adv-x="292" unicode="-"/>
<glyph d="M102 103q43 0 54 -42q2 -9 2 -16q0 -38 -33 -53q-11 -5 -23 -5q-38 0 -51 33q-4 12 -4 25q0 40 38 55q10 3 17 3z" glyph-name="period" horiz-adv-x="205" unicode="."/>
<glyph d="M44 -48q38 98 115 292q106 266 157 400q8 14 15 15q11 0 24 -5q9 -5 7 -14q-48 -125 -146 -369q-85 -213 -127 -320q-9 -18 -17 -17q-13 0 -21 5t-7 13z" glyph-name="slash" horiz-adv-x="403" unicode="/"/>
<glyph d="M251 631q121 0 172 -150q26 -77 26 -162q0 -167 -72 -262q-20 -27 -42 -41q-46 -29 -92 -28q-115 2 -171 137q-34 83 -34 179q0 179 85 270q18 18 36 30q44 27 92 27zM234 601q-34 -1 -61 -38q-51 -78 -51 -247q0 -133 42 -223q36 -77 93 -78q35 2 65 48q39 76 39 250 q0 164 -54 246q-11 16 -21 23q-28 19 -52 19z" glyph-name="zero" unicode="0"/>
<glyph d="M107 5q0 11 31 19q1 1 2 1q48 11 59 32q7 12 9 32q7 59 7 290q0 135 -4 155q-5 16 -22 20q-6 1 -19 3q-20 3 -26 5q-18 6 -19 14q0 8 16 14q2 1 4 1q77 16 94 24q6 2 11 5l38 19q10 0 11 -10q0 -6 -1 -22q-3 -44 -2 -93q0 -278 1 -396q0 -56 12 -70q13 -13 53 -23 q25 -6 26 -18q-2 -10 -24 -11q-12 0 -43 2q-38 2 -54 2q-38 0 -107 -4q-23 -1 -28 -1q-24 1 -25 10z" glyph-name="one" unicode="1"/>
<glyph d="M55 -3q-11 -2 -19 7q-2 3 -2 4q-2 9 13 23q44 41 159 184q102 133 103 223q0 92 -72 116q-21 7 -43 7q-75 -1 -123 -62q-16 -20 -21 -21q-5 0 -10 11q-1 2 -1 3q1 16 13 33q70 105 180 106q78 0 126 -65q34 -47 34 -104q0 -75 -70 -165q-5 -6 -9 -11q-146 -170 -181 -208 q-4 -4 2 -8q74 -7 199 -1q21 1 30 2q37 6 62 30q4 5 8 9q15 16 20 17q12 0 8 -19q-2 -7 -5 -13q-26 -57 -31 -90q-3 -9 -15 -9q-1 0 -34 1q-184 3 -220 3q-65 0 -101 -3z" glyph-name="two" unicode="2"/>
<glyph d="M239 631q82 0 122 -67q17 -30 17 -58q0 -47 -35 -85q-28 -29 -59 -50q-3 -7 2 -10q85 -19 121 -63q28 -35 28 -92q0 -93 -84 -171q-28 -25 -60 -44q-72 -42 -148 -42q-66 0 -92 30q-9 10 -9 20q1 11 8 23q13 18 27 19q8 -1 24 -14q42 -36 101 -36q47 1 83 29 q56 44 64 119q1 9 1 17q-1 70 -36 109q-32 34 -90 34q-39 0 -78 -17q-6 -2 -8 4v4q1 13 15 26q15 10 49 28q88 45 95 110q1 8 1 16q0 55 -46 84q-24 15 -51 15q-64 -1 -110 -56q-14 -17 -21 -18q-8 2 -9 14q0 18 37 57q9 10 18 18q54 47 123 47z" glyph-name="three" unicode="3"/>
<glyph d="M377 446v-197q1 -6 5 -8l90 2q5 -2 6 -9q0 -22 -12 -36q-3 -2 -4 -3l-79 1q-4 -1 -6 -7v-82q3 -58 15 -69q10 -8 38 -14q21 -6 22 -16q-2 -11 -23 -12q-12 -1 -47 2q-33 2 -47 2q-18 0 -53 -3q-34 -2 -51 -2q-25 1 -26 13q0 9 21 15q3 1 5 1q46 8 55 31q3 11 6 48 q3 57 3 79q-1 11 -5 13q-42 5 -211 1q-39 -1 -54 -3q-16 -1 -18 8q1 9 27 44l321 439q10 13 19 14h11q13 -1 14 -8q-1 -5 -5 -11l-317 -428q-2 -6 2 -8q71 -6 208 -2h4q0 1 5 7l1 191q1 8 9 15q25 14 62 18q9 -2 9 -26z" glyph-name="four" unicode="4"/>
<glyph d="M423 196q-1 -101 -89 -175q-69 -58 -181 -74q-24 -4 -42 -4q-20 0 -23 1q-13 2 -14 8q0 7 13 17q4 2 7 3q129 11 198 81q49 50 49 117q0 82 -73 130q-14 9 -28 15q-83 35 -161 49q-6 2 -12 19q-1 3 -1 4q0 38 40 147q6 15 10 26q14 31 22 34q35 14 162 30q49 6 78 6 q4 -1 8 -9q0 -38 -36 -70q-10 -8 -15 -9q-186 -13 -190 -13q-8 -1 -12 -9q-18 -53 -21 -63q-1 -11 7 -14q92 -20 179 -63q12 -6 20 -11q90 -53 103 -146q2 -14 2 -27z" glyph-name="five" unicode="5"/>
<glyph d="M312 365q89 0 125 -79q16 -35 16 -78q-1 -113 -90 -178q-57 -43 -123 -43q-114 0 -167 96q-33 58 -33 139q0 156 127 297q53 58 116 99q106 66 163 67q19 -1 20 -11q-2 -7 -20 -16q-89 -36 -168 -107q-110 -99 -142 -235q-11 -45 -11 -88q0 -92 51 -153q41 -48 97 -49 q32 1 54 16q50 39 51 122q0 95 -65 127q-23 11 -50 11t-71 -21q-1 -1 -2 -1q-4 -2 -8 4q-1 3 -1 4q1 11 11 22q18 20 54 36q2 1 3 1q32 18 63 18z" glyph-name="six" unicode="6"/>
<glyph d="M234 618q69 -1 164 3l52 2q14 -1 17 -6q0 -6 -8 -19q-25 -35 -172 -338q-23 -46 -40 -82q-96 -200 -100 -211q-6 -13 -14 -14q-17 0 -24 15q-1 3 -1 5q1 8 9 23q33 65 100 198q122 239 168 339l-3 7h-1q-64 7 -211 7q-40 0 -60 -4q-26 -2 -46 -30q-7 -8 -16 -22 q-12 -20 -21 -22q-8 2 -9 13q0 11 11 39q10 24 21 81q2 14 10 23q6 3 14 0q18 -7 160 -7z" glyph-name="seven" unicode="7"/>
<glyph d="M251 649q91 0 140 -61q30 -39 30 -88q-1 -57 -55 -102q-11 -10 -68 -48q-5 -4 -2 -9q105 -78 126 -145q7 -21 7 -41q0 -72 -64 -124l-8 -6q-51 -38 -123 -38q-109 0 -158 76q-22 35 -22 73q0 66 67 121l3 3q50 40 64 50q1 2 -1 6q-51 36 -80 73q-37 46 -37 100 q1 71 54 114q54 46 127 46zM248 15q70 0 92 63q8 21 8 46q0 71 -89 142q-14 10 -33 24q-10 7 -15 5q-44 -30 -68 -92q-12 -31 -12 -56q1 -45 32 -91q40 -37 85 -41zM241 622q-53 0 -81 -43q-17 -27 -17 -61q0 -64 73 -122q18 -14 45 -33q7 -4 12 -2q31 24 45 46 q29 50 29 100q0 31 -24 68q-32 46 -82 47z" glyph-name="eight" unicode="8"/>
<glyph d="M253 631q109 0 161 -102q31 -60 31 -134q0 -122 -90 -253q-68 -99 -156 -154q-72 -45 -120 -45q-15 2 -19 11q1 5 14 10q99 49 172 137q78 90 103 214q8 39 8 75q0 96 -46 158q-11 14 -23 24q-28 22 -68 22q-56 0 -88 -58q-18 -33 -18 -68q0 -107 75 -138q24 -9 52 -9 q23 0 59 17q9 2 11 -5q-1 -7 -5 -17q-5 -10 -18 -21q-37 -31 -89 -37q-6 -1 -10 -1q-83 0 -124 70q-24 41 -24 93q0 96 71 158q18 15 37 26q47 27 104 27z" glyph-name="nine" unicode="9"/>
<glyph d="M124 362q41 0 52 -41q2 -9 2 -16q0 -36 -32 -51q-11 -5 -23 -5q-38 0 -51 33q-4 12 -4 25q0 41 41 53q9 2 15 2zM124 102q41 0 52 -41q2 -9 2 -16q0 -36 -32 -51q-11 -5 -23 -5q-36 0 -50 31q-5 12 -5 26q0 42 41 54q9 2 15 2z" glyph-name="colon" horiz-adv-x="247" unicode=":"/>
<glyph d="M124 361q41 0 52 -41q2 -9 2 -16q0 -36 -32 -51q-11 -5 -23 -5q-34 0 -48 28q-7 13 -7 28q0 41 40 54q9 3 16 3zM110 108q43 0 64 -42q11 -22 11 -49q0 -72 -71 -110q-25 -13 -41 -13q-16 1 -17 8q1 10 13 17q57 34 58 73q-2 19 -22 27q-38 16 -42 43q0 33 33 44 q8 2 14 2z" glyph-name="semicolon" horiz-adv-x="247" unicode=";"/>
<glyph d="M493 80q7 -4 -2 -26q-6 -12 -14 -20q-5 -5 -15 -1l-329 183q-41 23 -42 32q1 5 7 15q11 16 31 27l323 181q14 7 20 2q30 -33 17 -44l-309 -167l-4 -6q1 -3 3 -5z" glyph-name="less" horiz-adv-x="586" unicode="&lt;"/>
<glyph d="M553 377q9 -1 10 -12q0 -43 -10 -44h-480q-12 1 -13 16q0 24 11 34q3 2 4 2zM552 188q7 0 10 -11q1 -3 1 -5q-1 -34 -14 -37l-475 1q-11 4 -14 22q0 24 12 30q2 1 3 1z" glyph-name="equal" horiz-adv-x="624" unicode="="/>
<glyph d="M493 257q-1 -7 -7 -15q-11 -16 -31 -27l-323 -182q-13 -6 -20 -1q-24 22 -21 37q2 5 5 7q45 24 139 75q119 65 173 94q3 3 -2 8q-206 112 -315 172q-7 4 4 29q6 12 13 20q8 4 14 1q142 -80 330 -187q40 -25 41 -31z" glyph-name="greater" horiz-adv-x="586" unicode="&gt;"/>
<glyph d="M138 600q38 -1 96 -49q24 -18 50 -60q29 -46 29 -83q0 -62 -34 -98q-2 -3 -3 -4q-23 -15 -88 -51q-17 -7 -18 -31q-1 -9 -1 -11q-2 -25 -16 -26q-9 0 -16 25q-1 2 -1 3q-13 54 -13 78q0 31 47 56q16 9 47 22q48 22 49 56q0 62 -37 77q-18 7 -41 7q-4 0 -17 -2 q-20 -2 -30 -2q-19 0 -33 26q-9 16 -9 31q0 19 20 31q10 5 19 5zM171 108q44 0 56 -43q2 -9 2 -17q0 -39 -33 -55q-13 -6 -26 -6q-38 0 -53 32q-6 13 -6 29q0 43 42 57q10 3 18 3z" glyph-name="question" horiz-adv-x="357" unicode="?"/>
<glyph d="M496 335q-33 -1 -81 -53q-63 -71 -85 -140q-7 -22 -7 -38q1 -21 15 -22q29 2 84 50q67 60 113 146q5 11 9 19q5 12 -1 21q-16 17 -47 17zM524 383q24 -1 40 -17q6 -2 8 1q4 9 10 25q6 13 7 16q4 8 17 9h2q18 -1 29 -8q6 -2 5 -13q-92 -224 -106 -301q-6 -36 23 -40 q6 -1 13 -1q75 0 137 62q68 69 68 168q0 136 -103 210q-77 55 -185 55q-172 0 -277 -128q-94 -117 -95 -277q0 -124 76 -209q86 -95 234 -95q136 1 244 97q9 9 14 2q2 -3 2 -6q-1 -16 -13 -31q-70 -80 -206 -101q-33 -5 -64 -5q-155 0 -253 93q-99 95 -99 259q0 172 120 297 q109 113 261 134q29 4 58 4q183 0 272 -120q57 -77 57 -178q0 -104 -79 -184q-87 -87 -213 -87q-55 0 -66 25q-2 4 -2 7q-1 9 8 34l27 79q2 3 -2 5q-3 0 -5 -2q-146 -147 -211 -148q-24 0 -33 26q-2 8 -2 16q-2 62 93 178q1 2 2 3q69 84 136 126q32 20 51 20z" glyph-name="at" horiz-adv-x="874" unicode="@"/>
<glyph d="M353 661q6 0 15 -24q1 -1 1 -2q6 -20 44 -124q95 -266 144 -385q28 -71 55 -87q13 -8 39 -14q23 -8 24 -17q-2 -13 -32 -13q-15 0 -54 2q-49 3 -72 3q-17 0 -40 -1q-20 -1 -31 -1q-30 0 -31 12q0 11 22 16h2q22 5 32.5 13t9.5 17.5t-2 20.5q-7 35 -56 171q-5 10 -34 10 q-135 0 -164 -4q-6 -1 -11 -8q-46 -121 -52 -175q0 -26 44 -41q3 -1 5 -2q26 -8 27 -18q-1 -13 -28 -13q-7 0 -25 1q-33 2 -54 2q-23 0 -73 -3q-25 -2 -31 -2q-22 1 -23 10q2 13 22 20q45 15 59 29q15 17 33 56q2 4 150 382q20 51 31 79q6 12 6 21q1 6 2 8q6 8 20 33 q8 12 10 16q11 11 16 12zM398 303q3 1 3 8q-64 193 -78 215q-4 8 -7 2q-1 -1 -1 -2q-68 -183 -78 -219q0 -6 5 -7q14 0 53 1q81 0 103 2z" glyph-name="A" horiz-adv-x="676" unicode="A"/>
<glyph d="M500 495q-1 -88 -81 -132q-4 -1 0 -6l2 -2q122 -57 123 -165q-1 -96 -80 -149q-59 -42 -167 -46h-12q-12 0 -66 2q-78 2 -104 2q-12 0 -37 -1h-27q-28 1 -29 13q1 11 25 16q59 11 69 31q4 8 6 30q8 58 8 328q0 127 -6 158q-5 22 -19 29t-44 11q-25 5 -26 16q2 12 27 13 h67q15 0 70 3q67 4 89 4q95 0 141 -29q62 -38 70 -111q1 -8 1 -15zM416 488q0 92 -80 121q-30 10 -66 10q-20 0 -43 -8q-6 -5 -12 -16q-6 -50 -6 -222q2 -12 11 -13q82 0 130 20q7 2 11 5q46 30 54 87q1 9 1 16zM450 180q0 79 -69 122q-7 5 -14 8q-37 19 -106 19h-8.5 t-8 -0.5l-7 -1t-6.5 -1t-5.5 -1t-4 -1.5t-3.5 -2h-1q-5 -7 -7 -27v-2q-6 -66 2 -178q1 -15 2 -23q4 -21 16 -33q31 -28 68 -34q82 0 125 63q27 39 27 92z" glyph-name="B" horiz-adv-x="589" unicode="B"/>
<glyph d="M431 661q51 0 118 -16q14 -2 46 -11q23 -7 30 -8q11 0 14 -20q1 -5 1 -10q0 -12 7 -87q-1 -29 -15 -33q-8 2 -16 26q-15 52 -41 75q-70 52 -160 52q-127 0 -203 -98q-61 -79 -61 -186q0 -95 35 -165q52 -107 168 -145q44 -15 85 -15q63 1 109 27q53 28 92 94q1 2 1 3 q16 26 21 26q12 0 10 -29q-1 -2 -1 -4q-4 -37 -36 -94q-2 -4 -4 -7q-7 -13 -31 -26q-38 -17 -126 -25q-29 -3 -56 -3q-141 0 -246 82q-23 18 -38 35q-84 98 -84 230q0 114 79 208q16 19 31 32q114 92 271 92z" glyph-name="C" horiz-adv-x="717" unicode="C"/>
<glyph d="M338 652q148 0 255 -79q13 -9 22 -18q64 -62 85 -163q6 -30 6 -58q0 -136 -94 -236q-32 -34 -66 -53q-98 -56 -238 -56q-91 0 -196 8q-20 1 -53 1q-31 1 -32 15q2 12 22 14q53 6 65 30q10 19 12 76q3 71 3 137q0 120 -5 257q-2 54 -12 67q-13 14 -52 20q-21 5 -23 16 q2 12 24 13h28q22 0 93 4q107 5 156 5zM294 621q-54 0 -69 -8q-9 -7 -10 -13q-4 -25 -4 -190v-145q0 -114 4 -173q3 -34 22 -47q28 -21 73 -25q5 -1 9 -1q76 0 148 39q22 12 39 26q89 76 101 213q2 19 2 37q0 99 -61 181q-21 28 -46 47q-67 50 -179 58q-15 1 -29 1z" glyph-name="D" horiz-adv-x="755" unicode="D"/>
<glyph d="M223 643h147q69 0 92 3q3 1 7 -7q2 -2 2 -4q0 -28 1 -66q1 -21 1 -29q-1 -25 -15 -26q-11 1 -16 24q-13 52 -47 64q-9 2 -20 4q-53 8 -142 4q-7 0 -12 -14q-2 -7 -3 -14q-5 -63 -4 -210q1 -14 1 -18q4 -9 7 -10h65q77 0 93 11q11 10 23 39q9 20 18 21q10 -1 8 -22 q-3 -43 -3 -72q0 -4 3 -61q1 -28 -11 -29q-11 1 -17 22q-11 36 -24 43t-55 9q-33 2 -99 2q-6 -1 -9 -9q-3 -17 -3 -157q0 -56 10 -83q7 -18 19 -22q40 -7 91 -7q69 0 95 7q52 14 83 74q14 27 23 28q10 0 9 -22q-1 -3 -1 -5q-3 -21 -28 -90q-6 -14 -8 -17q-9 -11 -17 -12 q-2 0 -24 1q-172 7 -301 7q-29 0 -66 -3q-30 -2 -47 -2q-29 1 -30 13q2 9 28 16q48 12 60 28q11 15 13 45q8 113 8 284q0 155 -1 169q-2 42 -22 54q-12 7 -34 12q-28 8 -29 17q1 13 28 14q21 0 63 -2q54 -2 90 -2z" glyph-name="E" horiz-adv-x="563" unicode="E"/>
<glyph d="M177 643h130q44 0 138 2q19 1 22 1q8 2 11 -7q1 -2 1 -3q0 -6 3 -93v-5q-1 -22 -14 -27q-13 2 -22 31q-15 47 -35 56q-10 5 -25 7q-51 8 -147 3q-5 -1 -8 -1q-12 -3 -16 -13q-4 -48 -4 -221q0 -36 10 -37q132 0 144 1q31 3 43 23q5 9 11 23q11 23 19 24q9 -2 9 -22 q0 -6 -2 -27q-3 -26 -3 -36q0 -29 1 -55q1 -16 1 -24q-1 -22 -15 -23q-9 2 -15 21q-10 37 -31 45q-5 2 -10 3q-27 5 -67 5q-67 0 -88 -3q-4 -1 -8 -12q-1 -28 4 -188q1 -33 16 -45q17 -11 52 -18q23 -6 24 -19q-2 -11 -28 -12q-12 0 -39 1q-36 2 -56 2q-23 0 -77 -4 q-33 -2 -42 -2q-27 1 -28 10q2 13 27 20q53 13 57 45v4q8 84 8 303q0 153 -2 179q-2 40 -42 56q-10 3 -21 6q-24 7 -25 17q2 12 28 12q24 0 65 -2q32 -1 46 -1z" glyph-name="F" horiz-adv-x="527" unicode="F"/>
<glyph d="M415 661q66 0 168 -22q33 -7 38 -8q8 0 11 -15q1 -5 1 -9q0 -10 6 -39q8 -49 8 -71q-1 -21 -13 -22q-9 2 -18 23q-16 41 -38 70q-33 41 -106 56q-27 6 -54 6q-136 0 -213 -106q-59 -82 -59 -192q0 -108 45 -182q58 -98 168 -128q37 -10 74 -10q40 0 79 18q6 3 11 6 q11 7 19 41q2 7 2 11q0 85 -3 104q-8 26 -29 35t-61 12q-23 3 -26 17q4 13 30 14q8 0 47 -2q57 -2 73 -2q11 0 39 2q34 2 51 2q26 -1 27 -13q-2 -9 -23 -17q-28 -8 -34 -26q-1 -2 -2 -5q-5 -15 -5 -124q1 -20 14 -29q17 -9 17 -17v-1q0 -9 -13 -13q-1 -1 -2 -1q-7 -2 -27 -7 q-40 -10 -64 -17q-65 -18 -138 -18q-162 0 -263 89q-2 1 -3 2q-97 93 -103 232v14q1 153 113 252q86 77 219 88q19 2 37 2z" glyph-name="G" horiz-adv-x="724" unicode="G"/>
<glyph d="M212 367q3 -20 11 -20q22 0 94 1q166 2 278 2q8 0 11 24v2l-1 163q0 13 -1 20q-3 33 -19 44q-11 6 -36 13q-24 8 -25 19q2 11 31 11q5 0 37 -1q50 -1 65 -1q22 0 67 2q20 1 24 1q27 -1 28 -12q0 -10 -27 -16q-1 -1 -2 -1q-43 -10 -50 -40q-1 -8 -2 -17q-8 -83 -8 -330 q0 -28 3 -107q1 -35 1 -41q2 -33 19 -42q10 -6 38 -14q22 -9 23 -19q-2 -11 -28 -11q-7 0 -29 1q-36 2 -54 2q-11 0 -61 -3q-46 -3 -56 -3q-24 1 -25 11q1 12 22 18q42 13 52 32q8 17 10 66q4 84 4 161q-1 21 -12 21q-65 0 -202 1q-158 1 -170 0q-5 0 -10 -11q-1 -4 -1 -6 v-183q1 -49 26 -66q12 -7 28 -12q28 -9 30 -20q0 -10 -29 -10q-2 0 -19 1q-60 3 -85 3q-10 0 -40 -2q-41 -2 -59 -2q-29 1 -30 10q1 13 23 19q46 12 56 30q5 11 7 32q9 124 9 317v154q-2 36 -20 47q-11 6 -30 10q-27 6 -28 19q2 11 29 11q14 0 47 -1q31 -1 44 -1q24 0 61 1 q24 1 34 1q31 -1 32 -11q0 -13 -27 -19h-2q-40 -8 -48 -30q-3 -11 -5 -36q-6 -63 -3 -177v-5z" glyph-name="H" horiz-adv-x="816" unicode="H"/>
<glyph d="M128 326q0 168 -3 219q-3 42 -13 53q-12 12 -46 18q-27 6 -28 18q2 11 25 12q12 0 48 -1q44 -2 61 -2q27 0 63 2q28 1 44 1q24 -1 25 -12q-2 -12 -26 -17q-49 -10 -57 -41q-1 -5 -4 -23q-6 -42 -6 -294q0 -101 3 -149q3 -50 19 -64t54 -22q25 -5 26 -17q-3 -12 -27 -13 q-30 0 -96 4q-42 2 -53 2q-14 0 -34 -1q-23 -1 -42 -1q-25 1 -26 14q2 11 30 17q42 9 51 31q5 13 7 42q5 59 5 224z" glyph-name="I" horiz-adv-x="339" unicode="I"/>
<glyph d="M-73 -167q0 15 21 38l2 2q11 10 24 13q13 -1 31 -12q33 -21 52 -21q24 1 40 19q24 27 28 83q6 94 6 312q0 222 -6 294q-4 38 -43 50l-16 4q-30 6 -31 19q2 12 27 12q14 0 46 -1q42 -2 65 -2q18 0 56 2q34 1 49 1q26 -1 27 -10q0 -14 -28 -20h-2q-42 -8 -52 -35 q-5 -15 -5 -38q0 -41 -2 -222q-2 -187 -2 -231q-1 -131 -76 -218q-16 -18 -32 -30q-63 -48 -114 -48q-38 0 -58 23q-7 9 -7 16z" glyph-name="J" horiz-adv-x="330" unicode="J"/>
<glyph d="M43 633q2 12 27 13q11 0 42 -1q39 -2 56 -2q16 0 52 1q30 1 41 1q26 -1 27 -12q-2 -10 -29 -17q-35 -7 -43 -27q-4 -11 -5 -28q-5 -62 -2 -196q1 -15 1 -19q3 -6 7 -7q2 0 9 3l6 4q41 31 182 173q30 30 41 42q36 40 -7 53q-3 1 -4 1q-22 8 -23 15q2 12 26 13q10 0 20 -1 h18q12 0 69 2q64 3 79 3q25 -1 26 -12q-2 -11 -27 -18q-55 -12 -105 -47q-15 -11 -40 -30q-68 -54 -159 -143q-25 -25 -30 -32q-2 -8 0 -10q17 -21 267 -278q42 -42 84 -50q6 -1 21 -4q18 -6 20 -14q-3 -13 -25 -15q-13 0 -73 4q-59 4 -73 4q-20 0 -43 -1h-27q-17 3 -21 18 q0 8 40 16q2 1 3 1q6 1 6 8q-1 1 -1 2q-45 57 -211 227l-5 5q-36 39 -41 41q-3 1 -4 1q-3 -1 -5 -21q-3 -29 2 -218q1 -32 40 -47q9 -3 20 -6q22 -6 23 -18q-2 -12 -26 -13q-10 0 -52 1q-54 2 -71 2q-16 0 -48 -2q-33 -1 -49 -1q-19 0 -23 10q-1 2 -1 3q0 10 23 16q3 0 6 1 q48 10 61 35q8 17 10 48q3 103 3 236q0 143 -4 214q-2 35 -28 47q-11 5 -27 9q-26 7 -26 17z" glyph-name="K" horiz-adv-x="683" unicode="K"/>
<glyph d="M46 633q2 12 30 12q13 0 36 -1q24 -1 38 -1q22 0 80 2q40 1 51 1q24 -1 25 -11q-2 -11 -23 -17q-60 -13 -66 -33q-1 -3 -1 -6q-6 -47 -6 -294q0 -149 7 -207q2 -16 25 -33q6 -4 9 -5q33 -5 96 -5q48 0 71 3q23 4 40 19q33 34 57 67q14 21 25 22q9 0 5 -24q-1 -2 -1 -3 q-23 -72 -31 -108q-3 -13 -24 -17q-2 0 -16 1q-128 5 -290 5q-41 0 -85 -2l-44 -3q-28 1 -29 11q2 13 24 18q55 11 68 43q4 11 6 26q5 63 5 329q0 109 -1 142q-1 31 -27 42q-11 5 -26 8q-27 6 -28 19z" glyph-name="L" horiz-adv-x="562" unicode="L"/>
<glyph d="M47 635q0 9 16 10h13q33 0 71 -1q36 -1 63 -1q4 0 9 -9q2 -3 2 -4q11 -32 38 -91q165 -348 186 -377q5 -6 10 -3q196 369 212 412q0 1 5 13q14 32 18 45q3 9 11 14q24 0 97 2q26 1 29 1q25 -1 26 -11q0 -11 -24 -16h-2q-24 -5 -45 -13q-30 -14 -31 -77q0 -302 14 -433 q5 -40 26 -54q13 -7 39 -15q26 -7 27 -19q-2 -12 -29 -13q-4 0 -32 1q-69 4 -93 4q-9 0 -34 -1q-29 -2 -42 -2q-25 1 -27 14q2 11 26 18q35 10 42 41q2 10 4 31q6 70 0 341q0 32 -1 45q-2 9 -5 9l-3 -3q-32 -54 -148 -290q-9 -20 -16 -34q-42 -91 -62 -143q-5 -13 -9 -19.5 t-6.5 -7.5t-6.5 -1h-1q-10 2 -15 19q-12 44 -37 106q-26 64 -140 304q-22 45 -33 71q-5 11 -6 1q-1 -2 -1 -4q-11 -59 -16 -292q-1 -61 0 -94q2 -47 20 -62q13 -10 41 -19q26 -9 27 -19q-2 -12 -27 -12q-17 0 -55 2q-33 1 -45 1t-39 -1q-29 -2 -41 -2q-25 1 -26 14 q2 9 20 14q51 15 64 40q7 15 12 52q16 109 31 379q2 35 3 53q0 41 -39 56l-6 2q-33 10 -43 12q-14 5 -16 16z" glyph-name="M" horiz-adv-x="889" unicode="M"/>
<glyph d="M15 634q2 12 33 12q9 0 37 -1q55 -2 85 -2q8 -1 21 -13q41 -49 79 -99q47 -60 332 -370q7 -4 10 7q3 18 2 248v36q0 49 -5 100q-2 39 -49 56q-7 3 -14 5q-26 9 -27 22q1 9 26 9h39q31 -1 47 -1q19 0 55 2q27 2 39 2q22 -1 23 -11q0 -13 -22 -19q-1 -1 -2 -1 q-43 -10 -54 -29q-8 -16 -10 -44q-11 -198 -11 -405q0 -26 5 -94q2 -33 2 -39q-1 -19 -14 -21q-18 0 -42 29l-3 3q-7 9 -23 30q-24 32 -39 50q-45 54 -173 201q-137 158 -184 214q-5 6 -10 1q-1 -2 -1 -3q0 -8 -1 -24q-3 -54 -4 -109q0 -35 -1 -122q-1 -133 0 -153 q4 -44 26 -60q14 -8 37 -15q24 -7 25 -18q-2 -13 -32 -13q-14 0 -48 2q-40 3 -59 3q-12 0 -37 -1q-20 -1 -28 -1q-25 1 -26 11q1 11 20 17q42 14 53 27q14 19 17 67q19 307 19 404q0 37 -7 48q-24 28 -52 37q-6 2 -32 9q-21 7 -22 16z" glyph-name="N" horiz-adv-x="771" unicode="N"/>
<glyph d="M385 661q146 0 246 -95q101 -96 101 -236q0 -158 -106 -260q-18 -17 -36 -30q-87 -54 -197 -58q-130 0 -226 81q-19 16 -34 33q-83 93 -83 226q1 165 130 269q62 51 158 66q25 4 47 4zM363 628q-59 0 -115 -38q-13 -9 -23 -19q-78 -77 -78 -235q0 -114 70 -209 q77 -105 189 -111h11q88 0 132 48q60 54 79 162q6 36 6 74q0 131 -76 229q-21 26 -45 45q-56 45 -131 53q-10 1 -19 1z" glyph-name="O" horiz-adv-x="781" unicode="O"/>
<glyph d="M417 452q0 82 -60 133q-45 37 -103 37q-15 -1 -29 -9q-8 -8 -10 -39q-1 -12 -1 -122q-1 -91 -1 -138q0 -60 1 -155q1 -36 1 -45q1 -54 17 -69q11 -10 43 -19q26 -8 27 -19q-1 -12 -33 -12q-11 0 -38 2q-42 2 -67 2q-14 0 -49 -2q-36 -2 -52 -2q-27 1 -28 14q1 10 20 16 q53 12 64 42q5 13 6 32q5 80 5 181q0 178 -3 277q-1 34 -11 43q-12 10 -45 15q-30 5 -31 15q2 12 23 14h33q19 0 75 4q66 4 92 4q125 -1 187 -59q58 -56 58 -136q0 -94 -67 -153q-2 -1 -3 -2q-46 -39 -105 -44h-10q-34 0 -53 7q-16 8 -17 16q2 8 12 9h25q55 0 92 48 q35 45 35 114z" glyph-name="P" horiz-adv-x="545" unicode="P"/>
<glyph d="M396 661q135 0 233 -92q100 -101 102 -239q-1 -152 -105 -250q-50 -47 -122 -77q-12 -5 -21 -8q-5 -3 -2 -10q24 -31 111 -89q7 -4 13 -8q102 -64 175 -64q18 0 69 10q11 1 13 -7q-1 -11 -15 -22q-37 -29 -94 -34h-11q-105 1 -220 75q-48 29 -144 103q-54 41 -113 60 q-112 37 -173 145q-42 77 -42 164q0 156 107 254q14 12 29 23q93 66 210 66zM361 626q-64 -1 -113 -39q-91 -72 -100 -223q-1 -18 -1 -37q0 -107 66 -198q6 -8 11 -14q41 -54 124 -85q33 -12 55 -12q73 0 125 34q66 46 95 155q12 46 12 88q0 140 -80 236q-12 14 -25 26 q-54 52 -136 66q-17 3 -33 3z" glyph-name="Q" horiz-adv-x="780" unicode="Q"/>
<glyph d="M506 481q0 -69 -55 -120q-13 -12 -26 -20q-2 -1 -9 -5q-17 -9 -22 -12q-5 -6 -4 -15q16 -38 89 -142q38 -53 66 -85q41 -47 98 -59q12 -5 16 -14q-1 -7 -14 -13q-18 -7 -55 -7q-59 0 -111 43q-13 11 -22 22q-52 71 -126 188q-27 41 -40 50q-8 8 -55 12q-9 1 -16 1 q-9 -2 -12 -12q-3 -54 4 -198v-4q2 -42 26 -55q12 -7 34 -12q23 -7 24 -17q-2 -11 -24 -13q-18 0 -48 2q-44 4 -81 4q-10 0 -49 -2q-27 -2 -32 -2q-25 1 -26 14q0 7 17 13q4 1 5 2q46 15 56 28q7 11 9 30q6 93 6 197q0 225 -6 284q-3 26 -12.5 33.5t-44.5 16.5h-1 q-23 7 -24 17q2 12 27 12h56q17 0 66 2q67 3 96 3q112 -1 163 -42q46 -38 55 -103q2 -12 2 -22zM417 479q0 39 -30 82q-8 10 -15 18q-34 33 -89 38h-10q-32 0 -48 -7q-8 -5 -12 -21q-6 -71 -4 -219q0 -21 1 -26q5 -12 16 -15q71 0 119 23l6 3q44 28 60 83q6 21 6 41z" glyph-name="R" horiz-adv-x="631" unicode="R"/>
<glyph d="M274 661q31 0 114 -17q3 -1 5 -1q8 -4 12 -19q1 -9 6 -45q4 -33 4 -36q-1 -26 -7 -27q-16 0 -23 18q-1 2 -1 3q-14 43 -45 69q-2 2 -4 3q-30 23 -71 23q-67 0 -99 -54q-16 -29 -16 -63q0 -55 52 -100q21 -17 87 -61q90 -61 118 -113q20 -38 20 -81q0 -71 -59 -123 q-11 -10 -23 -18q-47 -31 -122 -36h-14q-57 0 -115 20q-10 3 -16 6q-13 8 -22 29q-1 2 -1 3q-2 13 -7 43q-8 41 -8 51q0 8 11 17q2 2 3 2q12 -2 37 -57q26 -55 95 -74q19 -6 35 -6q70 0 104 55q17 30 17 66q0 59 -73 117q-23 18 -52 37q-112 73 -136 145q-9 26 -9 53 q1 74 55 122q55 49 148 49z" glyph-name="S" horiz-adv-x="473" unicode="S"/>
<glyph d="M341 642q146 0 229 2q47 3 68 18q11 6 14 6q9 0 6 -16q-1 -4 -2 -7q-14 -44 -22 -114q-2 -14 -13 -18q-3 -1 -4 -1q-10 0 -14 30v2q-5 42 -25 51q-15 7 -56 9l-129 -1q-8 0 -11 -1q-7 -2 -9 -13v-245q0 -211 4 -248q4 -40 19 -51t53 -20q25 -7 27 -18q-1 -12 -28 -12 q-2 0 -20 1q-63 4 -94 4q-17 0 -114 -7q-29 1 -30 12q0 11 16 16q2 1 3 1q53 12 65 35q8 18 10 73q7 206 7 340v119q-1 11 -8 13q-33 5 -124 5q-54 -1 -74 -23q-11 -9 -33 -52q-4 -9 -8 -14t-6 -5.5t-4 -0.5h-1q-9 1 -10 23q0 7 6 33q13 62 13 99q0 10 11 15q3 1 4 1 q2 0 8 -8q4 -5 8 -8q18 -17 34 -19q53 -6 234 -6z" glyph-name="T" horiz-adv-x="667" unicode="T"/>
<glyph d="M37 634q2 12 29 12q22 0 55 -2q31 -1 48 -1q21 0 61 1q27 1 36 1q30 -1 31 -11q-2 -13 -30 -19q-43 -8 -54 -33q-5 -10 -7 -24q-4 -28 -4 -279q0 -120 46 -178q5 -7 10 -13q34 -38 107 -51q20 -4 38 -4q91 0 145 58q31 34 42 82q22 98 22 251q0 80 -4 129q-3 36 -21 49 q-15 9 -45 16q-16 3 -20 15q-1 2 -1 3q2 10 23 10q12 0 37 -1q31 -2 48 -2q22 0 54 1q24 1 36 1q24 -1 25 -11q-2 -10 -22 -18q-45 -12 -57 -42q-7 -20 -8 -50q-1 -26 -5 -123q-3 -62 -4 -83q-7 -236 -125 -302q-57 -32 -144 -32q-99 0 -169 49q-7 6 -12 10q-59 56 -73 164 q-7 54 -7 130q0 184 -4 237q-3 32 -52 43h-2q-22 7 -23 17z" glyph-name="U" horiz-adv-x="762" unicode="U"/>
<glyph d="M-1 635q3 12 30 13q8 0 31 -2q45 -3 74 -3q19 0 59 1q30 1 40 1q23 -1 24 -12q0 -13 -22 -18h-2q-48 -9 -49 -35q0 -6 2 -13q32 -99 145 -379q10 -24 16 -39q7 -5 10 -1q4 12 80 190q62 148 82 196q21 49 -12 68q-11 6 -34 13q-21 7 -22 18q2 11 29 12q10 0 32 -1 q30 -1 48 -1q16 0 52 2q28 2 38 2q28 -1 29 -13q-2 -11 -26 -17q-51 -13 -78 -62q-5 -8 -9 -17q-13 -29 -36 -76q-53 -111 -96 -218q-74 -180 -84 -211q-5 -15 -10 -31q-9 -22 -21 -23q-9 0 -15 14q-1 3 -1 5q-14 68 -52 163q-84 224 -144 369q-24 61 -63 80q-11 5 -22 8 q-22 8 -23 17z" glyph-name="V" horiz-adv-x="656" unicode="V"/>
<glyph d="M-2 635q4 10 26 11q22 0 55 -2q32 -1 52 -1q14 0 59 2q21 1 25 1q24 -1 25 -12q0 -11 -25 -18q-1 -1 -2 -1q-40 -12 -31 -40q96 -236 196 -450q3 -5 8 -1q26 42 86 177q2 7 -1 14q-52 125 -96 220q-26 55 -42 67q-11 7 -32 13q-24 7 -25 18q2 11 29 11h24q39 -1 58 -1 q27 0 61 1l34 2q24 -1 25 -11q-2 -14 -24 -19q-37 -7 -39 -21q0 -9 8 -27q14 -35 72 -164q2 -4 8 0q31 63 63 137q23 50 -1 66q-10 6 -30 11q-18 6 -21 15q2 12 29 12q8 0 24 -1q28 -1 46 -1q17 0 52 1q23 1 30 1q21 -1 22 -10q0 -12 -24 -18q-2 -1 -4 -1q-36 -9 -57 -38 q-9 -13 -21 -34q-34 -57 -95 -178q-2 -9 3 -17q65 -153 100 -218q4 -11 10 -2q1 1 1 2q58 125 183 408q20 48 -2 64q-10 8 -30 14q-22 7 -23 16q2 12 26 12q12 0 37 -1q22 -1 31 -1q15 0 47 1q33 2 48 2q25 -1 26 -11q0 -12 -23 -18h-2q-41 -8 -64 -39q-11 -15 -22 -37 l-10 -20q-79 -152 -134 -276q-73 -166 -101 -236q-7 -17 -22 -22q-2 -1 -4 -1q-9 0 -14 16q-1 2 -1 3q-10 35 -89 213q-11 25 -18 42q-5 5 -8 2q-93 -195 -113 -250q-2 -5 -3 -9q-6 -15 -19 -22q-3 -1 -4 -1q-10 0 -17 17q-1 1 -1 2q-29 82 -62 159q-105 255 -165 374 q-1 3 -2 4q-27 50 -31 55q-17 19 -49 26q-24 5 -26 18z" glyph-name="W" horiz-adv-x="987" unicode="W"/>
<glyph d="M23 636q2 12 29 12q8 0 44 -2q57 -3 77 -3q21 0 50 1q23 1 36 1q23 -1 24 -11q0 -11 -21 -16q-1 -1 -2 -1q-33 -11 -19 -38q52 -94 112 -178q10 -14 14 -18q1 -1 3.5 -2t4.5 -1t2 1q51 57 117 155q14 20 19 30q16 31 -18 43q-9 3 -21 6q-24 6 -25 17q2 12 29 13 q15 0 47 -1q29 -1 42 -1q12 0 54 2q40 1 51 1q21 -2 23 -11q-1 -12 -22 -18q-65 -12 -109 -59q-7 -7 -14 -15q-116 -136 -155 -190v-11v-1q9 -23 143 -216q4 -7 7 -11q38 -50 58 -64q22 -15 62 -25q23 -6 24 -19q-2 -12 -30 -12q-16 0 -51 2q-54 4 -89 4q-17 0 -57 -3 q-21 -1 -26 -1q-24 1 -25 13q0 10 20 16q1 1 2 1q31 9 38 13q9 9 4 18q-47 83 -119 187q-13 19 -17 23q-6 5 -10 3q-63 -77 -110 -146q-40 -62 -22 -80q8 -8 30 -16q23 -9 24 -18q-2 -12 -25 -13q-12 0 -45 1q-41 2 -58 2q-23 0 -66 -3q-28 -2 -38 -2q-25 1 -26 11 q0 16 36 23h2q63 12 111 61q4 3 6 6q81 88 159 197q6 9 3 14q-12 31 -119 190q-25 37 -42 60q-35 46 -99 61q-26 6 -27 18z" glyph-name="X" horiz-adv-x="694" unicode="X"/>
<glyph d="M3 637q2 11 27 11q5 0 29 -1q55 -4 85 -4q13 0 31 1q24 1 45 1q21 -1 22 -11q-2 -13 -22 -19q-17 -4 -22.5 -10t-3 -13.5t9.5 -21.5l1 -1q22 -43 131 -219q5 -5 10 2q27 38 129 206q21 36 -4 49q-10 4 -25 8q-20 6 -21 20q1 9 23 9q13 0 35 -1h30q22 0 76 3q28 1 35 1 q20 -1 21 -10q-2 -11 -26 -18q-56 -14 -103 -70q-3 -5 -6 -8q-25 -32 -113 -165q-12 -19 -20 -31q-22 -34 -25 -61q0 -163 6 -212q4 -24 34 -35q15 -6 37 -12q26 -7 27 -18q-2 -11 -30 -11q-7 0 -35 2q-39 2 -52 2t-140 -6q-24 1 -25 11q0 12 26 18h2q62 14 65 48 q3 42 3 207q0 12 -9 36q-29 60 -127 210q-43 65 -64 79q-15 9 -39 15q-27 6 -28 19z" glyph-name="Y" horiz-adv-x="622" unicode="Y"/>
<glyph d="M313 641q182 0 220 5q16 2 17 -5q-1 -11 -12 -25q-8 -8 -88 -122q-35 -52 -277 -428q-3 -4 -4 -6q-4 -7 4 -13q25 -10 149 -11q108 0 127 3q42 5 63 23q22 19 61 73q17 23 21 25q3 1 5 1q9 -2 9 -22q-1 -18 -50 -127q-11 -17 -58 -17q-45 0 -220 2q-116 2 -136 2h-95 q-14 3 -17 14q0 5 34 50q5 7 9 13q50 65 271 407q56 86 66 104q6 10 -4 14q-49 5 -181 5q-49 0 -73 -5q-56 -15 -90 -76q-11 -21 -22 -22q-11 0 -9 21q1 6 3 13q1 3 7 18q26 68 33 100q3 12 13 13q8 -1 16 -9q14 -12 50 -15q81 -3 158 -3z" glyph-name="Z" horiz-adv-x="620" unicode="Z"/>
<glyph d="M140 719h129q21 -2 24 -14q0 -10 -18 -17q-4 -1 -7 -1q-8 0 -56 -4q-28 -3 -35 -3q-11 0 -15 -21q-1 -2 -1 -4q-4 -76 -4 -337q0 -35 7 -416q1 -47 18 -50q65 -7 95 -8q16 0 24 -11q2 -4 2 -6q-1 -13 -29 -14q-5 0 -28 -1q-41 -1 -58 -1q-19 0 -49 -1h-13q-14 0 -15 19 q-1 7 -1 16v608q0 126 -1 219v16q0 22 7 28q4 3 24 3z" glyph-name="bracketleft" horiz-adv-x="342" unicode="["/>
<glyph d="M327 -50q2 -7 -5 -12q-2 -2 -4 -2q-11 -3 -18 -3q-12 -1 -16 12q-168 467 -246 695q-1 10 6 14q16 5 27 5q7 -1 13 -12q112 -324 243 -697z" glyph-name="backslash" horiz-adv-x="363" unicode="\"/>
<glyph d="M203 -189q-39 0 -93 -1h-26q-27 0 -33 13q-1 1 -1 2q0 12 24 18q5 1 9 1q8 1 32 3q39 3 50 4q13 3 15 21q4 77 4 341q0 29 -7 414q-1 48 -17 51q-21 2 -57 6q-23 3 -32 4q-27 4 -29 16q6 13 32 16h19q42 -1 61 -1t52 1h13q13 -2 14 -35v-609q0 -125 1 -226v-17 q0 -14 -5 -19q-4 -3 -26 -3z" glyph-name="bracketright" horiz-adv-x="342" unicode="]"/>
<glyph d="M236 642q11 0 31 -34q1 -3 2 -4l149 -291q7 -16 1 -22q-17 -19 -35 -18q-7 1 -9 5l-134 275q-7 7 -11 1l-138 -279q-5 -8 -25 3q-10 5 -17 12q-6 7 0 20l150 291q21 40 36 41z" glyph-name="asciicircum" horiz-adv-x="469" unicode="^"/>
<glyph d="M0 -124h495v-49h-495v49z" glyph-name="underscore" horiz-adv-x="495" unicode="_"/>
<glyph d="M136 652q11 0 25 -32q1 -2 1 -3q40 -83 61 -146q5 -22 -4 -25q-12 1 -23 16q-48 62 -93 140q-9 16 -9 27q2 10 16 17q12 6 26 6z" glyph-name="grave" horiz-adv-x="400" unicode="`"/>
<glyph d="M208 404q58 -1 90 -47q20 -29 20 -83q0 -25 -3 -131q-1 -41 -1 -45q5 -45 40 -50q14 0 35 13q2 1 3 2q3 2 6 -2v-1q3 -3 3 -10q0 -18 -33 -42q-29 -20 -57 -20q-43 0 -61 42q-2 4 -3 8q-1 3 -6 4q-47 -33 -90 -46q-16 -6 -40 -6q-34 0 -56 41q-13 25 -13 52q1 27 19 51 q9 11 40 25q9 4 73 22q35 10 44 13q28 9 29 18q2 17 2 82q0 28 -30 51q-22 16 -48 16t-41 -11q-10 -7 -7 -41q-1 -5 -6 -11q-18 -14 -59 -31q-4 -2 -6 -2q-9 2 -12 13q2 39 75 88q41 30 84 37q6 1 9 1zM178 42q22 1 54 17l2.5 2.5t2.5 3.5t2 4.5l2 5t1.5 4.5t1.5 3v2 q2 25 2 78q-1 6 -8 8q-41 0 -103 -30q-19 -17 -20 -38q0 -42 43 -56q11 -4 20 -4z" glyph-name="a" horiz-adv-x="397" unicode="a"/>
<glyph d="M454 209q0 -107 -85 -174q-1 -2 -2 -2q-57 -43 -136 -45q-56 0 -119 18q-5 1 -8 2q-8 3 -21 -3q-6 -3 -12 -3q-5 2 -6 13q6 94 6 332q0 220 -5 257q-5 16 -25 34q-20 15 -20 19l11 14h1q8 3 25 8q43 15 57 23q18 11 25 12q5 0 10 -10q1 -2 1 -3q-9 -198 -9 -241 q0 -74 2 -86q1 -4 6 -4q52 33 114 34q74 -1 124 -44q66 -56 66 -151zM371 188q0 62 -37 114q-6 9 -12 15q-44 42 -109 43q-40 0 -60 -15q-6 -5 -8 -15q-2 -19 -2 -58q0 -74 8 -160q2 -32 20 -50q32 -33 83 -41q6 -1 10 -1q21 0 56 30q3 2 5 4q34 33 44 106q2 15 2 28z" glyph-name="b" unicode="b"/>
<glyph d="M260 401q60 0 90 -21q2 -1 3 -2q14 -10 15 -30q0 -17 -27 -37l-6 -3q-12 1 -39 19q-43 31 -60 36q-12 3 -24 3q-26 0 -53 -25q-6 -5 -9 -9q-42 -47 -42 -115q0 -61 26 -100q33 -56 104 -65q11 -2 22 -2q46 1 89 30q14 10 18 2q1 -1 1 -2q-1 -16 -13 -29q-48 -53 -125 -61 q-10 -1 -19 -1q-87 0 -141 71q-4 5 -7 9q-31 52 -31 117q0 101 87 166q5 4 10 7q46 33 117 41q8 1 14 1z" glyph-name="c" horiz-adv-x="392" unicode="c"/>
<glyph d="M270 404q40 0 64 -4q4 -1 7 7q1 2 1 4q7 38 1 182q-1 16 -2 22q-3 15 -32 32q-7 5 -15 9q-10 6 -10 9q0 6 12 15q3 1 5 2q44 6 102 28q9 3 13 3q6 0 8 -11v-5q-9 -98 -9 -395v-86t0.5 -58.5t1 -38.5t0.5 -22.5t1 -13.5v-9q2 -41 15 -41q7 0 35 5q15 3 19 3q4 -1 6 -6 q0 -11 -13 -23q-3 -1 -4 -2q-62 -10 -90 -20q-29 -10 -36 -10q-6 0 -10 9q-1 3 -1 4q0 4 1 16q1 17 1 25q-1 5 -6 6q-57 -50 -130 -50q-73 1 -125 55q-48 55 -48 137q0 119 103 182q2 1 3 2q63 35 132 38zM233 371q-43 -1 -78 -35q-29 -29 -39 -92q-3 -18 -3 -34 q0 -74 49 -128q40 -43 93 -44q40 1 73 24q7 7 14 45q2 11 2 21q1 96 -3 166q-3 18 -22 38q-40 36 -86 39z" glyph-name="d" horiz-adv-x="499" unicode="d"/>
<glyph d="M229 403q61 -1 99 -38q35 -34 35 -84q0 -11 -12 -16q-4 -1 -7 -1q-181 0 -228 1q-5 -1 -8 -8q-5 -14 -5 -35q0 -61 36 -111q1 -2 2 -3q34 -47 96 -54q8 -1 16 -1q66 1 91 36q8 11 13 12q7 -1 8 -12q0 -12 -7 -24q-52 -74 -145 -75q-99 0 -149 80q-31 51 -31 119 q0 97 67 160q24 22 53 36q39 18 76 18zM219 377q-62 0 -94 -58q-4 -8 -7 -16t4 -11q45 -2 129 0q30 0 33 17q1 4 1 8q0 30 -32 50q-16 10 -34 10z" glyph-name="e" horiz-adv-x="392" unicode="e"/>
<glyph d="M174 390h55.5h45.5l17 1q10 0 13 -32q1 -5 1 -10t-12 -9q-2 -1 -3 -1q-3 0 -48 1q-62 2 -69 2q-4 -1 -7 -8q-4 -40 2 -235q1 -17 1 -21q4 -31 20 -40q14 -8 47 -13q22 -4 23 -15q-1 -12 -26 -12q-5 0 -28 1q-40 1 -55 1q-24 0 -76 -4q-20 -1 -24 -1q-24 1 -25 11 q2 8 21 16q35 10 41 27q3 11 4 40q2 82 2 215q0 37 -10 37q-31 0 -42 -2q-7 0 -9 10q-1 4 0 7l31 20q10 7 18 13q12 11 13 17q4 97 25 149q33 76 90 118q55 41 114 41q40 -1 64 -19q16 -14 17 -34q0 -20 -18 -37q-5 -3 -9 -5q-8 -3 -18 -3q-9 2 -27 20q-35 30 -70 31 q-37 -1 -62 -41q-29 -51 -32 -175q-1 -24 -1 -52q1 -7 6 -9z" glyph-name="f" horiz-adv-x="294" unicode="f"/>
<glyph d="M205 408q38 0 87 -12l15 -3t13 -3q7 -1 36 -2q66 -3 80 -6q8 -2 9 -11q0 -17 -15 -30q-2 -2 -3 -2q-42 0 -67 2q-6 -1 -6 -8q8 -24 8 -50q-1 -83 -56 -126q-50 -38 -109 -38h-16q-15 1 -19 1q-10 1 -15 -1q-16 -8 -29 -27q-3 -4 -3 -7q0 -26 30 -41q7 -3 11 -4 q14 -1 55 -2q107 -3 129 -6q21 -3 48 -24q38 -39 42 -88q-1 -93 -94 -154q-66 -43 -144 -43q-75 1 -125 37q-38 30 -45 76q-1 6 -1 11q1 42 29 63q14 12 44 35q19 14 25 19q1 3 -3 7l-10 5q-20 9 -29 15q-33 25 -34 74q1 4 5 9q6 5 27 18q37 24 47 34q1 3 -4 9 q-75 45 -76 127q1 69 61 114q43 32 102 32zM197 384q-26 0 -47 -21q-2 -3 -3 -4q-26 -29 -26 -89q0 -54 35 -94q28 -30 64 -31q12 1 33 14q31 20 37 88q1 10 1 18q-1 42 -22 75q-31 43 -72 44zM229 -235q46 0 79 18q53 37 55 93q-1 33 -14 52q-19 23 -53 31q-28 5 -101 5 q-39 0 -54 -10q-40 -34 -45 -82q1 -46 35 -76q41 -31 98 -31z" glyph-name="g" horiz-adv-x="416" unicode="g"/>
<glyph d="M290 404q73 -1 106 -46q29 -40 29 -108q1 -33 2 -97q2 -59 2 -88q0 -27 28 -36q5 -2 11 -3q27 -6 28 -16q-2 -13 -27 -13q-17 0 -39 1q-24 2 -40 2q-11 0 -32 -1q-25 -1 -40 -1q-19 1 -20 12q2 9 21 14q22 7 26 18q4 9 6 31v145q0 81 -16 100q-29 33 -81 33 q-50 -1 -80 -23q-14 -16 -16 -49q-5 -64 -2 -199v-9q2 -32 26 -41q6 -2 13 -4q21 -7 22 -16q-2 -12 -25 -12q-3 0 -22 1q-45 1 -60 1q-12 0 -43 -2q-25 -1 -33 -1q-22 1 -23 13q0 8 27 16q1 1 2 1q28 10 35 33q3 10 4 24q10 141 10 414q0 80 -3 102q-3 24 -14 33 q-6 5 -19 13q-9 6 -10 20l3 5q77 22 91 30q6 3 9 5q14 7 19 7q5 -1 6 -11q-12 -93 -14 -350q1 -7 7 -6q65 58 126 58z" glyph-name="h" horiz-adv-x="513" unicode="h"/>
<glyph d="M45 357q0 10 15 16q3 1 5 1q15 3 89 31q7 2 10 3q1 0 3 -1.5t3 -3.5l2 -4l1 -2q0 -3 -1 -38q-5 -120 -5 -160q0 -64 2 -133q1 -26 27 -35q3 -2 12 -4l9 -3q21 -8 22 -17q-1 -9 -23 -10q-3 0 -21 1q-44 2 -57 2q-19 0 -56 -2q-22 -2 -29 -2q-25 1 -26 11q0 9 22 15 q1 1 2 1q35 10 40 28q4 19 4 103q0 149 -1 156t-39 34l-1 1l-1 1q-8 6 -8 11zM136 607q27 0 40 -31q4 -10 4 -18q0 -28 -28 -43q-11 -6 -20 -6q-18 1 -32 12q-15 18 -15 37q1 20 12 36q15 13 39 13z" glyph-name="i" horiz-adv-x="253" unicode="i"/>
<glyph d="M33 354q0 7 14 14q2 1 3 1q70 20 94 33q9 5 17 5l7 -10v-1q-1 -33 -3 -231q-2 -120 -2 -131q-3 -116 -44 -185q-37 -62 -94 -103q-24 -17 -34 -18q-15 1 -22 5q-3 5 1 11q48 30 64 50q54 69 54 250q0 235 -4 265q-2 13 -38 34q-2 1 -3 1q-9 5 -10 10zM119 615 q39 0 51 -38q2 -7 2 -12q0 -37 -36 -48q-7 -2 -13 -2q-21 0 -38 23q-9 13 -10 26q1 24 19 41q11 10 25 10z" glyph-name="j" horiz-adv-x="235" unicode="j"/>
<glyph d="M262 390h47q29 0 108 10q16 2 27 2q6 -1 7 -7q0 -13 -18 -21q-1 -1 -2 -1q-54 -12 -96 -39q-8 -6 -20 -14q-41 -30 -77 -70q-3 -4 -4 -6q-2 -6 -1 -10q56 -70 154 -170l7 -7q30 -27 68 -36q23 -6 24 -16q-1 -12 -25 -12q-9 0 -39 2q-55 4 -86 4h-45q-24 1 -25 13 q2 9 22 14q27 8 13 28q-5 6 -35 40q-51 55 -78 87q-19 22 -25 23q-4 -1 -5 -8q-7 -19 -2 -106q1 -22 3 -33q3 -21 21 -28q7 -3 16 -5q21 -6 22 -15q-1 -11 -24 -11q-12 0 -42 1q-29 1 -41 1q-20 0 -52 -2q-23 -2 -32 -2q-22 1 -23 11q2 8 23 15q39 10 47 28q3 7 5 16 q7 34 7 343q0 159 -6 211q0 7 -27 24q-2 1 -3 2q-12 10 -13 14q2 8 13 13q60 18 67 21q12 5 20 10q15 9 20 9q4 0 7 -10v-3q-8 -37 -9 -353v-15q0 -91 3 -101q4 -8 8 -9q5 0 19 12l1 1q89 84 106 108q11 14 -35 21q-2 1 -3 1q-8 2 -9 7q0 7 11 15q4 3 6 3z" glyph-name="k" horiz-adv-x="479" unicode="k"/>
<glyph d="M41 660q0 9 12 13q1 1 2 1q13 5 37 12q47 15 66 27q4 3 8 -7q1 -2 1 -3q-9 -76 -9 -272q0 -347 3 -364q5 -24 22 -33q12 -6 29 -11q22 -7 23 -15q-1 -10 -26 -11q-13 0 -48 2q-29 1 -37 1q-12 0 -46 -2q-32 -1 -42 -1q-27 1 -28 11q1 10 22 14q37 8 45 32q4 13 6 46 q7 134 7 304q0 45 -2 146q-1 51 -1 63q0 13 -22 27q-1 1 -2 1q-20 14 -20 19z" glyph-name="l" horiz-adv-x="244" unicode="l"/>
<glyph d="M52 351q2 8 20 18q40 17 76 41q6 4 8 4q9 -2 12 -10q0 -8 -2 -31q-2 -17 -2 -22q2 -6 6 -6q48 40 104 55q17 4 30 4q50 0 78 -20q18 -14 34 -38q4 -4 8 -4q1 0 23 13q43 26 50 29q32 15 60 15q52 -1 86 -34q29 -34 33 -96q2 -28 2 -200q2 -35 41 -46q1 -1 2 -1 q18 -7 19 -14q-2 -11 -28 -11q-9 0 -32 1q-27 2 -40 2q-16 0 -39 -1q-19 -1 -29 -1q-24 1 -25 13q1 7 22 13q29 9 34 29q2 10 2 28q0 11 -1 71q-1 76 -1 94q0 42 -16 66q-23 35 -76 36q-44 0 -76 -27l-1 -1q-7 -9 -10 -29v-217q3 -33 19 -42q9 -4 23 -8q20 -6 21 -14 q-2 -11 -24 -12q-11 0 -37 1q-27 1 -38 1q-10 0 -35.5 -1t-35.5 -1q-25 0 -26 12q0 8 18 13q1 1 2 1q30 7 35 25q3 10 3 29v197q0 34 -13 51q-24 30 -75 30q-43 -1 -80 -28q-9 -9 -11 -26q-2 -26 -2 -231q0 -31 28 -42q4 -2 8 -3q26 -9 27 -18q-1 -10 -27 -10h-8 q-43 2 -71 2q-18 0 -45 -2q-20 -1 -30 -1q-24 1 -25 11q0 9 22 14q1 1 2 1q29 7 36 32q4 12 6 34q3 44 3 199q-1 20 -7 27q-34 33 -35 36z" glyph-name="m" horiz-adv-x="762" unicode="m"/>
<glyph d="M53 356q0 10 16 19q1 1 2 1q52 18 67 29q18 11 24 11q7 -2 10 -15q0 -10 -2 -32q-2 -14 -2 -18t5 -3h1q82 54 134 55q58 -1 91 -38q35 -42 35 -122q0 -136 3 -182q5 -25 37 -35q24 -7 25 -17q-2 -11 -30 -11q-11 0 -33 1q-27 1 -41 1q-15 0 -45 -1q-19 -1 -24 -1 q-21 1 -23 12q2 9 23 17q23 9 28 25q2 10 3 25q3 49 3 183q0 45 -26 71q-3 2 -4 3q-28 17 -64 19q-53 -1 -89 -32q-9 -10 -10 -24q0 -226 1 -240q1 -17 20 -25q8 -3 17 -6q17 -6 18 -15q-2 -11 -25 -12h-23q-26 1 -38 1q-22 0 -57 -2q-19 -1 -26 -1q-25 1 -26 13q2 9 21 15 q31 9 37 28q3 11 5 28q5 51 5 219q-2 20 -24 39q-18 13 -19 17z" glyph-name="n" horiz-adv-x="521" unicode="n"/>
<glyph d="M250 404q86 0 146 -63q54 -59 54 -141q0 -86 -61 -150q-13 -14 -26 -22q-56 -40 -124 -40q-71 1 -133 52q-50 40 -68 112q-6 22 -6 41q1 97 70 156q64 55 148 55zM231 374q-32 -1 -65 -29q-37 -34 -47 -100q-2 -15 -2 -28q0 -52 12 -89q26 -78 90 -103q21 -8 40 -8 q29 1 61 33q31 34 42 103q3 16 3 29q-1 95 -50 153q-39 34 -84 39z" glyph-name="o" horiz-adv-x="482" unicode="o"/>
<glyph d="M306 402q52 0 101 -46q6 -5 10 -10q44 -58 47 -131q0 -83 -55 -145q-14 -15 -30 -27q-66 -51 -159 -51q-30 0 -56 4q-6 -1 -7 -13q0 -129 4 -166q3 -29 24 -40q10 -6 24 -10q27 -9 28 -18q-1 -12 -26 -13q-9 0 -44 2q-53 3 -75 3q-11 0 -28 -1q-21 -2 -36 -2 q-29 1 -30 13q0 9 19 14q2 1 4 1q41 9 51 26q8 16 11 66q3 51 3 217v202q0 45 -8 51q-36 27 -37 32q0 8 12 17q1 1 2 1q30 8 76 35q18 9 20 9q6 0 10 -10q1 -1 1 -2q-1 -10 -2 -34q-1 -12 -1 -17q0 -6 5 -6q2 1 3 1q34 23 65 36q28 12 74 12zM254 351q-59 0 -81 -18 q-9 -9 -13 -30q-8 -50 -3 -158q0 -14 1 -22q4 -32 13 -44q30 -43 85 -53q8 -2 15 -2q26 1 46 17q51 43 65 123q3 14 3 24q-1 77 -41 122q-34 35 -82 40q-5 1 -8 1z" glyph-name="p" horiz-adv-x="496" unicode="p"/>
<glyph d="M252 404q53 0 86 -10q33 -11 38 -11q7 1 24 16q15 12 24 13q8 0 6 -15q0 -3 -1 -5q-11 -38 -11 -353q0 -150 3 -215q1 -33 14 -41q11 -7 38 -12q16 -2 21 -12q1 -2 1 -3q-2 -12 -25 -13q-29 0 -158 -10q-22 -2 -34 -2q-24 1 -25 12q0 11 22 15q2 1 3 1q56 11 63 42 q1 5 2 14q5 53 5 200q-1 10 -5 10q-74 -37 -115 -37q-88 1 -146 60q-44 46 -49 123q-1 8 -1 15q0 112 89 174q9 6 16 10q47 28 103 33q7 1 12 1zM228 373q-35 -1 -58 -21q-55 -50 -55 -143q1 -80 50 -133q44 -43 113 -43q30 0 56 14q2 2 4 3q7 7 10 31q0 127 -5 180 q-3 28 -15 54q-1 3 -2 4q-25 40 -75 51q-13 3 -23 3z" glyph-name="q" horiz-adv-x="489" unicode="q"/>
<glyph d="M51 352q2 12 13 17q46 15 74 32q18 12 20 12q6 -2 9 -12q0 -9 -1 -27q-1 -19 -1 -28q1 -5 7 -4q65 61 114 62q42 0 49 -29q1 -3 1 -5q-1 -5 -6 -14q-23 -32 -41 -46q-5 -2 -14 3q-25 21 -55 22q-31 -1 -44 -14q-9 -11 -10 -22l6 -216q4 -47 26 -51q9 -2 46 -12 q17 -6 18 -16q-2 -8 -24 -9q-10 0 -35 2q-49 3 -83 3q-16 0 -37 -2q-18 -2 -29 -2q-20 1 -21 12q1 6 20 13q31 10 37 28q5 14 6 55v191q-1 23 -11 30q-10 8 -23 17q-10 8 -11 10z" glyph-name="r" horiz-adv-x="340" unicode="r"/>
<glyph d="M185 404q29 0 51 -6q2 0 4.5 -1t5 -1.5t5 -1.5l5 -2t4.5 -1.5t3.5 -1.5t2.5 -1l2 -1q7 -5 8 -14q0 -11 2 -41q1 -15 1 -18q-1 -17 -12 -18q-8 2 -15 17q-32 66 -80 67q-39 0 -55 -40q-5 -12 -5 -22q0 -36 61 -75q16 -10 38 -22q76 -49 78 -112q-1 -56 -58 -98 q-35 -23 -84 -23q-58 0 -91 18q-4 2 -6 4q-9 15 -14 59q-1 10 -1 17q1 20 8 21q9 -1 21 -23q42 -69 91 -71q20 1 40 15q22 19 23 55q-1 40 -45 67q-43 30 -61 42q-60 42 -62 101q1 57 55 90q34 21 80 21z" glyph-name="s" horiz-adv-x="321" unicode="s"/>
<glyph d="M164 390q15 0 99 3q6 0 9 0.5t7 0.5h6h2q6 -2 11 -8l3 -37v-1q-1 -10 -26 -11h-109q-7 -1 -9 -7q-2 -40 -2 -215q1 -32 17 -49q22 -19 61 -19q24 1 49 15q11 6 15 6q5 -2 6 -11q-1 -11 -14 -25q-46 -44 -107 -44q-49 0 -80 36q-5 6 -8 11q-13 21 -13 66q0 19 2 114 q2 90 2 108q-2 9 -38 20q-13 5 -14 11q1 5 6 11q68 54 80 69q19 21 23 22q8 -1 14 -11v-47q1 -6 8 -8z" glyph-name="t" horiz-adv-x="322" unicode="t"/>
<glyph d="M246 38q37 1 76 35q12 11 15 24l2 230q0 9 -13 20q-3 1 -4 2q-40 11 -46 12q-18 6 -20 16q4 7 23 9q65 0 107 11q14 4 24 4q6 -1 7 -15q-8 -105 -10 -310v-22q0 -8 7 -13q3 -1 5 -1q3 0 19 2q24 3 31 3q5 -1 12 -19q0 -5 -9 -9q-1 -1 -2 -1q-26 -2 -90 -19h-1 q-4 -1 -8.5 -2.5t-8 -2.5t-6.5 -1.5t-5.5 -1t-4.5 -1.5h-2q-8 3 -10 14q0 3 1 15l3 27q-1 7 -5 7q-63 -43 -82 -51q-30 -12 -67 -12q-58 1 -88 47q-14 22 -14 47q0 185 -2 238q-1 24 -26 35q-2 0 -5 2q-4 1 -6 2q-17 9 -18 18q2 8 17 9q20 0 89 9q5 1 7 1t4.5 0.5t3.5 0.5h2 q7 -1 8 -15q1 -20 -2 -163q-1 -87 -1 -105q1 -37 25 -56q30 -20 68 -20z" glyph-name="u" horiz-adv-x="498" unicode="u"/>
<glyph d="M-8 384q2 10 24 11q10 0 50 -3q28 -2 33 -2q16 0 43 1q15 1 19 1q22 -1 23 -11q-2 -9 -22 -15q-30 -8 -23 -32q1 -1 1 -2q39 -115 82 -199q5 -10 7 -12q4 -3 8 4q49 117 74 196q1 3 2 5q8 24 -11 34q-7 4 -20 9q-15 7 -16 13q2 10 20 11q9 0 24 -1q18 -2 30 -2q9 0 33 2 q25 3 35 3q18 -1 20 -11q0 -7 -19 -14q-1 -1 -2 -1q-26 -11 -50 -39q-7 -10 -75 -172q-4 -9 -7 -17q-14 -35 -42 -126q-2 -5 -3 -8q-9 -23 -24 -26q-8 2 -13 18q-24 72 -36 102q-50 134 -99 226q-3 5 -5 9q-15 25 -42 33q-18 7 -19 15z" glyph-name="v" horiz-adv-x="423" unicode="v"/>
<glyph d="M91 390q14 0 42 2q20 1 28 1q25 -1 26 -11q-2 -10 -25 -16q-30 -7 -18 -39q21 -69 79 -206q5 -13 7 -16q5 -7 9 0q22 44 70 152q5 12 5 20q-4 24 -16 48q-17 31 -32 38q-5 3 -10 4q-21 8 -22 16q2 10 24 10q6 0 26 -1q28 -2 41 -2q9 0 32 1q27 2 38 2q23 -1 24 -11 q0 -11 -22 -16h-2q-28 -7 -29 -22q1 -5 12 -36q2 -4 13 -35q49 -129 64 -165q4 -7 9 1q10 20 67 167q17 44 17 60q0 18 -26 27q-7 2 -13 4q-22 8 -23 16q1 9 23 10q5 0 27 -1q27 -2 35 -2q19 0 50 3q18 2 24 2q20 -1 21 -10q-2 -10 -23 -15q-29 -9 -42 -30q-2 -3 -11 -18 q-33 -58 -96 -215q-37 -92 -42 -108q-5 -11 -13 -12q-8 1 -19 15q-1 3 -5 16q-14 41 -21 58q-4 10 -17 43q-33 82 -45 110q-3 1 -7 -1q-61 -128 -91 -202q-15 -39 -25 -41q-13 2 -18 15t-30 86q-25 72 -86 214q-22 50 -42 62q-7 3 -14 5q-24 6 -25 15q2 12 29 12q8 0 30 -2 q26 -2 38 -2z" glyph-name="w" horiz-adv-x="654" unicode="w"/>
<glyph d="M15 387q2 9 26 9q5 0 30 -2q43 -4 57 -4q11 0 33 1q18 1 26 1q21 -1 22 -9q-2 -11 -19 -17q-9 -3 -14 -7t-5.5 -6.5t-0.5 -6.5v-1q0 -10 46 -82q4 -6 7 -10q2 -2 7 1q31 41 53 82q11 18 -4 25q-2 1 -3 1q-26 12 -27 19q2 10 20 11q4 0 15 -1q18 -1 28 -1q13 0 52 3 q28 2 35 2q20 -1 21 -11q0 -2 -1 -3.5t-2.5 -3t-4 -3t-4 -2l-4.5 -1.5l-3 -1q-59 -16 -83 -44q-3 -2 -4 -4q-39 -49 -70 -92q-2 -6 -1 -11q26 -58 76 -132q4 -6 7 -10q31 -44 73 -54q2 -1 3 -1q22 -6 23 -15q-2 -11 -24 -12q-17 0 -51 2q-38 3 -57 3q-10 0 -25 -1 q-17 -1 -26 -1q-20 1 -21 13q0 7 17 12q1 1 2 1q19 7 20 16q-1 9 -10 24q-42 79 -49 86q-4 2 -7 0q-23 -23 -53 -76q-9 -17 -10 -23q0 -17 24 -27q1 -1 2 -1q12 -5 14 -15q-1 -9 -21 -10q-11 0 -25 1q-11 1 -18 1q-19 0 -51 -2q-22 -2 -30 -2q-28 1 -29 11q1 10 25 16 q47 14 75 46q2 2 71 95q7 9 12 16q2 5 0 10q-17 38 -65 112q-2 4 -4 7q-33 48 -70 60q-25 7 -26 18z" glyph-name="x" horiz-adv-x="426" unicode="x"/>
<glyph d="M-5 381q3 11 24 12q12 0 36 -2q27 -2 42 -2q17 0 49 1q16 1 21 1q20 -1 22 -11q0 -11 -21 -16q-1 -1 -2 -1q-26 -7 -26 -18q0 -8 5 -21q23 -75 78 -198l9 -18q3 -3 8 4l79 203v1q10 30 -15 42q-9 4 -23 7q-19 5 -21 14q1 12 25 12q10 0 35 -1q18 -1 24 -1t22 2q26 2 41 2 q19 -1 20 -9q-2 -10 -22 -17q-28 -9 -46 -45q-2 -4 -3 -7q-46 -104 -110 -266q-21 -54 -63 -169q-28 -76 -41 -110q-6 -21 -38 -27q-7 -1 -14 -1q-37 0 -44 38q-1 6 -1 11q0 24 22 38q11 6 22 6h13q17 -1 23 -1q8 0 14 14v1l1 2q16 29 45 120l3 9q6 29 3 36q-1 3 -15 41 q-41 116 -107 255q-4 8 -7 15q-11 23 -28 31q-8 4 -19 8q-19 8 -20 15z" glyph-name="y" horiz-adv-x="414" unicode="y"/>
<glyph d="M204 390q42 0 98 3q32 1 41 1q5 -1 8 -3q7 -7 3 -15q-6 -8 -18 -23q-26 -33 -42 -57q-20 -30 -153 -245q-4 -6 3 -10q17 -6 118 -8h10q13 1 24 12q25 25 49 59q15 21 21 22q10 -1 8 -19q-1 -6 -8 -30q-15 -48 -19 -70q0 -6 -10 -11q-2 -1 -3 -1q-2 0 -32 1q-132 4 -167 4 q-5 0 -93 -4q-6 0 -12 10q-1 3 -1 4q1 6 70 107q26 36 146 230q2 5 -3 8q-23 6 -129 6q-12 0 -44 -41q-9 -12 -15 -22q-9 -15 -15 -16q-7 0 -9 13q-1 2 -1 4q0 11 8 34q10 33 10 62q1 5 3 8q8 6 11 4q23 -17 52 -17h91z" glyph-name="z" horiz-adv-x="392" unicode="z"/>
<glyph d="M37 297q87 19 96 84q1 7 1 13q0 12 -20 129q-6 33 -6 44q0 44 34 89q13 18 28 30q61 46 120 46q17 -1 18 -9q0 -8 -10 -18q-1 -2 -2 -2q-2 -1 -17 -4q-13 -3 -19 -4q-86 -23 -87 -123q0 -17 18 -96q9 -41 9 -65q0 -61 -86 -112q-7 -4 -13 -7q-6 -6 -1 -9q90 -47 100 -117 q1 -12 1 -23q0 -42 -22 -135q-11 -46 -11 -56q0 -83 108 -112l16 -4q11 -3 13 -8q-4 -15 -24 -18q-101 0 -151 79q-27 44 -27 94q0 10 10 62q15 81 15 105q0 65 -30 88q-16 12 -42 20q-27 11 -31 28q0 7 10 10q1 1 2 1z" glyph-name="braceleft" horiz-adv-x="342" unicode="{"/>
<glyph d="M99 743h61v-991h-61v991z" glyph-name="bar" horiz-adv-x="259" unicode="|"/>
<glyph d="M291 267q-85 -18 -97 -81q-1 -8 -1 -16q0 -11 21 -158q4 -29 4 -37q0 -53 -39 -99q-10 -11 -21 -20q-56 -43 -114 -46q-15 2 -18 13q1 7 11 13q14 7 40 15q76 20 76 119q0 14 -17 114q-8 45 -8 68q0 58 73 106q14 9 28 16q3 5 0 7q-84 41 -98 103q-4 17 -4 38 q0 42 21 113q10 45 10 55q0 62 -64 93q-22 10 -59 22q-11 5 -12 9q0 9 16 16q4 2 7 2q99 0 150 -78q28 -44 28 -95q0 -9 -9 -53q-15 -69 -15 -92q0 -65 30 -89q15 -12 41 -20q30 -11 31 -25q-2 -8 -11 -13z" glyph-name="braceright" horiz-adv-x="342" unicode="}"/>
<glyph d="M211 338q41 0 111 -56q59 -46 79 -54q10 -3 18 -3q44 0 70 44q11 20 28 61q4 8 11 9q19 0 31 -15q5 -7 3 -13q-39 -115 -113 -139q-18 -6 -35 -6q-44 0 -111 55q-55 46 -74 54q-13 5 -24 5q-42 0 -77 -63q-8 -16 -17 -36q-7 -14 -13 -15q-15 0 -29 13q-7 7 -6 13 q34 105 101 136q23 10 47 10z" glyph-name="asciitilde" horiz-adv-x="624" unicode="~"/>
<glyph glyph-name="uni00A0" horiz-adv-x="199" unicode="ย"/>
<glyph d="M123 -176q-47 0 -53 69q-1 7 -1 14q2 54 34 300q1 4 1 6q2 22 16 29q3 1 5 1q16 -2 18 -34q1 -11 11 -93q19 -161 23 -210q5 -60 -37 -78q-10 -4 -17 -4zM125 327q-43 0 -56 42q-3 10 -3 19q0 39 33 55q13 6 27 6q38 0 53 -33q6 -13 6 -29q0 -43 -42 -57q-10 -3 -18 -3z " glyph-name="exclamdown" horiz-adv-x="270" unicode="ยก"/>
<glyph d="M135 331q1 -119 97 -165q5 0 7 6l30 314q-1 1 -4 5q-58 0 -99 -61q-31 -47 -31 -99zM60 293q1 122 104 190q43 28 101 38q2 1 3 1q6 2 6 6l9 72q2 4 6 6q19 -1 24 -7l-5 -67q1 -6 4 -7q57 -2 95 -27q17 -14 17 -30q0 -17 -22 -29q-5 -3 -8 -3q-8 1 -40 28q-23 18 -48 24 q-2 0 -4 -3l-31 -320q1 -8 6 -10q8 -2 16 -2q57 0 118 49q5 5 9 -3q1 -1 1 -2q-1 -19 -15 -34q-51 -54 -136 -64q-5 -1 -6 -8l-8 -78q-7 -6 -22 -7q-8 1 -10 6l9 80q-1 6 -8 8q-76 11 -123 69q-6 7 -10 13q-32 50 -32 111z" glyph-name="cent" unicode="ยข"/>
<glyph d="M343 631q65 0 88 -46q7 -15 7 -30q0 -43 -31 -57q-7 -3 -13 -3q-7 1 -9 7v7q1 8 1 11q0 51 -32 75q-14 10 -29 10q-64 0 -94 -158q-9 -47 -16 -106q2 -7 6 -8l124 5q8 0 8 -11v-3q0 -12 -8 -18q-1 -1 -2 -1l-124 -8q-8 -1 -11 -10q-19 -100 -59 -151q-8 -10 -16 -19 q-4 -4 0 -7q2 -1 3 -1q49 0 93 -23q17 -8 51 -29q54 -33 75 -33q54 0 65 39q3 13 3 31q0 17 -5 54q0 9 8 12q2 1 3 1q24 0 34 -27q4 -12 4 -25q-2 -54 -56 -102q-53 -46 -115 -46q-35 0 -92 46q-7 5 -21 18q-17 13 -25 20q-32 24 -57 23q-3 0 -27 -34q-7 -9 -12 -15 q-28 -30 -45 -31q-21 0 -26 16q-1 3 -1 6q0 26 35 59q21 19 46 30q6 3 16 13q33 34 43 169q-1 7 -5 9l-65 -1q-3 -1 -5 4q-2 6 -2 11q1 15 8 18l67 5q5 3 7 9q20 181 92 248q8 8 16 14q44 33 100 33z" glyph-name="sterling" unicode="ยฃ"/>
<glyph d="M437 469l-50 -54q-1 -6 0 -11q31 -48 31 -102q-1 -53 -34 -102q-3 -3 -2 -6l53 -58q8 -10 -5 -25l-3 -3q-12 -9 -21 -7l-61 55q-3 2 -10 -1q-49 -30 -90 -30q-50 1 -92 26q-6 1 -12 -1l-51 -50q-9 -7 -25 5q-17 17 -8 32l46 51q2 6 0 10q-33 51 -33 103q1 43 34 98 q3 5 0 12l-51 59q-6 10 9 28q16 13 25 7l51 -52q6 -4 14 -2q44 26 93 26q48 -1 95 -28q6 -2 10 1l50 52q11 7 28 -7t9 -26zM245 426q-69 0 -103 -56q-18 -31 -18 -69q0 -71 58 -105q29 -17 63 -17q62 0 98 50q23 32 23 72q0 62 -53 101q-33 24 -68 24z" glyph-name="currency" unicode="ยค"/>
<glyph d="M9 612q2 10 23 10q7 0 26 -1q28 -2 42 -2q17 0 53 2q27 1 36 1q20 -1 21 -10q-2 -10 -20 -16q-25 -8 -22 -25q1 -7 6 -19q5 -11 24 -51q45 -98 65 -134q4 -4 8 1q39 69 69 135q25 55 25 64q0 17 -35 28q-1 1 -2 1q-19 7 -20 16q2 9 24 10q10 0 31 -2q20 -1 29 -1 q14 -1 42 1q21 2 30 2q20 -1 21 -10q-1 -10 -18 -15q-37 -12 -60 -44q-3 -5 -11 -16q-6 -9 -9 -13q-41 -65 -93 -169q-3 -7 -5 -11q-3 -6 2 -8l106 -1q3 -2 4 -8q0 -15 -10 -21q-1 -1 -2 -1h-105q-3 -1 -4 -8v-64q0 -1 1 -3t3 -4l1 -1h103q5 -2 6 -11q-2 -16 -11 -19l-96 -2 q-6 -1 -7 -10v-39q0 -88 11 -101q6 -6 16 -10q16 -6 34 -10q17 -4 18 -14q-5 -9 -23 -11q-12 0 -45 1q-30 1 -41 1q-14 0 -50 -2t-51 -2q-18 1 -19 10q2 10 22 16q36 9 44 28q5 14 7 56q1 23 1 75q-1 10 -6 12h-103q-7 2 -8 11q2 15 9 21h100q7 1 8 7v63q-1 9 -5 10h-94 q-6 2 -7 9q1 15 9 23l87 -1q2 2 0 9q-15 40 -79 156q-14 26 -24 42q-21 33 -34 41q-11 7 -28 12q-19 7 -20 16z" glyph-name="yen" unicode="ยฅ"/>
<glyph d="M99 -173v346h61v-346h-61zM99 668h61v-346h-61v346z" glyph-name="brokenbar" horiz-adv-x="259" unicode="ยฆ"/>
<glyph d="M261 637q34 -1 57 -17q10 -11 11 -18q-1 -16 -29 -41q-5 -4 -23 1h-1q-41 27 -60 28q-56 -1 -57 -64q0 -32 81 -117q23 -23 29 -30q96 -101 104 -187q1 -8 1 -14q0 -85 -51 -177q-3 -7 -5 -10q-35 -63 -100 -103q-21 -13 -36 -17q-24 -7 -37 -7q-49 0 -63 26q-2 4 -2 7 q0 12 22 35q11 10 20 15q8 2 22 -7q26 -21 57 -21q56 2 57 65q0 31 -78 119q-12 13 -21 22q-70 74 -102 136q-16 37 -16 80q0 77 59 158q4 6 8 11q9 44 53 84q52 43 100 43zM333 114q0 70 -63 152q-7 10 -39 49q-11 13 -38 43q-68 74 -82 103q-3 4 -6 0l-1 -1 q-18 -29 -18 -69q0 -85 107 -200q5 -4 8 -8q82 -82 108 -142q0 -2 4 -2l2 2q18 31 18 73z" glyph-name="section" horiz-adv-x="423" unicode="ยง"/>
<glyph d="M116 600q27 0 38 -28q3 -10 3 -18q0 -35 -32 -43q-6 -1 -11 -1q-25 0 -37 23q-5 10 -5 20q0 32 27 44q8 3 17 3zM285 599q25 0 38 -26q5 -10 5 -19q0 -28 -27 -40q-9 -4 -18 -4q-28 0 -39 25q-4 9 -4 18q0 32 30 43q8 3 15 3z" glyph-name="dieresis" horiz-adv-x="400" unicode="ยจ"/>
<glyph d="M347 628q135 0 223 -96q82 -89 82 -213q0 -129 -90 -220q-90 -90 -215 -90q-138 0 -227 98q-80 89 -80 212q0 128 90 219q90 90 217 90zM347 598q-121 0 -200 -88q-70 -80 -70 -190q0 -117 85 -201q81 -80 185 -80q118 0 197 88q71 81 71 193q0 121 -86 204 q-78 74 -182 74zM364 493q37 0 61 -6q7 -1 31 -7q13 -4 18 -5q7 -4 9 -23q1 -15 1 -44q-1 -17 -11 -18q-7 1 -13 16q-11 38 -54 55q-18 7 -36 7q-71 0 -105 -60q-19 -33 -19 -74q0 -108 77 -144q25 -11 51 -11q55 0 86 47q3 4 6 9q14 19 22 20q5 -1 5 -13q-3 -30 -14 -54 q-6 -13 -23 -22q-42 -17 -90 -17q-82 0 -137 50l-9 9q-44 50 -45 114q1 78 60 125q54 46 129 46z" glyph-name="copyright" horiz-adv-x="692" unicode="ยฉ"/>
<glyph d="M140 535q54 0 73 -52q6 -18 6 -37q0 -10 -3 -93q0 -38 24 -39q12 1 25 10q5 -2 6 -9q-1 -8 -8 -18q-24 -24 -55 -25q-33 1 -44 32q-2 6 -6 3q-53 -34 -77 -35q-27 0 -45 29q-10 17 -10 34q1 35 34 47q3 1 25 8q55 16 72 22q6 8 7 9q1 11 1 36q0 30 -29 43q-10 4 -19 4 q-22 0 -31 -5q-7 -6 -7 -29q0 -6 -5 -9l-1 -1q-1 0 -11 -4q-21 -9 -28 -11q-9 0 -10 5q2 21 29 48q41 31 80 36q4 1 7 1zM80 344q0 -18 22 -30q8 -4 15 -4q19 1 35 17q9 8 9 14q1 8 1 42q-1 6 -5 6h-2q-65 -16 -73 -35q-2 -5 -2 -10z" glyph-name="ordfeminine" horiz-adv-x="272" unicode="ยช"/>
<glyph d="M110 185q-14 7 -9 20q1 2 2 3q138 77 217 141q5 4 8 7q23 19 36 20q11 0 2 -18q-3 -6 -6 -11q-28 -40 -147 -135q-11 -10 -3 -17q104 -93 131 -126q10 -12 16 -21q3 -5 5 -9t4 -9t0 -8t-8 -3q-11 1 -23 11q-107 91 -225 155zM332 185q-13 8 -8 20q1 2 2 3q132 72 217 143 q4 3 6 5q23 19 33 20q11 0 4 -17q-2 -7 -6 -12q-33 -47 -145 -135q-10 -9 -3 -17q114 -94 148 -149q12 -18 4 -25q-3 -2 -5 -2q-7 1 -21 11q-104 89 -226 155z" glyph-name="guillemotleft" horiz-adv-x="689" unicode="ยซ"/>
<glyph d="M75 349h459q12 -1 12 -21v-274q-6 -18 -47 -20q-11 2 -12 15v227q-3 19 -17 20h-389q-19 0 -20 7q-1 4 -1 8q0 26 11 36q3 2 4 2z" glyph-name="logicalnot" horiz-adv-x="624" unicode="ยฌ"/>
<glyph d="M52 231q50 7 194 22q4 0 7 -9q1 -1 1 -2q0 -35 -13 -46q-3 -2 -5 -2q-29 -3 -185 -19q-13 2 -16 14q0 32 15 41q1 1 2 1z" glyph-name="uni00AD" horiz-adv-x="292" unicode="ยญ"/>
<glyph d="M92 508v51q0 14 -7 17q-2 0 -4 1q-11 6 -1 10q32 3 49 3q38 -5 43 -30q0 -4 -1 -7t-2.5 -5t-4 -3.5t-4 -2.5t-4.5 -2l-2 -1q-1 -3 -1 -4q20 -36 32 -45q5 -3 6 -6q-2 -4 -14 -5q-18 1 -27 15q-14 23 -17 29q-3 4 -9 4q-7 -1 -7 -4v-11q0 -11 2.5 -14t12.5 -7h1q8 -4 3 -8 q-2 -1 -3 -1h-27h-26q-5 0 -5 5l3 3q13 7 14 18zM117 574v-30q6 -4 9 -4q18 2 19 18q-3 17 -18 20q-9 -1 -10 -4zM127 644q62 0 94 -51q16 -27 16 -59q0 -55 -43 -89q-30 -24 -69 -24q-62 0 -93 52q-16 28 -16 61q0 57 47 90q29 20 64 20zM127 626q-53 1 -78 -45 q-11 -22 -11 -47q0 -56 45 -81q20 -12 44 -12q55 0 78 48q10 21 10 45q0 53 -44 80q-21 12 -44 12z" glyph-name="registered" horiz-adv-x="233" unicode="ยฎ"/>
<glyph d="M99 573l209 4q6 -2 9 -16q0 -35 -17 -41q-2 -1 -4 -1h-204q-7 2 -8 12q0 31 12 41q2 1 3 1z" glyph-name="macron" horiz-adv-x="400" unicode="ยฏ"/>
<glyph d="M145 636q61 0 93 -49q18 -29 18 -66q0 -71 -59 -102q-26 -14 -56 -14q-69 0 -100 53q-16 28 -16 63q0 64 56 98q30 17 64 17zM138 601q-42 0 -59 -43q-7 -18 -7 -37q0 -55 45 -74q15 -6 31 -6q37 0 54 40q8 18 8 40q0 52 -40 73q-15 7 -32 7z" glyph-name="degree" horiz-adv-x="282" unicode="ยฐ"/>
<glyph d="M283 545q0 10 35 14q5 1 9 1q13 0 14 -8q1 -4 1 -12v-189q2 -12 11 -12h195q14 -3 15 -12q-2 -35 -14 -41h-197q-9 -1 -10 -13v-190q-4 -19 -47 -21q-11 2 -12 15v192q-6 16 -16 17h-187q-17 0 -19 7q-1 3 -1 8q0 26 11 36q3 2 4 2h195q10 3 13 12v194zM548 4 q14 -3 15 -12q-2 -36 -14 -42h-468q-19 0 -20 7q-1 4 -1 8q0 25 11 37q2 2 4 2h473z" glyph-name="plusminus" horiz-adv-x="624" unicode="ยฑ"/>
<glyph d="M139 773q56 0 85 -48q15 -24 15 -52q-1 -45 -43 -90q-36 -39 -93 -93q-5 -6 3 -8h114q14 2 36 29q9 10 16 11q9 0 6 -17l-2 -6q-16 -31 -23 -67q-4 -6 -8 -6h-10q-108 3 -132 2l-61 -1q-15 1 -18 9q1 8 8 14q47 42 98 101q44 53 44 111q0 43 -39 54q-10 3 -19 3 q-41 -1 -68 -31q-12 -9 -18 -10q-6 1 -7 8q1 13 9 23q47 63 107 64z" glyph-name="two.superior" horiz-adv-x="299" unicode="ยฒ"/>
<glyph d="M148 775q52 0 73 -41q7 -13 7 -26q0 -37 -46 -68q-3 -2 -5 -3t-1 -4q1 -2 2 -2q75 -18 81 -77q0 -65 -69 -110q-11 -7 -23 -13q-33 -17 -73 -17q-29 0 -50 19q-8 9 -9 16q0 18 19 29q2 1 3 1q7 1 11 -2q33 -28 72 -28q32 0 53 38q10 19 10 35q0 51 -38 68q-13 5 -28 5 q-9 0 -39 -7q-8 -1 -10 2q1 7 2 10q10 16 26 22q43 18 51 36q4 11 4 27q0 26 -25 41q-11 6 -21 6q-26 -1 -59 -27q-19 -16 -20 -3q0 7 3 13q42 55 99 60z" glyph-name="three.superior" horiz-adv-x="299" unicode="ยณ"/>
<glyph d="M252 625q11 20 24 21q30 -1 38 -8q4 -8 -5 -27q-39 -74 -89 -148q-13 -18 -26 -19q-11 1 -4 27q22 64 62 154z" glyph-name="acute" horiz-adv-x="400" unicode="ยด"/>
<glyph d="M92 407q20 -1 45 -18l10 -22v-1q0 -17 -15 -96q-6 -30 -15 -95q-4 -31 -5 -37q-2 -18 3 -43q8 -35 48 -36q44 0 91 63q21 30 33 61q6 19 8 39q4 75 14 158q3 20 14 27q1 1 2 1q34 0 59 -25q5 -7 2 -35q-5 -60 -45 -166q-7 -17 -12 -28q-4 -11 -4 -25q-2 -51 36 -68 q10 -4 18 -4q41 1 67 32q5 5 10 -5q5 -17 -7 -46l-2 -4q-28 -51 -75 -52q-47 0 -63 62q-6 24 -6 54l-5 1l-1 -1q-69 -103 -117 -109q-44 2 -76 71q-1 4 -5 -2q-1 -2 -1 -3q-6 -50 -5 -151q0 -20 1 -29q13 -70 68 -105q3 -3 1 -15q-5 -10 -29 -22q-15 -7 -29 -7q-15 2 -31 25 q-12 23 -12 107q0 46 7 226q1 29 -1 54q-8 62 -7 235v14q1 10 9 16q9 4 22 4z" glyph-name="mu" horiz-adv-x="453" unicode="ยต"/>
<glyph d="M459 626h35q17 -1 17 -21q-1 -9 -10 -14q-3 0 -35 -1q-56 -1 -67 -1q-6 -1 -7 -16q0 -235 3 -543q1 -45 1 -51q0 -158 -53 -209q-33 -30 -83 -30q-62 0 -92 53q-13 23 -13 46q0 48 37 77q22 17 47 17q31 0 47 -28q5 -10 5 -19q0 -37 -34 -48q-5 -2 -9 -2q-18 1 -27 6 q-10 6 -14 6q-10 -2 -11 -13q0 -47 46 -59q12 -3 24 -3q85 0 89 164v11q1 50 1 106q1 37 1 52q-1 11 -8 14q-156 3 -238 88q-61 64 -61 160q0 94 65 164q6 6 11 12q51 54 151 72q7 1 12 2q67 8 170 8z" glyph-name="paragraph" horiz-adv-x="546" unicode="ยถ"/>
<glyph d="M103 257q46 0 58 -45q3 -10 3 -19q0 -40 -35 -56q-13 -6 -27 -6q-39 0 -54 33q-7 14 -7 31q0 46 45 59q9 3 17 3z" glyph-name="periodcentered" horiz-adv-x="205" unicode="ยท"/>
<glyph d="M263 -136q-1 -44 -49 -82q-41 -31 -68 -31q-16 1 -24 14q-6 11 -2 28q1 2 1 3q5 7 10 7h1q30 -6 42 -6q29 0 35 29q1 5 1 9q0 31 -34 43q-11 4 -22 4q-10 0 -16 -1q-7 0 -14 11q-2 2 -2 4q1 6 7 13q47 59 75 96h32q-4 -5 -7 -9t-6.5 -8.5t-6.5 -8t-5.5 -7t-5 -6.5 t-4.5 -5.5t-3.5 -4.5t-3.5 -4l-1 -1q-1 -7 6 -12q45 -23 56 -42q8 -15 8 -33z" glyph-name="cedilla" horiz-adv-x="400" unicode="ยธ"/>
<glyph d="M188 766v-13q-1 -36 -2 -67q0 -80 2 -190q1 -28 15 -36q7 -3 31 -11q14 -7 15 -11q-2 -11 -18 -12q-4 0 -25 1q-41 1 -55 1q-23 0 -48 -1l-25 -1q-16 2 -19 10q0 10 22 16q3 1 5 1q30 7 35 23q0 5 1 9q5 36 5 141q0 47 -2 71q-1 10 -11 15q-25 9 -32 11q-17 6 -18 12 q1 8 17 10q51 4 97 28q8 4 10 -7z" glyph-name="one.superior" horiz-adv-x="299" unicode="ยน"/>
<glyph d="M161 535q67 0 107 -50q28 -36 28 -84q0 -64 -55 -103q-38 -26 -83 -26q-64 0 -105 52q-28 36 -28 80q0 66 55 105q37 26 81 26zM155 513q-50 0 -64 -68q-3 -17 -3 -35q0 -62 38 -95q20 -17 44 -17q52 0 62 73q2 14 2 28q0 54 -36 92q-21 21 -43 22z" glyph-name="ordmasculine" horiz-adv-x="321" unicode="ยบ"/>
<glyph d="M578 209q14 -7 9 -20q-1 -2 -2 -3q-133 -74 -217 -140q-5 -4 -8 -7q-23 -19 -36 -20q-12 0 1 23l4 6q31 44 147 134q11 10 3 17q-99 91 -113 105q-26 27 -38 45q-15 25 3 27q11 -1 23 -11q94 -82 224 -156zM356 209q14 -8 9 -20q-1 -2 -2 -3q-129 -68 -216 -141 q-4 -3 -7 -6q-23 -19 -34 -20q-11 0 -5 16q2 6 6 11q27 40 147 137q9 8 3 16q-115 95 -151 150q-9 14 -3 24q3 3 6 3q8 -1 22 -11q99 -86 225 -156z" glyph-name="guillemotright" horiz-adv-x="689" unicode="ยป"/>
<glyph d="M188 618v-13q-1 -36 -2 -67q0 -80 2 -190q1 -28 15 -36q7 -3 31 -11q14 -7 15 -11q-2 -11 -18 -12q-4 0 -25 1q-41 1 -55 1q-23 0 -48 -1l-25 -1q-16 2 -19 10q0 10 22 16q3 1 5 1q30 7 35 23q0 5 1 9q5 36 5 141q0 47 -2 71q-1 10 -11 15q-25 9 -32 11q-17 6 -18 12 q1 8 17 10q51 4 97 28q8 4 10 -7zM556 643q17 0 20 -12q0 -5 -2 -9q-50 -80 -165 -262q-218 -348 -246 -388q-4 -5 -12 0q-15 13 -8 27q59 93 206 329q174 277 191 303q7 11 16 12zM581 350q7 -2 8 -11v-24q1 -135 1 -165q2 -6 5 -7l56 2q4 -2 5 -9q0 -17 -8 -27 q-1 -1 -2 -1l-51 1q-3 -2 -4 -8q0 -10 1 -38q1 -45 0 -56q-1 -10 -9 -13q-11 -4 -45 -5q-7 2 -9 10q0 86 1 104q-1 5 -6 6q-86 0 -146 -4q-6 1 -7 12q1 3 17 20q139 162 153 185q16 22 35 27q3 1 5 1zM531 147q0 9 1 41q3 54 3 80q-1 4 -6 2q-85 -101 -99 -119q-3 -6 3 -8 l90 -1q7 1 8 5z" glyph-name="onequarter" horiz-adv-x="657" unicode="ยผ"/>
<glyph d="M188 618v-13q-1 -36 -2 -67q0 -80 2 -190q1 -28 15 -36q7 -3 31 -11q14 -7 15 -11q-2 -11 -18 -12q-4 0 -25 1q-41 1 -55 1q-23 0 -48 -1l-25 -1q-16 2 -19 10q0 10 22 16q3 1 5 1q30 7 35 23q0 5 1 9q5 36 5 141q0 47 -2 71q-1 10 -11 15q-25 9 -32 11q-17 6 -18 12 q1 8 17 10q51 4 97 28q8 4 10 -7zM537 643q17 0 20 -12q0 -5 -2 -9q-50 -80 -165 -262q-218 -348 -246 -388q-4 -5 -12 0q-15 13 -8 27q59 93 206 329q174 277 191 303q7 11 16 12zM519 345q56 0 85 -48q15 -24 15 -52q-1 -45 -43 -90q-36 -39 -93 -93q-5 -6 3 -8h114 q14 2 36 29q9 10 16 11q9 0 6 -17l-2 -6q-16 -31 -23 -67q-4 -6 -8 -6h-10q-108 3 -132 2l-61 -1q-15 1 -18 9q1 8 8 14q47 42 98 101q44 53 44 111q0 43 -39 54q-10 3 -19 3q-41 -1 -68 -31q-12 -9 -18 -10q-6 1 -7 8q1 13 9 23q47 63 107 64z" glyph-name="onehalf" horiz-adv-x="679" unicode="ยฝ"/>
<glyph d="M148 627q52 0 73 -41q7 -13 7 -26q0 -37 -46 -68q-3 -2 -5 -3t-1 -4q1 -2 2 -2q75 -18 81 -77q0 -65 -69 -110q-11 -7 -23 -13q-33 -17 -73 -17q-29 0 -50 19q-8 9 -9 16q0 18 19 29q2 1 3 1q7 1 11 -2q33 -28 72 -28q32 0 53 38q10 19 10 35q0 51 -38 68q-13 5 -28 5 q-9 0 -39 -7q-8 -1 -10 2q1 7 2 10q10 16 26 22q43 18 51 36q4 11 4 27q0 26 -25 41q-11 6 -21 6q-26 -1 -59 -27q-19 -16 -20 -3q0 7 3 13q42 55 99 60zM535 643q17 0 20 -12q0 -5 -2 -9q-50 -80 -165 -262q-218 -348 -246 -388q-4 -5 -12 0q-15 13 -8 27q59 93 206 329 q174 277 191 303q7 11 16 12zM557 350q7 -2 8 -11v-24q1 -135 1 -165q2 -6 5 -7l56 2q4 -2 5 -9q0 -17 -8 -27q-1 -1 -2 -1l-51 1q-3 -2 -4 -8q0 -10 1 -38q1 -45 0 -56q-1 -10 -9 -13q-11 -4 -45 -5q-7 2 -9 10q0 86 1 104q-1 5 -6 6q-86 0 -146 -4q-6 1 -7 12q1 3 17 20 q139 162 153 185q16 22 35 27q3 1 5 1zM507 147q0 9 1 41q3 54 3 80q-1 4 -6 2q-85 -101 -99 -119q-3 -6 3 -8l90 -1q7 1 8 5z" glyph-name="threequarters" horiz-adv-x="634" unicode="ยพ"/>
<glyph d="M217 -164q-40 1 -97 48q-36 32 -61 81q-17 35 -17 64q1 65 37 101q17 12 88 51q17 9 19 34v2q1 4 1 6q2 25 15 26q10 0 16 -23q1 -3 1 -4q12 -63 12 -79q0 -30 -43 -54q-16 -8 -50 -24q-48 -24 -49 -56q0 -60 34 -76q18 -8 43 -8q4 0 18 2q21 2 30 2q15 0 30 -21 q11 -17 11 -37q0 -19 -20 -30q-9 -5 -18 -5zM183 330q-34 0 -50 36q-5 12 -5 22q0 37 32 52q12 6 25 6q38 0 51 -33q5 -12 5 -26q0 -41 -41 -54q-9 -3 -17 -3z" glyph-name="questiondown" horiz-adv-x="336" unicode="ยฟ"/>
<glyph d="M353 661q6 0 15 -24q1 -1 1 -2q6 -20 44 -124q95 -266 144 -385q28 -71 55 -87q13 -8 39 -14q23 -8 24 -17q-2 -13 -32 -13q-15 0 -54 2q-49 3 -72 3q-17 0 -40 -1q-20 -1 -31 -1q-30 0 -31 12q0 11 22 16h2q22 5 32.5 13t9.5 17.5t-2 20.5q-7 35 -56 171q-5 10 -34 10 q-135 0 -164 -4q-6 -1 -11 -8q-46 -121 -52 -175q0 -26 44 -41q3 -1 5 -2q26 -8 27 -18q-1 -13 -28 -13q-7 0 -25 1q-33 2 -54 2q-23 0 -73 -3q-25 -2 -31 -2q-22 1 -23 10q2 13 22 20q45 15 59 29q15 17 33 56q2 4 150 382q20 51 31 79q6 12 6 21q1 6 2 8q6 8 20 33 q8 12 10 16q11 11 16 12zM398 303q3 1 3 8q-64 193 -78 215q-4 8 -7 2q-1 -1 -1 -2q-68 -183 -78 -219q0 -6 5 -7q14 0 53 1q81 0 103 2zM229 820q8 -1 39 -24q31 -22 105 -82q12 -14 10 -21q-11 -11 -33 0q-78 35 -137 69q-2 1 -3 2q-18 12 -19 21q1 11 18 23q12 11 20 12z " glyph-name="Agrave" horiz-adv-x="676" unicode="ร"/>
<glyph d="M353 661q6 0 15 -24q1 -1 1 -2q6 -20 44 -124q95 -266 144 -385q28 -71 55 -87q13 -8 39 -14q23 -8 24 -17q-2 -13 -32 -13q-15 0 -54 2q-49 3 -72 3q-17 0 -40 -1q-20 -1 -31 -1q-30 0 -31 12q0 11 22 16h2q22 5 32.5 13t9.5 17.5t-2 20.5q-7 35 -56 171q-5 10 -34 10 q-135 0 -164 -4q-6 -1 -11 -8q-46 -121 -52 -175q0 -26 44 -41q3 -1 5 -2q26 -8 27 -18q-1 -13 -28 -13q-7 0 -25 1q-33 2 -54 2q-23 0 -73 -3q-25 -2 -31 -2q-22 1 -23 10q2 13 22 20q45 15 59 29q15 17 33 56q2 4 150 382q20 51 31 79q6 12 6 21q1 6 2 8q6 8 20 33 q8 12 10 16q11 11 16 12zM398 303q3 1 3 8q-64 193 -78 215q-4 8 -7 2q-1 -1 -1 -2q-68 -183 -78 -219q0 -6 5 -7q14 0 53 1q81 0 103 2zM452 817q15 10 28 5q19 -9 27 -25q2 -4 2 -7q0 -12 -18 -24q-1 -2 -2 -2q-89 -49 -150 -72q-24 -9 -34 0q-3 0 0 9q4 8 12 15 q59 50 135 101z" glyph-name="Aacute" horiz-adv-x="676" unicode="ร"/>
<glyph d="M353 661q6 0 15 -24q1 -1 1 -2q6 -20 44 -124q95 -266 144 -385q28 -71 55 -87q13 -8 39 -14q23 -8 24 -17q-2 -13 -32 -13q-15 0 -54 2q-49 3 -72 3q-17 0 -40 -1q-20 -1 -31 -1q-30 0 -31 12q0 11 22 16h2q22 5 32.5 13t9.5 17.5t-2 20.5q-7 35 -56 171q-5 10 -34 10 q-135 0 -164 -4q-6 -1 -11 -8q-46 -121 -52 -175q0 -26 44 -41q3 -1 5 -2q26 -8 27 -18q-1 -13 -28 -13q-7 0 -25 1q-33 2 -54 2q-23 0 -73 -3q-25 -2 -31 -2q-22 1 -23 10q2 13 22 20q45 15 59 29q15 17 33 56q2 4 150 382q20 51 31 79q6 12 6 21q1 6 2 8q6 8 20 33 q8 12 10 16q11 11 16 12zM398 303q3 1 3 8q-64 193 -78 215q-4 8 -7 2q-1 -1 -1 -2q-68 -183 -78 -219q0 -6 5 -7q14 0 53 1q81 0 103 2zM351 796q11 -1 37 -22q71 -61 82 -70q17 -12 11 -22q-2 -4 -9 -4q-10 0 -28 8q-2 1 -89 43q-7 3 -16 -1q-34 -15 -86 -41q-2 -1 -9 -3 q-13 -6 -18 -6q-27 0 0 24l2 2q10 8 37 31q35 31 49 42q24 18 37 19z" glyph-name="Acircumflex" horiz-adv-x="676" unicode="ร"/>
<glyph d="M353 661q6 0 15 -24q1 -1 1 -2q6 -20 44 -124q95 -266 144 -385q28 -71 55 -87q13 -8 39 -14q23 -8 24 -17q-2 -13 -32 -13q-15 0 -54 2q-49 3 -72 3q-17 0 -40 -1q-20 -1 -31 -1q-30 0 -31 12q0 11 22 16h2q22 5 32.5 13t9.5 17.5t-2 20.5q-7 35 -56 171q-5 10 -34 10 q-135 0 -164 -4q-6 -1 -11 -8q-46 -121 -52 -175q0 -26 44 -41q3 -1 5 -2q26 -8 27 -18q-1 -13 -28 -13q-7 0 -25 1q-33 2 -54 2q-23 0 -73 -3q-25 -2 -31 -2q-22 1 -23 10q2 13 22 20q45 15 59 29q15 17 33 56q2 4 150 382q20 51 31 79q6 12 6 21q1 6 2 8q6 8 20 33 q8 12 10 16q11 11 16 12zM398 303q3 1 3 8q-64 193 -78 215q-4 8 -7 2q-1 -1 -1 -2q-68 -183 -78 -219q0 -6 5 -7q14 0 53 1q81 0 103 2zM230 713q17 26 33 47q9 9 25 9q124 0 141 4q5 1 10 4t8.5 7t5.5 7t5 7l3 5q8 7 9 7q7 -1 15 -14q3 -8 -3 -15q-6 -6 -26 -32t-25 -31 q-7 -6 -14 -6q-138 0 -146 -2q-11 -4 -28 -27q-5 -6 -9 -7q-12 2 -15 13q1 7 11 24z" glyph-name="Atilde" horiz-adv-x="676" unicode="ร"/>
<glyph d="M353 661q6 0 15 -24q1 -1 1 -2q6 -20 44 -124q95 -266 144 -385q28 -71 55 -87q13 -8 39 -14q23 -8 24 -17q-2 -13 -32 -13q-15 0 -54 2q-49 3 -72 3q-17 0 -40 -1q-20 -1 -31 -1q-30 0 -31 12q0 11 22 16h2q22 5 32.5 13t9.5 17.5t-2 20.5q-7 35 -56 171q-5 10 -34 10 q-135 0 -164 -4q-6 -1 -11 -8q-46 -121 -52 -175q0 -26 44 -41q3 -1 5 -2q26 -8 27 -18q-1 -13 -28 -13q-7 0 -25 1q-33 2 -54 2q-23 0 -73 -3q-25 -2 -31 -2q-22 1 -23 10q2 13 22 20q45 15 59 29q15 17 33 56q2 4 150 382q20 51 31 79q6 12 6 21q1 6 2 8q6 8 20 33 q8 12 10 16q11 11 16 12zM398 303q3 1 3 8q-64 193 -78 215q-4 8 -7 2q-1 -1 -1 -2q-68 -183 -78 -219q0 -6 5 -7q14 0 53 1q81 0 103 2zM249 778q28 0 40 -29q4 -10 4 -19q0 -36 -36 -43q-6 -1 -12 -1q-26 0 -37 25q-4 10 -4 21q0 30 26 42q10 4 19 4zM450 777q26 0 38 -28 q4 -10 4 -19q0 -28 -27 -40q-9 -4 -18 -4q-28 0 -39 26q-4 9 -4 18q0 33 29 44q9 3 17 3z" glyph-name="Adieresis" horiz-adv-x="676" unicode="ร"/>
<glyph d="M353 661q6 0 15 -24q1 -1 1 -2q6 -20 44 -124q95 -266 144 -385q28 -71 55 -87q13 -8 39 -14q23 -8 24 -17q-2 -13 -32 -13q-15 0 -54 2q-49 3 -72 3q-17 0 -40 -1q-20 -1 -31 -1q-30 0 -31 12q0 11 22 16h2q22 5 32.5 13t9.5 17.5t-2 20.5q-7 35 -56 171q-5 10 -34 10 q-135 0 -164 -4q-6 -1 -11 -8q-46 -121 -52 -175q0 -26 44 -41q3 -1 5 -2q26 -8 27 -18q-1 -13 -28 -13q-7 0 -25 1q-33 2 -54 2q-23 0 -73 -3q-25 -2 -31 -2q-22 1 -23 10q2 13 22 20q45 15 59 29q15 17 33 56q2 4 150 382q20 51 31 79q6 12 6 21q1 6 2 8q6 8 20 33 q8 12 10 16q11 11 16 12zM398 303q3 1 3 8q-64 193 -78 215q-4 8 -7 2q-1 -1 -1 -2q-68 -183 -78 -219q0 -6 5 -7q14 0 53 1q81 0 103 2zM348 834q49 0 69 -42q8 -17 8 -34q0 -47 -39 -68q-18 -10 -38 -10q-49 0 -70 44q-7 16 -7 34q0 45 38 66q18 10 39 10zM348 807 q-29 0 -39 -30q-3 -9 -3 -19q0 -40 31 -49q6 -1 11 -1q36 0 41 41q1 6 1 11q0 32 -26 44q-8 3 -16 3z" glyph-name="Aring" horiz-adv-x="676" unicode="ร"/>
<glyph d="M504 643h201q9 0 18 0.5t16.5 1l15 1t13.5 1.5t11.5 1.5t9 1t5.5 0.5l3 1q6 0 11 -10q1 -4 1 -6q0 -18 15 -104q2 -13 -8 -18q-2 -1 -3 -1q-12 2 -22 22q-31 64 -67 70q-12 2 -152 1q-8 -1 -10 -11q-1 -4 0 -226v-16q1 -20 10 -22q116 0 135 4q20 6 37 44q9 14 23 17 q9 0 8 -19q-1 -3 -1 -5q-5 -27 -4 -137q-1 -18 -11 -19q-12 1 -21 24q-9 35 -23 42q-13 6 -38 6h-31q-44 1 -71 1q-9 -2 -12 -13q-6 -26 1 -179q4 -50 47 -58q49 -6 126 -4q36 1 69 33q14 14 40 44q19 21 24 22q8 0 12 -13q1 -6 0 -10l-42 -101q-8 -13 -36 -14q-6 0 -35 1 q-122 4 -229 4q-13 0 -65 -2q-54 -3 -68 -3q-20 1 -23 11q2 13 25 19q47 10 57 33q4 11 7 31q4 36 4 182q-2 10 -7 11q-99 5 -159 1h-2q-8 -2 -19 -15q-95 -179 -102 -203q-1 -4 -1 -7q0 -17 42 -28q1 -1 2 -1q19 -5 20 -12q0 -15 -18 -19q-4 -1 -7 -1q-10 0 -33 1 q-34 2 -57 2q-16 0 -75 -4q-36 -2 -43 -2q-21 0 -25 11q-1 1 -1 2q0 13 30 19q3 1 4 1q54 8 86 39q20 19 43 52q11 16 31.5 48t45 74t49 85t51.5 90.5t45 79t35 63.5l18 31q5 11 -7 15q-8 2 -39.5 6.5t-39.5 6.5q-18 7 -19 16q2 12 29 12q18 0 71 -1q58 -1 79 -1zM479 575 q0 17 -2.5 17.5t-9.5 -10.5q-4 -5 -8 -12q-55 -86 -127 -230q-2 -9 7 -12q15 -1 129 -1q8 1 9 16q0 2 1 65q1 151 1 167z" glyph-name="AE" horiz-adv-x="903" unicode="ร"/>
<glyph d="M431 661q51 0 118 -16q14 -2 46 -11q23 -7 30 -8q11 0 14 -20q1 -5 1 -10q0 -12 7 -87q-1 -29 -15 -33q-8 2 -16 26q-15 52 -41 75q-70 52 -160 52q-127 0 -203 -98q-61 -79 -61 -186q0 -95 35 -165q53 -106 168 -145q44 -15 85 -15q61 1 110 27q53 29 92 97q17 24 22 25 q13 0 8 -30v-2q-5 -37 -39 -101q-8 -15 -32 -26q-34 -16 -125 -25q-19 -1 -36 -2q-2 -3 -4 -5.5l-4 -5t-3.5 -5t-3 -4.5t-3 -3.5t-2.5 -3l-2 -3t-2 -2.5t-1 -2l-1 -1q-1 -8 7 -13q47 -24 58 -44q9 -16 9 -35q-1 -44 -52 -87q-44 -33 -73 -33q-16 1 -25 15q-8 15 0 31 q7 10 14 9q37 -7 42 -7q30 0 38 29q1 7 1 12q0 31 -35 45q-13 5 -26 5q-11 0 -18 -1q-6 0 -13 10q-2 3 -2 5q1 7 7 14q6 9 62 79q-137 4 -238 84q-21 17 -35 33q-84 98 -84 230q0 114 79 208q16 19 31 32q114 92 271 92z" glyph-name="Ccedilla" horiz-adv-x="717" unicode="ร"/>
<glyph d="M223 643h147q69 0 92 3q3 1 7 -7q2 -2 2 -4q0 -28 1 -66q1 -21 1 -29q-1 -25 -15 -26q-11 1 -16 24q-13 52 -47 64q-9 2 -20 4q-53 8 -142 4q-7 0 -12 -14q-2 -7 -3 -14q-5 -63 -4 -210q1 -14 1 -18q4 -9 7 -10h65q77 0 93 11q11 10 23 39q9 20 18 21q10 -1 8 -22 q-3 -43 -3 -72q0 -4 3 -61q1 -28 -11 -29q-11 1 -17 22q-11 36 -24 43t-55 9q-33 2 -99 2q-6 -1 -9 -9q-3 -17 -3 -157q0 -56 10 -83q7 -18 19 -22q40 -7 91 -7q69 0 95 7q52 14 83 74q14 27 23 28q10 0 9 -22q-1 -3 -1 -5q-3 -21 -28 -90q-6 -14 -8 -17q-9 -11 -17 -12 q-2 0 -24 1q-172 7 -301 7q-29 0 -66 -3q-30 -2 -47 -2q-29 1 -30 13q2 9 28 16q48 12 60 28q11 15 13 45q8 113 8 284q0 155 -1 169q-2 42 -22 54q-12 7 -34 12q-28 8 -29 17q1 13 28 14q21 0 63 -2q54 -2 90 -2zM181 827q8 -1 39 -24q31 -22 105 -82q12 -14 10 -21 q-11 -11 -33 0q-78 35 -137 69q-2 1 -3 2q-18 12 -19 21q1 11 18 23q12 11 20 12z" glyph-name="Egrave" horiz-adv-x="563" unicode="ร"/>
<glyph d="M223 643h147q69 0 92 3q3 1 7 -7q2 -2 2 -4q0 -28 1 -66q1 -21 1 -29q-1 -25 -15 -26q-11 1 -16 24q-13 52 -47 64q-9 2 -20 4q-53 8 -142 4q-7 0 -12 -14q-2 -7 -3 -14q-5 -63 -4 -210q1 -14 1 -18q4 -9 7 -10h65q77 0 93 11q11 10 23 39q9 20 18 21q10 -1 8 -22 q-3 -43 -3 -72q0 -4 3 -61q1 -28 -11 -29q-11 1 -17 22q-11 36 -24 43t-55 9q-33 2 -99 2q-6 -1 -9 -9q-3 -17 -3 -157q0 -56 10 -83q7 -18 19 -22q40 -7 91 -7q69 0 95 7q52 14 83 74q14 27 23 28q10 0 9 -22q-1 -3 -1 -5q-3 -21 -28 -90q-6 -14 -8 -17q-9 -11 -17 -12 q-2 0 -24 1q-172 7 -301 7q-29 0 -66 -3q-30 -2 -47 -2q-29 1 -30 13q2 9 28 16q48 12 60 28q11 15 13 45q8 113 8 284q0 155 -1 169q-2 42 -22 54q-12 7 -34 12q-28 8 -29 17q1 13 28 14q21 0 63 -2q54 -2 90 -2zM383 815q15 10 28 5q19 -9 27 -25q2 -4 2 -7q0 -12 -18 -24 q-1 -2 -2 -2q-89 -49 -150 -72q-24 -9 -34 0q-3 0 0 9q4 8 12 15q59 50 135 101z" glyph-name="Eacute" horiz-adv-x="563" unicode="ร"/>
<glyph d="M223 643h147q69 0 92 3q3 1 7 -7q2 -2 2 -4q0 -28 1 -66q1 -21 1 -29q-1 -25 -15 -26q-11 1 -16 24q-13 52 -47 64q-9 2 -20 4q-53 8 -142 4q-7 0 -12 -14q-2 -7 -3 -14q-5 -63 -4 -210q1 -14 1 -18q4 -9 7 -10h65q77 0 93 11q11 10 23 39q9 20 18 21q10 -1 8 -22 q-3 -43 -3 -72q0 -4 3 -61q1 -28 -11 -29q-11 1 -17 22q-11 36 -24 43t-55 9q-33 2 -99 2q-6 -1 -9 -9q-3 -17 -3 -157q0 -56 10 -83q7 -18 19 -22q40 -7 91 -7q69 0 95 7q52 14 83 74q14 27 23 28q10 0 9 -22q-1 -3 -1 -5q-3 -21 -28 -90q-6 -14 -8 -17q-9 -11 -17 -12 q-2 0 -24 1q-172 7 -301 7q-29 0 -66 -3q-30 -2 -47 -2q-29 1 -30 13q2 9 28 16q48 12 60 28q11 15 13 45q8 113 8 284q0 155 -1 169q-2 42 -22 54q-12 7 -34 12q-28 8 -29 17q1 13 28 14q21 0 63 -2q54 -2 90 -2zM288 809q11 -1 37 -22q71 -61 82 -70q17 -12 11 -22 q-2 -4 -9 -4q-10 0 -28 8q-2 1 -89 43q-7 3 -16 -1q-34 -15 -86 -41q-2 -1 -9 -3q-13 -6 -18 -6q-27 0 0 24l2 2q10 8 37 31q35 31 49 42q24 18 37 19z" glyph-name="Ecircumflex" horiz-adv-x="563" unicode="ร"/>
<glyph d="M223 643h147q69 0 92 3q3 1 7 -7q2 -2 2 -4q0 -28 1 -66q1 -21 1 -29q-1 -25 -15 -26q-11 1 -16 24q-13 52 -47 64q-9 2 -20 4q-53 8 -142 4q-7 0 -12 -14q-2 -7 -3 -14q-5 -63 -4 -210q1 -14 1 -18q4 -9 7 -10h65q77 0 93 11q11 10 23 39q9 20 18 21q10 -1 8 -22 q-3 -43 -3 -72q0 -4 3 -61q1 -28 -11 -29q-11 1 -17 22q-11 36 -24 43t-55 9q-33 2 -99 2q-6 -1 -9 -9q-3 -17 -3 -157q0 -56 10 -83q7 -18 19 -22q40 -7 91 -7q69 0 95 7q52 14 83 74q14 27 23 28q10 0 9 -22q-1 -3 -1 -5q-3 -21 -28 -90q-6 -14 -8 -17q-9 -11 -17 -12 q-2 0 -24 1q-172 7 -301 7q-29 0 -66 -3q-30 -2 -47 -2q-29 1 -30 13q2 9 28 16q48 12 60 28q11 15 13 45q8 113 8 284q0 155 -1 169q-2 42 -22 54q-12 7 -34 12q-28 8 -29 17q1 13 28 14q21 0 63 -2q54 -2 90 -2zM185 790q28 0 40 -29q4 -10 4 -19q0 -36 -36 -43 q-6 -1 -12 -1q-26 0 -37 25q-4 10 -4 21q0 30 26 42q10 4 19 4zM386 789q26 0 38 -28q4 -10 4 -19q0 -28 -27 -40q-9 -4 -18 -4q-28 0 -39 26q-4 9 -4 18q0 33 29 44q9 3 17 3z" glyph-name="Edieresis" horiz-adv-x="563" unicode="ร"/>
<glyph d="M128 326q0 168 -3 219q-3 42 -13 53q-12 12 -46 18q-27 6 -28 18q2 11 25 12q12 0 48 -1q44 -2 61 -2q27 0 63 2q28 1 44 1q24 -1 25 -12q-2 -12 -26 -17q-49 -10 -57 -41q-1 -5 -4 -23q-6 -42 -6 -294q0 -101 3 -149q3 -50 19 -64t54 -22q25 -5 26 -17q-3 -12 -27 -13 q-30 0 -96 4q-42 2 -53 2q-14 0 -34 -1q-23 -1 -42 -1q-25 1 -26 14q2 11 30 17q42 9 51 31q5 13 7 42q5 59 5 224zM68 830q8 -1 39 -24q31 -22 105 -82q12 -14 10 -21q-11 -11 -33 0q-78 35 -137 69q-2 1 -3 2q-18 12 -19 21q1 11 18 23q12 11 20 12z" glyph-name="Igrave" horiz-adv-x="339" unicode="ร"/>
<glyph d="M128 326q0 168 -3 219q-3 42 -13 53q-12 12 -46 18q-27 6 -28 18q2 11 25 12q12 0 48 -1q44 -2 61 -2q27 0 63 2q28 1 44 1q24 -1 25 -12q-2 -12 -26 -17q-49 -10 -57 -41q-1 -5 -4 -23q-6 -42 -6 -294q0 -101 3 -149q3 -50 19 -64t54 -22q25 -5 26 -17q-3 -12 -27 -13 q-30 0 -96 4q-42 2 -53 2q-14 0 -34 -1q-23 -1 -42 -1q-25 1 -26 14q2 11 30 17q42 9 51 31q5 13 7 42q5 59 5 224zM273 825q15 10 28 5q19 -9 27 -25q2 -4 2 -7q0 -12 -18 -24q-1 -2 -2 -2q-89 -49 -150 -72q-24 -9 -34 0q-3 0 0 9q4 8 12 15q59 50 135 101z" glyph-name="Iacute" horiz-adv-x="339" unicode="ร"/>
<glyph d="M128 326q0 168 -3 219q-3 42 -13 53q-12 12 -46 18q-27 6 -28 18q2 11 25 12q12 0 48 -1q44 -2 61 -2q27 0 63 2q28 1 44 1q24 -1 25 -12q-2 -12 -26 -17q-49 -10 -57 -41q-1 -5 -4 -23q-6 -42 -6 -294q0 -101 3 -149q3 -50 19 -64t54 -22q25 -5 26 -17q-3 -12 -27 -13 q-30 0 -96 4q-42 2 -53 2q-14 0 -34 -1q-23 -1 -42 -1q-25 1 -26 14q2 11 30 17q42 9 51 31q5 13 7 42q5 59 5 224zM178 816q11 -1 37 -22q71 -61 82 -70q17 -12 11 -22q-2 -4 -9 -4q-10 0 -28 8q-2 1 -89 43q-7 3 -16 -1q-34 -15 -86 -41q-2 -1 -9 -3q-13 -6 -18 -6 q-27 0 0 24l2 2q10 8 37 31q35 31 49 42q24 18 37 19z" glyph-name="Icircumflex" horiz-adv-x="339" unicode="ร"/>
<glyph d="M128 326q0 168 -3 219q-3 42 -13 53q-12 12 -46 18q-27 6 -28 18q2 11 25 12q12 0 48 -1q44 -2 61 -2q27 0 63 2q28 1 44 1q24 -1 25 -12q-2 -12 -26 -17q-49 -10 -57 -41q-1 -5 -4 -23q-6 -42 -6 -294q0 -101 3 -149q3 -50 19 -64t54 -22q25 -5 26 -17q-3 -12 -27 -13 q-30 0 -96 4q-42 2 -53 2q-14 0 -34 -1q-23 -1 -42 -1q-25 1 -26 14q2 11 30 17q42 9 51 31q5 13 7 42q5 59 5 224zM73 790q28 0 40 -29q4 -10 4 -19q0 -36 -36 -43q-6 -1 -12 -1q-26 0 -37 25q-4 10 -4 21q0 30 26 42q10 4 19 4zM274 789q26 0 38 -28q4 -10 4 -19 q0 -28 -27 -40q-9 -4 -18 -4q-28 0 -39 26q-4 9 -4 18q0 33 29 44q9 3 17 3z" glyph-name="Idieresis" horiz-adv-x="339" unicode="ร"/>
<glyph d="M44 349l76 1q6 1 8 11q-1 28 -2 97q-2 50 -2 69q-2 54 -12 67q-13 14 -52 20q-22 4 -23 15q2 13 24 14h29q21 0 92 4q107 5 156 5q148 0 255 -79q13 -9 22 -18q63 -61 84 -161q7 -32 7 -60q0 -137 -94 -237q-32 -33 -66 -52q-98 -56 -238 -56q-91 0 -196 8q-20 1 -53 1 q-31 1 -32 15q2 11 21 15q54 6 67 30q10 20 11 75q0 30 1 83q1 54 1 84q-1 9 -6 11l-73 1q-12 2 -13 15q1 20 8 22zM393 313l-176 -2q-5 -1 -6 -10q3 -185 4 -205q4 -40 22 -51q28 -21 74 -25q5 -1 9 -1q77 0 149 40q21 12 37 25q93 79 102 222q1 14 1 28q0 101 -62 183 q-21 28 -45 46q-67 50 -182 57q-14 1 -26 1q-55 0 -68 -8q-9 -7 -11 -14q-1 -6 -2 -110q-1 -92 -2 -129q1 -8 7 -10h172q15 -1 16 -8q0 -22 -10 -28q-2 -1 -3 -1z" glyph-name="Eth" horiz-adv-x="755" unicode="ร"/>
<glyph d="M15 634q2 12 33 12q9 0 37 -1q55 -2 85 -2q8 -1 21 -13q41 -49 79 -99q47 -60 332 -370q7 -4 10 7q3 18 2 248v36q0 49 -5 100q-2 39 -49 56q-7 3 -14 5q-26 9 -27 22q1 9 26 9h39q31 -1 47 -1q19 0 55 2q27 2 39 2q22 -1 23 -11q0 -13 -22 -19q-1 -1 -2 -1 q-43 -10 -54 -29q-8 -16 -10 -44q-11 -198 -11 -405q0 -26 5 -94q2 -33 2 -39q-1 -19 -14 -21q-18 0 -42 29l-3 3q-7 9 -23 30q-24 32 -39 50q-45 54 -173 201q-137 158 -184 214q-5 6 -10 1q-1 -2 -1 -3q0 -8 -1 -24q-3 -54 -4 -109q0 -35 -1 -122q-1 -133 0 -153 q4 -44 26 -60q14 -8 37 -15q24 -7 25 -18q-2 -13 -32 -13q-14 0 -48 2q-40 3 -59 3q-12 0 -37 -1q-20 -1 -28 -1q-25 1 -26 11q1 11 20 17q42 14 53 27q14 19 17 67q19 307 19 404q0 37 -7 48q-24 28 -52 37q-6 2 -32 9q-21 7 -22 16zM280 723q17 26 33 47q9 9 25 9 q124 0 141 4q5 1 10 4t8.5 7t5.5 7t5 7l3 5q8 7 9 7q7 -1 15 -14q3 -8 -3 -15q-6 -6 -26 -32t-25 -31q-7 -6 -14 -6q-138 0 -146 -2q-11 -4 -28 -27q-5 -6 -9 -7q-12 2 -15 13q1 7 11 24z" glyph-name="Ntilde" horiz-adv-x="771" unicode="ร"/>
<glyph d="M385 661q146 0 246 -95q101 -96 101 -236q0 -158 -106 -260q-18 -17 -36 -30q-87 -54 -197 -58q-130 0 -226 81q-19 16 -34 33q-83 93 -83 226q1 165 130 269q62 51 158 66q25 4 47 4zM363 628q-59 0 -115 -38q-13 -9 -23 -19q-78 -77 -78 -235q0 -114 70 -209 q77 -105 189 -111h11q88 0 132 48q60 54 79 162q6 36 6 74q0 131 -76 229q-21 26 -45 45q-56 45 -131 53q-10 1 -19 1zM301 840q8 -1 39 -24q31 -22 105 -82q12 -14 10 -21q-11 -11 -33 0q-78 35 -137 69q-2 1 -3 2q-18 12 -19 21q1 11 18 23q12 11 20 12z" glyph-name="Ograve" horiz-adv-x="781" unicode="ร"/>
<glyph d="M385 661q146 0 246 -95q101 -96 101 -236q0 -158 -106 -260q-18 -17 -36 -30q-87 -54 -197 -58q-130 0 -226 81q-19 16 -34 33q-83 93 -83 226q1 165 130 269q62 51 158 66q25 4 47 4zM363 628q-59 0 -115 -38q-13 -9 -23 -19q-78 -77 -78 -235q0 -114 70 -209 q77 -105 189 -111h11q88 0 132 48q60 54 79 162q6 36 6 74q0 131 -76 229q-21 26 -45 45q-56 45 -131 53q-10 1 -19 1zM476 834q15 10 28 5q19 -9 27 -25q2 -4 2 -7q0 -12 -18 -24q-1 -2 -2 -2q-89 -49 -150 -72q-24 -9 -34 0q-3 0 0 9q4 8 12 15q59 50 135 101z" glyph-name="Oacute" horiz-adv-x="781" unicode="ร"/>
<glyph d="M385 661q146 0 246 -95q101 -96 101 -236q0 -158 -106 -260q-18 -17 -36 -30q-87 -54 -197 -58q-130 0 -226 81q-19 16 -34 33q-83 93 -83 226q1 165 130 269q62 51 158 66q25 4 47 4zM363 628q-59 0 -115 -38q-13 -9 -23 -19q-78 -77 -78 -235q0 -114 70 -209 q77 -105 189 -111h11q88 0 132 48q60 54 79 162q6 36 6 74q0 131 -76 229q-21 26 -45 45q-56 45 -131 53q-10 1 -19 1zM398 823q11 -1 37 -22q71 -61 82 -70q17 -12 11 -22q-2 -4 -9 -4q-10 0 -28 8q-2 1 -89 43q-7 3 -16 -1q-34 -15 -86 -41q-2 -1 -9 -3q-13 -6 -18 -6 q-27 0 0 24l2 2q10 8 37 31q35 31 49 42q24 18 37 19z" glyph-name="Ocircumflex" horiz-adv-x="781" unicode="ร"/>
<glyph d="M385 661q146 0 246 -95q101 -96 101 -236q0 -158 -106 -260q-18 -17 -36 -30q-87 -54 -197 -58q-130 0 -226 81q-19 16 -34 33q-83 93 -83 226q1 165 130 269q62 51 158 66q25 4 47 4zM363 628q-59 0 -115 -38q-13 -9 -23 -19q-78 -77 -78 -235q0 -114 70 -209 q77 -105 189 -111h11q88 0 132 48q60 54 79 162q6 36 6 74q0 131 -76 229q-21 26 -45 45q-56 45 -131 53q-10 1 -19 1zM267 742q17 26 33 47q9 9 25 9q124 0 141 4q5 1 10 4t8.5 7t5.5 7t5 8l3 4q8 7 9 7q7 -1 15 -14q3 -8 -3 -15q-6 -6 -26 -32t-25 -31q-7 -6 -14 -6 q-138 0 -146 -2q-11 -4 -28 -27q-5 -6 -9 -7q-12 2 -15 13q1 7 11 24z" glyph-name="Otilde" horiz-adv-x="781" unicode="ร"/>
<glyph d="M385 661q146 0 246 -95q101 -96 101 -236q0 -158 -106 -260q-18 -17 -36 -30q-87 -54 -197 -58q-130 0 -226 81q-19 16 -34 33q-83 93 -83 226q1 165 130 269q62 51 158 66q25 4 47 4zM363 628q-59 0 -115 -38q-13 -9 -23 -19q-78 -77 -78 -235q0 -114 70 -209 q77 -105 189 -111h11q88 0 132 48q60 54 79 162q6 36 6 74q0 131 -76 229q-21 26 -45 45q-56 45 -131 53q-10 1 -19 1zM294 800q28 0 40 -29q4 -10 4 -19q0 -36 -36 -43q-6 -1 -12 -1q-26 0 -37 25q-4 10 -4 21q0 30 26 42q10 4 19 4zM495 799q26 0 38 -28q4 -10 4 -19 q0 -28 -27 -40q-9 -4 -18 -4q-28 0 -39 26q-4 9 -4 18q0 33 29 44q9 3 17 3z" glyph-name="Odieresis" horiz-adv-x="781" unicode="ร"/>
<glyph d="M93 427q-6 7 22 35q14 13 28 -1l161 -162q9 -8 16 -3l2 2l164 169q11 10 18 2q24 -25 18 -37l-166 -170q-6 -9 2 -20l167 -166q13 -16 -16 -46q-10 -7 -20 2l-171 172q-12 11 -19 4l-4 -4l-157 -159q-15 -14 -23 -7q-2 1 -3 2q-15 14 -16 31q0 4 1 6l164 165q7 9 0 17z " glyph-name="multiply" horiz-adv-x="624" unicode="ร"/>
<glyph d="M385 661q100 0 188 -52q5 -3 9 -5q5 -1 10 4q5 7 15 19q10 14 14 18q11 13 16 14q10 -1 17 -12q3 -4 1 -11q-5 -7 -38 -51q-2 -3 0 -6q94 -80 112 -204q3 -24 3 -46q0 -157 -107 -259q-18 -17 -37 -30q-84 -58 -197 -58q-101 1 -184 53q-9 2 -12 -1q-8 -10 -21 -26 q-18 -22 -28 -34q-4 -7 -19 -1q-4 1 -6 3q-9 9 -4 19q8 11 22 29q16 20 25 33q3 5 -2 10q-107 96 -112 242v12q1 166 128 267q61 50 154 68q29 5 53 5zM360 626q-63 0 -117 -41q-9 -7 -16 -14q-78 -74 -78 -234q1 -113 67 -207q4 -2 7 1q64 83 202 260q82 107 119 154 q2 5 0 8q-79 73 -184 73zM413 15q69 0 121 36q7 5 12 10q59 54 80 158q8 40 8 82q0 100 -53 195q-5 10 -10 18q-3 4 -8 1q-137 -186 -318 -414q-3 -4 0 -9q52 -53 127 -72q22 -5 41 -5z" glyph-name="Oslash" horiz-adv-x="781" unicode="ร"/>
<glyph d="M37 634q2 12 29 12q22 0 55 -2q31 -1 48 -1q21 0 61 1q27 1 36 1q30 -1 31 -11q-2 -13 -30 -19q-43 -8 -54 -33q-5 -10 -7 -24q-4 -28 -4 -279q0 -120 46 -178q5 -7 10 -13q34 -38 107 -51q20 -4 38 -4q91 0 145 58q31 34 42 82q22 98 22 251q0 80 -4 129q-3 36 -21 49 q-15 9 -45 16q-16 3 -20 15q-1 2 -1 3q2 10 23 10q12 0 37 -1q31 -2 48 -2q22 0 54 1q24 1 36 1q24 -1 25 -11q-2 -10 -22 -18q-45 -12 -57 -42q-7 -20 -8 -50q-1 -26 -5 -123q-3 -62 -4 -83q-7 -236 -125 -302q-57 -32 -144 -32q-99 0 -169 49q-7 6 -12 10q-59 56 -73 164 q-7 54 -7 130q0 184 -4 237q-3 32 -52 43h-2q-22 7 -23 17zM297 826q8 -1 39 -24q31 -22 105 -82q12 -14 10 -21q-11 -11 -33 0q-78 35 -137 69q-2 1 -3 2q-18 12 -19 21q1 11 18 23q12 11 20 12z" glyph-name="Ugrave" horiz-adv-x="762" unicode="ร"/>
<glyph d="M37 634q2 12 29 12q22 0 55 -2q31 -1 48 -1q21 0 61 1q27 1 36 1q30 -1 31 -11q-2 -13 -30 -19q-43 -8 -54 -33q-5 -10 -7 -24q-4 -28 -4 -279q0 -120 46 -178q5 -7 10 -13q34 -38 107 -51q20 -4 38 -4q91 0 145 58q31 34 42 82q22 98 22 251q0 80 -4 129q-3 36 -21 49 q-15 9 -45 16q-16 3 -20 15q-1 2 -1 3q2 10 23 10q12 0 37 -1q31 -2 48 -2q22 0 54 1q24 1 36 1q24 -1 25 -11q-2 -10 -22 -18q-45 -12 -57 -42q-7 -20 -8 -50q-1 -26 -5 -123q-3 -62 -4 -83q-7 -236 -125 -302q-57 -32 -144 -32q-99 0 -169 49q-7 6 -12 10q-59 56 -73 164 q-7 54 -7 130q0 184 -4 237q-3 32 -52 43h-2q-22 7 -23 17zM498 817q15 10 28 5q19 -9 27 -25q2 -4 2 -7q0 -12 -18 -24q-1 -2 -2 -2q-89 -49 -150 -72q-24 -9 -34 0q-3 0 0 9q4 8 12 15q59 50 135 101z" glyph-name="Uacute" horiz-adv-x="762" unicode="ร"/>
<glyph d="M37 634q2 12 29 12q22 0 55 -2q31 -1 48 -1q21 0 61 1q27 1 36 1q30 -1 31 -11q-2 -13 -30 -19q-43 -8 -54 -33q-5 -10 -7 -24q-4 -28 -4 -279q0 -120 46 -178q5 -7 10 -13q34 -38 107 -51q20 -4 38 -4q91 0 145 58q31 34 42 82q22 98 22 251q0 80 -4 129q-3 36 -21 49 q-15 9 -45 16q-16 3 -20 15q-1 2 -1 3q2 10 23 10q12 0 37 -1q31 -2 48 -2q22 0 54 1q24 1 36 1q24 -1 25 -11q-2 -10 -22 -18q-45 -12 -57 -42q-7 -20 -8 -50q-1 -26 -5 -123q-3 -62 -4 -83q-7 -236 -125 -302q-57 -32 -144 -32q-99 0 -169 49q-7 6 -12 10q-59 56 -73 164 q-7 54 -7 130q0 184 -4 237q-3 32 -52 43h-2q-22 7 -23 17zM405 816q11 -1 37 -22q71 -61 82 -70q17 -12 11 -22q-2 -4 -9 -4q-10 0 -28 8q-2 1 -89 43q-7 3 -16 -1q-34 -15 -86 -41q-2 -1 -9 -3q-13 -6 -18 -6q-27 0 0 24l2 2q10 8 37 31q35 31 49 42q24 18 37 19z" glyph-name="Ucircumflex" horiz-adv-x="762" unicode="ร"/>
<glyph d="M37 634q2 12 29 12q22 0 55 -2q31 -1 48 -1q21 0 61 1q27 1 36 1q30 -1 31 -11q-2 -13 -30 -19q-43 -8 -54 -33q-5 -10 -7 -24q-4 -28 -4 -279q0 -120 46 -178q5 -7 10 -13q34 -38 107 -51q20 -4 38 -4q91 0 145 58q31 34 42 82q22 98 22 251q0 80 -4 129q-3 36 -21 49 q-15 9 -45 16q-16 3 -20 15q-1 2 -1 3q2 10 23 10q12 0 37 -1q31 -2 48 -2q22 0 54 1q24 1 36 1q24 -1 25 -11q-2 -10 -22 -18q-45 -12 -57 -42q-7 -20 -8 -50q-1 -26 -5 -123q-3 -62 -4 -83q-7 -236 -125 -302q-57 -32 -144 -32q-99 0 -169 49q-7 6 -12 10q-59 56 -73 164 q-7 54 -7 130q0 184 -4 237q-3 32 -52 43h-2q-22 7 -23 17zM307 789q28 0 40 -29q4 -10 4 -19q0 -36 -36 -43q-6 -1 -12 -1q-26 0 -37 25q-4 10 -4 21q0 30 26 42q10 4 19 4zM508 788q26 0 38 -28q4 -10 4 -19q0 -28 -27 -40q-9 -4 -18 -4q-28 0 -39 26q-4 9 -4 18 q0 33 29 44q9 3 17 3z" glyph-name="Udieresis" horiz-adv-x="762" unicode="ร"/>
<glyph d="M3 637q2 11 27 11q5 0 29 -1q55 -4 85 -4q13 0 31 1q24 1 45 1q21 -1 22 -11q-2 -13 -22 -19q-17 -4 -22.5 -10t-3 -13.5t9.5 -21.5l1 -1q22 -43 131 -219q5 -5 10 2q27 38 129 206q21 36 -4 49q-10 4 -25 8q-20 6 -21 20q1 9 23 9q13 0 35 -1h30q22 0 76 3q28 1 35 1 q20 -1 21 -10q-2 -11 -26 -18q-56 -14 -103 -70q-3 -5 -6 -8q-25 -32 -113 -165q-12 -19 -20 -31q-22 -34 -25 -61q0 -163 6 -212q4 -24 34 -35q15 -6 37 -12q26 -7 27 -18q-2 -11 -30 -11q-7 0 -35 2q-39 2 -52 2t-140 -6q-24 1 -25 11q0 12 26 18h2q62 14 65 48 q3 42 3 207q0 12 -9 36q-29 60 -127 210q-43 65 -64 79q-15 9 -39 15q-27 6 -28 19zM433 815q15 10 28 5q19 -9 27 -25q2 -4 2 -7q0 -12 -18 -24q-1 -2 -2 -2q-89 -49 -150 -72q-24 -9 -34 0q-3 0 0 9q4 8 12 15q59 50 135 101z" glyph-name="Yacute" horiz-adv-x="622" unicode="ร"/>
<glyph d="M123 139q4 55 4 395q0 56 -16 68q-7 5 -41 15q-19 7 -20 16q1 11 24 12q14 0 49 -1q34 -1 46 -1q10 0 41 1q41 1 59 1q24 -1 25 -13q-2 -10 -26 -17q-40 -10 -48 -19q-9 -14 -9 -77q1 -7 7 -9q3 0 19 1q42 2 64 2q115 0 171 -67q37 -45 37 -111q0 -104 -87 -157 q-54 -33 -124 -33q-49 0 -79 11q-7 0 -8 -5q0 -89 16 -102q4 -4 11 -7q24 -9 51 -14q18 -2 22 -13q1 -2 1 -3q-2 -15 -32 -15q-9 0 -39 1q-51 2 -77 2q-18 0 -57 -2q-33 -1 -47 -1q-22 1 -23 13q2 12 22 18q42 11 50 24q10 16 14 87zM420 327q0 115 -97 145q-28 9 -60 9 q-40 0 -47 -15q-5 -19 -5 -33v-227q1 -12 10 -17q28 -8 53 -8q66 0 111 49q35 41 35 97z" glyph-name="Thorn" horiz-adv-x="549" unicode="ร"/>
<glyph d="M315 714q90 0 127 -79q15 -31 15 -63q0 -56 -32 -92l-7 -7q-4 -4 -5 -6q-7 -8 -64 -60q-31 -30 -37 -43q-3 -9 -3 -18q1 -22 25 -38q59 -43 86 -65q36 -31 45 -56q6 -19 6 -44q0 -73 -74 -122q-16 -11 -33 -18q-35 -15 -62 -15q-38 0 -52 24q-4 9 -4 18q1 20 16 38 q13 8 20 4q36 -25 72 -30q55 0 63 44q1 6 1 12q0 43 -50 80q-14 11 -62 42q-61 39 -62 98q1 24 19 45q31 31 62 60q67 61 72 129q1 8 1 17q0 49 -38 81q-29 25 -70 25q-66 0 -93 -59q-10 -24 -19 -63q-12 -55 -12 -290q0 -149 5 -204q2 -23 27 -32q3 -1 4 -1q23 -9 24 -16 q-1 -12 -28 -12q-5 0 -20 1q-29 1 -50 1q-12 0 -45 -2q-25 -2 -32 -2q-24 1 -25 10q0 10 24 16q1 1 2 1q31 10 37 32q1 2 1 4q4 21 4 171q0 33 -1 75v20q-1 14 -14 17q-4 1 -18 3q-10 1 -15 2q-7 1 -4 16l3 6q6 6 22 16q10 7 15 10q11 11 12 20q0 134 65 218q6 8 12 14 q64 66 144 67z" glyph-name="germandbls" horiz-adv-x="502" unicode="ร"/>
<glyph d="M134 652q11 0 25 -32q1 -2 1 -3q40 -83 61 -146q5 -22 -4 -25q-12 1 -23 16q-48 62 -93 140q-9 16 -9 27q2 10 16 17q12 6 26 6zM208 404q58 -1 90 -47q20 -29 20 -83q0 -25 -3 -131q-1 -41 -1 -45q5 -45 40 -50q14 0 35 13q2 1 3 2q3 2 6 -2v-1q3 -3 3 -10 q0 -18 -33 -42q-29 -20 -57 -20q-43 0 -61 42q-2 4 -3 8q-1 3 -6 4q-47 -33 -90 -46q-16 -6 -40 -6q-34 0 -56 41q-13 25 -13 52q1 27 19 51q9 11 40 25q9 4 73 22q35 10 44 13q28 9 29 18q2 17 2 82q0 28 -30 51q-22 16 -48 16t-41 -11q-10 -7 -7 -41q-1 -5 -6 -11 q-18 -14 -59 -31q-4 -2 -6 -2q-9 2 -12 13q2 39 75 88q41 30 84 37q6 1 9 1zM178 42q22 1 54 17l2.5 2.5t2.5 3.5t2 4.5l2 5t1.5 4.5t1.5 3v2q2 25 2 78q-1 6 -8 8q-41 0 -103 -30q-19 -17 -20 -38q0 -42 43 -56q11 -4 20 -4z" glyph-name="agrave" horiz-adv-x="397" unicode="ร"/>
<glyph d="M235 625q11 20 24 21q30 -1 38 -8q4 -8 -5 -27q-39 -74 -89 -148q-13 -18 -26 -19q-11 1 -4 27q22 64 62 154zM208 404q58 -1 90 -47q20 -29 20 -83q0 -25 -3 -131q-1 -41 -1 -45q5 -45 40 -50q14 0 35 13q2 1 3 2q3 2 6 -2v-1q3 -3 3 -10q0 -18 -33 -42q-29 -20 -57 -20 q-43 0 -61 42q-2 4 -3 8q-1 3 -6 4q-47 -33 -90 -46q-16 -6 -40 -6q-34 0 -56 41q-13 25 -13 52q1 27 19 51q9 11 40 25q9 4 73 22q35 10 44 13q28 9 29 18q2 17 2 82q0 28 -30 51q-22 16 -48 16t-41 -11q-10 -7 -7 -41q-1 -5 -6 -11q-18 -14 -59 -31q-4 -2 -6 -2 q-9 2 -12 13q2 39 75 88q41 30 84 37q6 1 9 1zM178 42q22 1 54 17l2.5 2.5t2.5 3.5t2 4.5l2 5t1.5 4.5t1.5 3v2q2 25 2 78q-1 6 -8 8q-41 0 -103 -30q-19 -17 -20 -38q0 -42 43 -56q11 -4 20 -4z" glyph-name="aacute" horiz-adv-x="397" unicode="รก"/>
<glyph d="M190 637q10 -2 28 -38q32 -58 66 -125q12 -33 -2 -34q-11 1 -24 19q-8 11 -28 39q-28 39 -38 53q-4 5 -9 1q-37 -57 -67 -95q-11 -14 -21 -15q-8 0 -7 16q1 4 2 7q14 33 72 139q18 32 28 33zM208 404q58 -1 90 -47q20 -29 20 -83q0 -25 -3 -131q-1 -41 -1 -45 q5 -45 40 -50q14 0 35 13q2 1 3 2q3 2 6 -2v-1q3 -3 3 -10q0 -18 -33 -42q-29 -20 -57 -20q-43 0 -61 42q-2 4 -3 8q-1 3 -6 4q-47 -33 -90 -46q-16 -6 -40 -6q-34 0 -56 41q-13 25 -13 52q1 27 19 51q9 11 40 25q9 4 73 22q35 10 44 13q28 9 29 18q2 17 2 82q0 28 -30 51 q-22 16 -48 16t-41 -11q-10 -7 -7 -41q-1 -5 -6 -11q-18 -14 -59 -31q-4 -2 -6 -2q-9 2 -12 13q2 39 75 88q41 30 84 37q6 1 9 1zM178 42q22 1 54 17l2.5 2.5t2.5 3.5t2 4.5l2 5t1.5 4.5t1.5 3v2q2 25 2 78q-1 6 -8 8q-41 0 -103 -30q-19 -17 -20 -38q0 -42 43 -56 q11 -4 20 -4z" glyph-name="acircumflex" horiz-adv-x="397" unicode="รข"/>
<glyph d="M124 512q-10 -1 -30 -23q-6 -6 -10 -6t-12 14q-1 1 -1 2q0 5 25 33q20 21 39 33q8 6 15 4q32 -8 95 -9q21 1 29 6q12 10 25 25q5 5 18 -9q2 -3 3 -5q-1 -4 -3 -6l-15.5 -15.5l-29.5 -29.5l-17 -17q-6 -7 -11 -7q-6 0 -35 3q-61 7 -85 7zM208 404q58 -1 90 -47 q20 -29 20 -83q0 -25 -3 -131q-1 -41 -1 -45q5 -45 40 -50q14 0 35 13q2 1 3 2q3 2 6 -2v-1q3 -3 3 -10q0 -18 -33 -42q-29 -20 -57 -20q-43 0 -61 42q-2 4 -3 8q-1 3 -6 4q-47 -33 -90 -46q-16 -6 -40 -6q-34 0 -56 41q-13 25 -13 52q1 27 19 51q9 11 40 25q9 4 73 22 q35 10 44 13q28 9 29 18q2 17 2 82q0 28 -30 51q-22 16 -48 16t-41 -11q-10 -7 -7 -41q-1 -5 -6 -11q-18 -14 -59 -31q-4 -2 -6 -2q-9 2 -12 13q2 39 75 88q41 30 84 37q6 1 9 1zM178 42q22 1 54 17l2.5 2.5t2.5 3.5t2 4.5l2 5t1.5 4.5t1.5 3v2q2 25 2 78q-1 6 -8 8 q-41 0 -103 -30q-19 -17 -20 -38q0 -42 43 -56q11 -4 20 -4z" glyph-name="atilde" horiz-adv-x="397" unicode="รฃ"/>
<glyph d="M107 600q27 0 38 -28q3 -10 3 -18q0 -35 -32 -43q-6 -1 -11 -1q-25 0 -37 23q-5 10 -5 20q0 32 27 44q8 3 17 3zM276 599q25 0 38 -26q5 -10 5 -19q0 -28 -27 -40q-9 -4 -18 -4q-28 0 -39 25q-4 9 -4 18q0 32 30 43q8 3 15 3zM208 404q58 -1 90 -47q20 -29 20 -83 q0 -25 -3 -131q-1 -41 -1 -45q5 -45 40 -50q14 0 35 13q2 1 3 2q3 2 6 -2v-1q3 -3 3 -10q0 -18 -33 -42q-29 -20 -57 -20q-43 0 -61 42q-2 4 -3 8q-1 3 -6 4q-47 -33 -90 -46q-16 -6 -40 -6q-34 0 -56 41q-13 25 -13 52q1 27 19 51q9 11 40 25q9 4 73 22q35 10 44 13 q28 9 29 18q2 17 2 82q0 28 -30 51q-22 16 -48 16t-41 -11q-10 -7 -7 -41q-1 -5 -6 -11q-18 -14 -59 -31q-4 -2 -6 -2q-9 2 -12 13q2 39 75 88q41 30 84 37q6 1 9 1zM178 42q22 1 54 17l2.5 2.5t2.5 3.5t2 4.5l2 5t1.5 4.5t1.5 3v2q2 25 2 78q-1 6 -8 8q-41 0 -103 -30 q-19 -17 -20 -38q0 -42 43 -56q11 -4 20 -4z" glyph-name="adieresis" horiz-adv-x="397" unicode="รค"/>
<glyph d="M188 629q50 0 72 -44q9 -18 9 -37q0 -47 -39 -71q-19 -11 -42 -11q-51 0 -73 45q-8 18 -8 37q0 46 38 69q20 12 43 12zM187 599q-31 0 -41 -32q-3 -10 -3 -19q0 -41 33 -50q6 -2 12 -2q38 0 44 41q1 7 1 13q0 31 -27 45q-9 4 -19 4zM208 404q58 -1 90 -47q20 -29 20 -83 q0 -25 -3 -131q-1 -41 -1 -45q5 -45 40 -50q14 0 35 13q2 1 3 2q3 2 6 -2v-1q3 -3 3 -10q0 -18 -33 -42q-29 -20 -57 -20q-43 0 -61 42q-2 4 -3 8q-1 3 -6 4q-47 -33 -90 -46q-16 -6 -40 -6q-34 0 -56 41q-13 25 -13 52q1 27 19 51q9 11 40 25q9 4 73 22q35 10 44 13 q28 9 29 18q2 17 2 82q0 28 -30 51q-22 16 -48 16t-41 -11q-10 -7 -7 -41q-1 -5 -6 -11q-18 -14 -59 -31q-4 -2 -6 -2q-9 2 -12 13q2 39 75 88q41 30 84 37q6 1 9 1zM178 42q22 1 54 17l2.5 2.5t2.5 3.5t2 4.5l2 5t1.5 4.5t1.5 3v2q2 25 2 78q-1 6 -8 8q-41 0 -103 -30 q-19 -17 -20 -38q0 -42 43 -56q11 -4 20 -4z" glyph-name="aring" horiz-adv-x="397" unicode="รฅ"/>
<glyph d="M40 279q1 22 31 49q50 42 99 67q21 11 45 11q51 -1 88 -51q4 -2 8 0q70 51 119 51q68 0 96 -61q12 -25 12 -50q0 -13 -14 -21q-3 -1 -4 -2q-107 -30 -192 -56q-8 -4 -9 -12q0 -93 10 -113q3 -6 8 -12q24 -30 84 -30q45 0 94 35q7 5 10 7q11 5 15 -1q-1 -14 -7 -24 q-34 -51 -101 -71q-26 -7 -51 -7q-78 1 -116 58q-6 4 -9 3q-84 -60 -122 -61q-39 0 -68 37q-22 28 -22 64q0 52 59 74q3 1 5 2q16 5 55 19q44 17 62 22q23 11 24 21q0 89 -1 95q-3 8 -7 13q-27 25 -66 25q-22 0 -37 -12q-9 -8 -8 -19q1 -21 -3 -25l-48 -29q-19 -9 -27 -9 q-9 3 -12 13zM394 365q-33 0 -63 -27q-12 -12 -12 -32v-60q0 -3 6 -4h2q76 19 111 35q24 11 24 33q0 30 -27 45q-17 10 -41 10zM179 42q30 0 55 23q7 7 11 13q4 12 4 28v70q0 4 -7 5q-4 1 -7 0q-84 -28 -103 -46q-13 -14 -13 -32q0 -41 36 -56q12 -5 24 -5z" glyph-name="ae" horiz-adv-x="562" unicode="รฆ"/>
<glyph d="M255 404q72 0 105 -25q14 -11 14 -31q0 -14 -19 -29q-9 -7 -16 -7t-31 18q-7 5 -12 9q-37 26 -67 28h-12q-30 0 -58 -27l-7 -7q-42 -50 -42 -118q0 -101 73 -144q36 -21 80 -21q56 2 95 34q9 4 12 -6q-1 -19 -13 -30q-40 -41 -97 -54q-3 -4 -5.5 -7.5l-5 -7t-5 -6.5 t-4.5 -5.5l-4 -5t-3.5 -4.5t-2.5 -3t-2 -3l-1 -1q-1 -7 6 -12q45 -23 56 -42q8 -15 8 -33q-1 -42 -49 -82q-40 -31 -69 -31q-16 1 -24 14q-7 15 -1 30q8 9 14 8q30 -6 40 -6q29 0 35 29q1 5 1 9q0 31 -34 43q-11 4 -22 4t-17 -1q-8 0 -14 12q-1 2 -1 3q1 6 6 13q23 30 63 79 h-9q-95 0 -151 76q-2 3 -3 5q-30 52 -30 115q1 111 99 178q60 37 124 42z" glyph-name="ccedilla" horiz-adv-x="392" unicode="รง"/>
<glyph d="M157 652q11 0 25 -32q1 -2 1 -3q40 -83 61 -146q5 -22 -4 -25q-12 1 -23 16q-48 62 -93 140q-9 16 -9 27q2 10 16 17q12 6 26 6zM229 403q61 -1 99 -38q35 -34 35 -84q0 -11 -12 -16q-4 -1 -7 -1q-181 0 -228 1q-5 -1 -8 -8q-5 -14 -5 -35q0 -61 36 -111q1 -2 2 -3 q34 -47 96 -54q8 -1 16 -1q66 1 91 36q8 11 13 12q7 -1 8 -12q0 -12 -7 -24q-52 -74 -145 -75q-99 0 -149 80q-31 51 -31 119q0 97 67 160q24 22 53 36q39 18 76 18zM219 377q-62 0 -94 -58q-4 -8 -7 -16t4 -11q45 -2 129 0q30 0 33 17q1 4 1 8q0 30 -32 50q-16 10 -34 10z " glyph-name="egrave" horiz-adv-x="392" unicode="รจ"/>
<glyph d="M252 625q11 20 24 21q30 -1 38 -8q4 -8 -5 -27q-39 -74 -89 -148q-13 -18 -26 -19q-11 1 -4 27q22 64 62 154zM229 403q61 -1 99 -38q35 -34 35 -84q0 -11 -12 -16q-4 -1 -7 -1q-181 0 -228 1q-5 -1 -8 -8q-5 -14 -5 -35q0 -61 36 -111q1 -2 2 -3q34 -47 96 -54 q8 -1 16 -1q66 1 91 36q8 11 13 12q7 -1 8 -12q0 -12 -7 -24q-52 -74 -145 -75q-99 0 -149 80q-31 51 -31 119q0 97 67 160q24 22 53 36q39 18 76 18zM219 377q-62 0 -94 -58q-4 -8 -7 -16t4 -11q45 -2 129 0q30 0 33 17q1 4 1 8q0 30 -32 50q-16 10 -34 10z" glyph-name="eacute" horiz-adv-x="392" unicode="รฉ"/>
<glyph d="M211 641q10 -2 28 -38q32 -58 66 -125q12 -33 -2 -34q-11 1 -24 19q-8 11 -28 39q-28 39 -38 53q-4 5 -9 1q-37 -57 -67 -95q-11 -14 -21 -15q-8 0 -7 16q1 4 2 7q14 33 72 139q18 32 28 33zM229 403q61 -1 99 -38q35 -34 35 -84q0 -11 -12 -16q-4 -1 -7 -1 q-181 0 -228 1q-5 -1 -8 -8q-5 -14 -5 -35q0 -61 36 -111q1 -2 2 -3q34 -47 96 -54q8 -1 16 -1q66 1 91 36q8 11 13 12q7 -1 8 -12q0 -12 -7 -24q-52 -74 -145 -75q-99 0 -149 80q-31 51 -31 119q0 97 67 160q24 22 53 36q39 18 76 18zM219 377q-62 0 -94 -58q-4 -8 -7 -16 t4 -11q45 -2 129 0q30 0 33 17q1 4 1 8q0 30 -32 50q-16 10 -34 10z" glyph-name="ecircumflex" horiz-adv-x="392" unicode="รช"/>
<glyph d="M130 600q27 0 38 -28q3 -10 3 -18q0 -35 -32 -43q-6 -1 -11 -1q-25 0 -37 23q-5 10 -5 20q0 32 27 44q8 3 17 3zM299 599q25 0 38 -26q5 -10 5 -19q0 -28 -27 -40q-9 -4 -18 -4q-28 0 -39 25q-4 9 -4 18q0 32 30 43q8 3 15 3zM229 403q61 -1 99 -38q35 -34 35 -84 q0 -11 -12 -16q-4 -1 -7 -1q-181 0 -228 1q-5 -1 -8 -8q-5 -14 -5 -35q0 -61 36 -111q1 -2 2 -3q34 -47 96 -54q8 -1 16 -1q66 1 91 36q8 11 13 12q7 -1 8 -12q0 -12 -7 -24q-52 -74 -145 -75q-99 0 -149 80q-31 51 -31 119q0 97 67 160q24 22 53 36q39 18 76 18zM219 377 q-62 0 -94 -58q-4 -8 -7 -16t4 -11q45 -2 129 0q30 0 33 17q1 4 1 8q0 30 -32 50q-16 10 -34 10z" glyph-name="edieresis" horiz-adv-x="392" unicode="รซ"/>
<glyph d="M60 652q11 0 25 -32q1 -2 1 -3q40 -83 61 -146q5 -22 -4 -25q-12 1 -23 16q-48 62 -93 140q-9 16 -9 27q2 10 16 17q12 6 26 6zM45 359q2 11 20 15q15 3 89 31q7 2 10 3q1 0 3 -1.5t3 -3.5l2 -4l1 -2q0 -3 -1 -38q-5 -120 -5 -160q0 -64 2 -133q1 -26 27 -35q3 -2 12 -4 l9 -3q21 -8 22 -17q-1 -9 -23 -10q-3 0 -21 1q-44 2 -57 2q-19 0 -56 -2q-22 -2 -29 -2q-25 1 -26 11q0 9 22 15q1 1 2 1q35 10 40 28q4 19 4 103q0 149 -1 156q-1 9 -37 34q-1 2 -2 2q-10 7 -10 13z" glyph-name="igrave" horiz-adv-x="253" unicode="รฌ"/>
<glyph d="M162 625q11 20 24 21q30 -1 38 -8q4 -8 -5 -27q-39 -74 -89 -148q-13 -18 -26 -19q-11 1 -4 27q22 64 62 154zM45 359q2 11 20 15q15 3 89 31q7 2 10 3q1 0 3 -1.5t3 -3.5l2 -4l1 -2q0 -3 -1 -38q-5 -120 -5 -160q0 -64 2 -133q1 -26 27 -35q3 -2 12 -4l9 -3 q21 -8 22 -17q-1 -9 -23 -10q-3 0 -21 1q-44 2 -57 2q-19 0 -56 -2q-22 -2 -29 -2q-25 1 -26 11q0 9 22 15q1 1 2 1q35 10 40 28q4 19 4 103q0 149 -1 156q-1 9 -37 34q-1 2 -2 2q-10 7 -10 13z" glyph-name="iacute" horiz-adv-x="253" unicode="รญ"/>
<glyph d="M129 641q10 -2 28 -38q32 -58 66 -125q12 -33 -2 -34q-11 1 -24 19q-8 11 -28 39q-28 39 -38 53q-4 5 -9 1q-37 -57 -67 -95q-11 -14 -21 -15q-8 0 -7 16q1 4 2 7q14 33 72 139q18 32 28 33zM45 359q2 11 20 15q15 3 89 31q7 2 10 3q1 0 3 -1.5t3 -3.5l2 -4l1 -2 q0 -3 -1 -38q-5 -120 -5 -160q0 -64 2 -133q1 -26 27 -35q3 -2 12 -4l9 -3q21 -8 22 -17q-1 -9 -23 -10q-3 0 -21 1q-44 2 -57 2q-19 0 -56 -2q-22 -2 -29 -2q-25 1 -26 11q0 9 22 15q1 1 2 1q35 10 40 28q4 19 4 103q0 149 -1 156q-1 9 -37 34q-1 2 -2 2q-10 7 -10 13z" glyph-name="icircumflex" horiz-adv-x="253" unicode="รฎ"/>
<glyph d="M46 600q27 0 38 -28q3 -10 3 -18q0 -35 -32 -43q-6 -1 -11 -1q-25 0 -37 23q-5 10 -5 20q0 32 27 44q8 3 17 3zM215 599q25 0 38 -26q5 -10 5 -19q0 -28 -27 -40q-9 -4 -18 -4q-28 0 -39 25q-4 9 -4 18q0 32 30 43q8 3 15 3zM45 359q2 11 20 15q15 3 89 31q7 2 10 3 q1 0 3 -1.5t3 -3.5l2 -4l1 -2q0 -3 -1 -38q-5 -120 -5 -160q0 -64 2 -133q1 -26 27 -35q3 -2 12 -4l9 -3q21 -8 22 -17q-1 -9 -23 -10q-3 0 -21 1q-44 2 -57 2q-19 0 -56 -2q-22 -2 -29 -2q-25 1 -26 11q0 9 22 15q1 1 2 1q35 10 40 28q4 19 4 103q0 149 -1 156q-1 9 -37 34 q-1 2 -2 2q-10 7 -10 13z" glyph-name="idieresis" horiz-adv-x="253" unicode="รฏ"/>
<glyph d="M64 700q5 11 19 14q68 0 167 -65q27 -17 48 -35q6 -4 13 -1q17 9 47 25q36 19 54 28q6 4 9 -4q1 -2 1 -3q1 -13 -1 -21q-4 -9 -13 -14q-54 -28 -71 -38q-5 -5 -1 -10q103 -128 103 -318q-1 -161 -95 -233q-51 -37 -107 -37q-98 0 -158 72q-47 57 -47 136q0 61 35 115 q43 64 130 86q31 8 63 8q39 0 76 -16q8 -3 10 3v3q-17 85 -64 149q-6 6 -13 4q-98 -45 -129 -61q-8 -5 -11 4q-1 1 -1 2q-1 10 0 17q3 6 8 9q11 6 108 56q4 4 3 8q-69 70 -151 99q-8 2 -15 4q-15 4 -17 14zM241 371q-57 -1 -88 -47q-33 -48 -35 -115v-11q0 -72 44 -129 q39 -48 91 -49q41 0 72 50q3 5 6 9q30 56 30 143q0 71 -28 103q-45 45 -92 46z" glyph-name="eth" horiz-adv-x="480" unicode="รฐ"/>
<glyph d="M189 513q-10 -1 -30 -23q-6 -6 -10 -6t-12 14q-1 1 -1 2q0 5 25 33q20 21 39 33q8 6 15 4q32 -8 95 -9q21 1 29 6q12 10 25 25q5 5 18 -9q2 -3 3 -5q-1 -4 -3 -6l-15.5 -15.5l-30.5 -30.5l-16 -16q-6 -7 -11 -7q-6 0 -35 3q-61 7 -85 7zM53 356q0 10 16 19q1 1 2 1 q52 18 67 29q18 11 24 11q7 -2 10 -15q0 -10 -2 -32q-2 -14 -2 -18t5 -3h1q82 54 134 55q58 -1 91 -38q35 -42 35 -122q0 -136 3 -182q5 -25 37 -35q24 -7 25 -17q-2 -11 -30 -11q-11 0 -33 1q-27 1 -41 1q-15 0 -45 -1q-19 -1 -24 -1q-21 1 -23 12q2 9 23 17q23 9 28 25 q2 10 3 25q3 49 3 183q0 45 -26 71q-3 2 -4 3q-28 17 -64 19q-53 -1 -89 -32q-9 -10 -10 -24q0 -226 1 -240q1 -17 20 -25q8 -3 17 -6q17 -6 18 -15q-2 -11 -25 -12h-23q-26 1 -38 1q-22 0 -57 -2q-19 -1 -26 -1q-25 1 -26 13q2 9 21 15q31 9 37 28q3 11 5 28q5 51 5 219 q-2 20 -24 39q-18 13 -19 17z" glyph-name="ntilde" horiz-adv-x="521" unicode="รฑ"/>
<glyph d="M184 654q11 0 25 -32q1 -2 1 -3q40 -83 61 -146q5 -22 -4 -25q-12 1 -23 16q-48 62 -93 140q-9 16 -9 27q2 10 16 17q12 6 26 6zM250 404q86 0 146 -63q54 -59 54 -141q0 -86 -61 -150q-13 -14 -26 -22q-56 -40 -124 -40q-71 1 -133 52q-50 40 -68 112q-6 22 -6 41 q1 97 70 156q64 55 148 55zM231 374q-32 -1 -65 -29q-37 -34 -47 -100q-2 -15 -2 -28q0 -52 12 -89q26 -78 90 -103q21 -8 40 -8q29 1 61 33q31 34 42 103q3 16 3 29q-1 95 -50 153q-39 34 -84 39z" glyph-name="ograve" horiz-adv-x="482" unicode="รฒ"/>
<glyph d="M275 625q11 20 24 21q30 -1 38 -8q4 -8 -5 -27q-39 -74 -89 -148q-13 -18 -26 -19q-11 1 -4 27q22 64 62 154zM250 404q86 0 146 -63q54 -59 54 -141q0 -86 -61 -150q-13 -14 -26 -22q-56 -40 -124 -40q-71 1 -133 52q-50 40 -68 112q-6 22 -6 41q1 97 70 156 q64 55 148 55zM231 374q-32 -1 -65 -29q-37 -34 -47 -100q-2 -15 -2 -28q0 -52 12 -89q26 -78 90 -103q21 -8 40 -8q29 1 61 33q31 34 42 103q3 16 3 29q-1 95 -50 153q-39 34 -84 39z" glyph-name="oacute" horiz-adv-x="482" unicode="รณ"/>
<glyph d="M240 641q10 -2 28 -38q32 -58 66 -125q12 -33 -2 -34q-11 1 -24 19q-8 11 -28 39q-28 39 -38 53q-4 5 -9 1q-37 -57 -67 -95q-11 -14 -21 -15q-8 0 -7 16q1 4 2 7q14 33 72 139q18 32 28 33zM250 404q86 0 146 -63q54 -59 54 -141q0 -86 -61 -150q-13 -14 -26 -22 q-56 -40 -124 -40q-71 1 -133 52q-50 40 -68 112q-6 22 -6 41q1 97 70 156q64 55 148 55zM231 374q-32 -1 -65 -29q-37 -34 -47 -100q-2 -15 -2 -28q0 -52 12 -89q26 -78 90 -103q21 -8 40 -8q29 1 61 33q31 34 42 103q3 16 3 29q-1 95 -50 153q-39 34 -84 39z" glyph-name="ocircumflex" horiz-adv-x="482" unicode="รด"/>
<glyph d="M169 506q-10 -1 -30 -23q-6 -6 -10 -6t-12 14q-1 1 -1 2q0 5 25 33q20 21 39 33q8 6 15 4q32 -8 95 -9q21 1 29 6q12 10 25 25q5 5 18 -9q2 -3 3 -5q-1 -4 -3 -6l-15.5 -15.5t-30.5 -29.5l-16 -17q-6 -7 -11 -7q-6 0 -35 3q-61 7 -85 7zM250 404q86 0 146 -63 q54 -59 54 -141q0 -86 -61 -150q-13 -14 -26 -22q-56 -40 -124 -40q-71 1 -133 52q-50 40 -68 112q-6 22 -6 41q1 97 70 156q64 55 148 55zM231 374q-32 -1 -65 -29q-37 -34 -47 -100q-2 -15 -2 -28q0 -52 12 -89q26 -78 90 -103q21 -8 40 -8q29 1 61 33q31 34 42 103 q3 16 3 29q-1 95 -50 153q-39 34 -84 39z" glyph-name="otilde" horiz-adv-x="482" unicode="รต"/>
<glyph d="M159 600q27 0 38 -28q3 -10 3 -18q0 -35 -32 -43q-6 -1 -11 -1q-25 0 -37 23q-5 10 -5 20q0 32 27 44q8 3 17 3zM328 599q25 0 38 -26q5 -10 5 -19q0 -28 -27 -40q-9 -4 -18 -4q-28 0 -39 25q-4 9 -4 18q0 32 30 43q8 3 15 3zM250 404q86 0 146 -63q54 -59 54 -141 q0 -86 -61 -150q-13 -14 -26 -22q-56 -40 -124 -40q-71 1 -133 52q-50 40 -68 112q-6 22 -6 41q1 97 70 156q64 55 148 55zM231 374q-32 -1 -65 -29q-37 -34 -47 -100q-2 -15 -2 -28q0 -52 12 -89q26 -78 90 -103q21 -8 40 -8q29 1 61 33q31 34 42 103q3 16 3 29 q-1 95 -50 153q-39 34 -84 39z" glyph-name="odieresis" horiz-adv-x="482" unicode="รถ"/>
<glyph d="M311 139q32 0 46 -30q5 -11 5 -21q0 -37 -30 -51q-11 -4 -21 -4q-35 0 -49 33q-4 11 -4 22q0 31 30 46q11 5 23 5zM311 364q-29 0 -45 28q-6 12 -6 24q0 32 29 48q11 6 22 6q35 0 49 -33q4 -10 4 -21q0 -34 -31 -47q-11 -5 -22 -5zM548 280q14 -4 15 -12q-2 -34 -14 -40 h-468q-19 0 -20 7q-1 4 -1 8q0 25 11 35q3 2 4 2h473z" glyph-name="divide" horiz-adv-x="624" unicode="รท"/>
<glyph d="M252 404q48 -1 94 -25q5 -3 9 0l26 31q9 8 14 9q9 0 15 -12q1 -5 0 -7q-6 -8 -13 -18q-9 -11 -15 -21q-1 -4 2 -9q66 -63 66 -159q0 -73 -55 -137q-17 -20 -32 -30q-53 -38 -124 -38q-50 1 -103 31q-8 3 -11 0l-34 -41q-4 -3 -9 -1q-17 12 -11 20q19 25 31 39q2 3 -4 10 q-62 67 -66 144q0 97 66 156q2 1 3 2q65 56 151 56zM168 62q45 -44 87 -45q37 1 67 32q32 36 43 107q2 17 2 30q-1 62 -23 108q-4 6 -9 5q-26 -34 -79 -105q-59 -80 -89 -118q-4 -6 1 -14zM230 374q-36 -1 -64 -26q-35 -32 -47 -95q-4 -19 -4 -36q0 -72 25 -113q3 -5 8 -4 q1 2 2 2q59 76 167 224q2 3 -2 9l-1 2q-40 37 -84 37z" glyph-name="oslash" horiz-adv-x="482" unicode="รธ"/>
<glyph d="M180 652q11 0 25 -32q1 -2 1 -3q40 -83 61 -146q5 -22 -4 -25q-12 1 -23 16q-48 62 -93 140q-9 16 -9 27q2 10 16 17q12 6 26 6zM246 38q37 1 76 35q12 11 15 24l2 230q0 9 -13 20q-3 1 -4 2q-40 11 -46 12q-18 6 -20 16q4 7 23 9q65 0 107 11q14 4 24 4q6 -1 7 -15 q-8 -105 -10 -310v-22q0 -8 7 -13q3 -1 5 -1q3 0 19 2q24 3 31 3q5 -1 12 -19q0 -5 -9 -9q-1 -1 -2 -1q-26 -2 -90 -19h-1q-4 -1 -8.5 -2.5t-8 -2.5t-6.5 -1.5t-5.5 -1t-4.5 -1.5h-2q-8 3 -10 14q0 3 1 15l3 27q-1 7 -5 7q-63 -43 -82 -51q-30 -12 -67 -12q-58 1 -88 47 q-14 22 -14 47q0 185 -2 238q-1 24 -26 35q-2 0 -5 2q-4 1 -6 2q-17 9 -18 18q2 8 17 9q20 0 89 9q5 1 7 1t4.5 0.5t3.5 0.5h2q7 -1 8 -15q1 -20 -2 -163q-1 -87 -1 -105q1 -37 25 -56q30 -20 68 -20z" glyph-name="ugrave" horiz-adv-x="498" unicode="รน"/>
<glyph d="M271 626q11 20 24 21q30 -1 38 -8q4 -8 -5 -27q-39 -74 -89 -148q-13 -18 -26 -19q-11 1 -4 27q22 64 62 154zM246 38q37 1 76 35q12 11 15 24l2 230q0 9 -13 20q-3 1 -4 2q-40 11 -46 12q-18 6 -20 16q4 7 23 9q65 0 107 11q14 4 24 4q6 -1 7 -15q-8 -105 -10 -310v-22 q0 -8 7 -13q3 -1 5 -1q3 0 19 2q24 3 31 3q5 -1 12 -19q0 -5 -9 -9q-1 -1 -2 -1q-26 -2 -90 -19h-1q-4 -1 -8.5 -2.5t-8 -2.5t-6.5 -1.5t-5.5 -1t-4.5 -1.5h-2q-8 3 -10 14q0 3 1 15l3 27q-1 7 -5 7q-63 -43 -82 -51q-30 -12 -67 -12q-58 1 -88 47q-14 22 -14 47 q0 185 -2 238q-1 24 -26 35q-2 0 -5 2q-4 1 -6 2q-17 9 -18 18q2 8 17 9q20 0 89 9q5 1 7 1t4.5 0.5t3.5 0.5h2q7 -1 8 -15q1 -20 -2 -163q-1 -87 -1 -105q1 -37 25 -56q30 -20 68 -20z" glyph-name="uacute" horiz-adv-x="498" unicode="รบ"/>
<glyph d="M240 641q10 -2 28 -38q32 -58 66 -125q12 -33 -2 -34q-11 1 -24 19q-8 11 -28 39q-28 39 -38 53q-4 5 -9 1q-37 -57 -67 -95q-11 -14 -21 -15q-8 0 -7 16q1 4 2 7q14 33 72 139q18 32 28 33zM246 38q37 1 76 35q12 11 15 24l2 230q0 9 -13 20q-3 1 -4 2q-40 11 -46 12 q-18 6 -20 16q4 7 23 9q65 0 107 11q14 4 24 4q6 -1 7 -15q-8 -105 -10 -310v-22q0 -8 7 -13q3 -1 5 -1q3 0 19 2q24 3 31 3q5 -1 12 -19q0 -5 -9 -9q-1 -1 -2 -1q-26 -2 -90 -19h-1q-4 -1 -8.5 -2.5t-8 -2.5t-6.5 -1.5t-5.5 -1t-4.5 -1.5h-2q-8 3 -10 14q0 3 1 15l3 27 q-1 7 -5 7q-63 -43 -82 -51q-30 -12 -67 -12q-58 1 -88 47q-14 22 -14 47q0 185 -2 238q-1 24 -26 35q-2 0 -5 2q-4 1 -6 2q-17 9 -18 18q2 8 17 9q20 0 89 9q5 1 7 1t4.5 0.5t3.5 0.5h2q7 -1 8 -15q1 -20 -2 -163q-1 -87 -1 -105q1 -37 25 -56q30 -20 68 -20z" glyph-name="ucircumflex" horiz-adv-x="498" unicode="รป"/>
<glyph d="M152 600q27 0 38 -28q3 -10 3 -18q0 -35 -32 -43q-6 -1 -11 -1q-25 0 -37 23q-5 10 -5 20q0 32 27 44q8 3 17 3zM321 599q25 0 38 -26q5 -10 5 -19q0 -28 -27 -40q-9 -4 -18 -4q-28 0 -39 25q-4 9 -4 18q0 32 30 43q8 3 15 3zM246 38q37 1 76 35q12 11 15 24l2 230 q0 9 -13 20q-3 1 -4 2q-40 11 -46 12q-18 6 -20 16q4 7 23 9q65 0 107 11q14 4 24 4q6 -1 7 -15q-8 -105 -10 -310v-22q0 -8 7 -13q3 -1 5 -1q3 0 19 2q24 3 31 3q5 -1 12 -19q0 -5 -9 -9q-1 -1 -2 -1q-26 -2 -90 -19h-1q-4 -1 -8.5 -2.5t-8 -2.5t-6.5 -1.5t-5.5 -1 t-4.5 -1.5h-2q-8 3 -10 14q0 3 1 15l3 27q-1 7 -5 7q-63 -43 -82 -51q-30 -12 -67 -12q-58 1 -88 47q-14 22 -14 47q0 185 -2 238q-1 24 -26 35q-2 0 -5 2q-4 1 -6 2q-17 9 -18 18q2 8 17 9q20 0 89 9q5 1 7 1t4.5 0.5t3.5 0.5h2q7 -1 8 -15q1 -20 -2 -163q-1 -87 -1 -105 q1 -37 25 -56q30 -20 68 -20z" glyph-name="udieresis" horiz-adv-x="498" unicode="รผ"/>
<glyph d="M264 625q11 20 24 21q30 -1 38 -8q4 -8 -5 -27q-39 -74 -89 -148q-13 -18 -26 -19q-11 1 -4 27q22 64 62 154zM-5 381q3 11 24 12q12 0 36 -2q27 -2 42 -2q17 0 49 1q16 1 21 1q20 -1 22 -11q0 -11 -21 -16q-1 -1 -2 -1q-26 -7 -26 -18q0 -8 5 -21q23 -75 78 -198l9 -18 q3 -3 8 4l79 203v1q10 30 -15 42q-9 4 -23 7q-19 5 -21 14q1 12 25 12q10 0 35 -1q18 -1 24 -1t22 2q26 2 41 2q19 -1 20 -9q-2 -10 -22 -17q-28 -9 -46 -45q-2 -4 -3 -7q-46 -104 -110 -266q-21 -54 -63 -169q-28 -76 -41 -110q-6 -21 -38 -27q-7 -1 -14 -1q-37 0 -44 38 q-1 6 -1 11q0 24 22 38q11 6 22 6h13q17 -1 23 -1q8 0 14 14v1l1 2q16 29 45 120l3 9q6 29 3 36q-1 3 -15 41q-41 116 -107 255q-4 8 -7 15q-11 23 -28 31q-8 4 -19 8q-19 8 -20 15z" glyph-name="yacute" horiz-adv-x="414" unicode="รฝ"/>
<glyph d="M71 75v206q0 235 -4 333q0 4 -0.5 7.5t-1 5.5t-1.5 3.5t-2 2.5v1q-10 7 -24 17q-16 11 -17 15q0 6 16 15q2 1 3 1q5 2 22 6q42 10 54 17q18 9 21 9q7 0 11 -9q1 -2 1 -3q-1 -4 -4 -330v-5q0 -5 5 -6q2 1 3 1q25 14 65 29q29 10 69 10q54 0 103 -46l9 -9q45 -59 48 -131 q0 -81 -55 -143q-14 -16 -31 -29q-65 -50 -154 -50q-35 0 -53 3q-5 0 -9 -9q-1 -3 -1 -4q0 -138 3 -166q3 -30 26 -42q9 -5 21 -9q28 -8 29 -17q-3 -12 -26 -13q-10 0 -45 2q-53 3 -74 3q-11 0 -28 -1q-21 -1 -37 -1q-28 1 -29 14q0 8 18 14q4 1 6 1q41 10 49 24t11 66 q3 51 3 217zM236 353q-59 0 -77 -13q-9 -9 -12 -30q-8 -49 -4 -165q1 -10 1 -17q4 -31 12 -44q31 -43 82 -56q10 -3 17 -3q26 1 45 17q52 43 65 125q2 12 2 21q-1 76 -41 121q-33 34 -78 43q-7 1 -12 1z" glyph-name="thorn" horiz-adv-x="478" unicode="รพ"/>
</font>
</defs>
</svg>
