<?xml version="1.0" encoding="utf-8"?>
<!-- Generator: Adobe Illustrator 26.0.3, SVG Export Plug-In . SVG Version: 6.00 Build 0)  -->
<svg version="1.1" id="Слой_1" focusable="false"
	 xmlns="http://www.w3.org/2000/svg" xmlns:xlink="http://www.w3.org/1999/xlink" x="0px" y="0px" viewBox="0 0 512 512"
	 style="enable-background:new 0 0 512 512;" xml:space="preserve">
<style type="text/css">
	.st0{fill:#C09C4C;}
</style>
<path class="st0" d="M32,448c0,17.7,14.3,32,32,32h160V320H32V448z M288,480h160c17.7,0,32-14.3,32-32V320H288V480z M480,160h-42.1
	c6.2-12.1,10.1-25.5,10.1-40c0-48.5-39.5-88-88-88c-41.6,0-68.5,21.3-103,68.3C222.5,53.3,195.6,32,154,32c-48.5,0-88,39.5-88,88
	c0,14.5,3.8,27.9,10.1,40H32c-17.7,0-32,14.3-32,32v80c0,8.8,7.2,16,16,16h480c8.8,0,16-7.2,16-16v-80C512,174.3,497.7,160,480,160z
	 M153.9,160c-22.1,0-40-17.9-40-40s17.9-40,40-40c19.9,0,34.6,3.3,86.1,80H153.9z M360,160h-86.1c51.4-76.5,65.7-80,86.1-80
	c22.1,0,40,17.9,40,40S382.1,160,360,160z"/>
</svg>
