<svg xmlns="http://www.w3.org/2000/svg" viewBox="0 0 29.5 25"><defs><style>.a879d513-ea58-4c47-bd4f-4eedd42cad74{fill:#c09c4c;}</style></defs><title>m-bal</title><g id="a7b9ae8c-9d83-42e7-bad7-6ea4393f86ad" data-name="Capa 2"><g id="e260ab75-8614-4a1e-aba7-8a12cb99c3bb" data-name="Capa 1"><polygon class="a879d513-ea58-4c47-bd4f-4eedd42cad74" points="21.7 6.5 16.2 24 29.5 6.5 21.7 6.5"/><polygon class="a879d513-ea58-4c47-bd4f-4eedd42cad74" points="4.2 0.4 0 5.4 7.2 5.4 4.2 0.4"/><polygon class="a879d513-ea58-4c47-bd4f-4eedd42cad74" points="25.2 0.4 22.2 5.4 29.4 5.4 25.2 0.4"/><polygon class="a879d513-ea58-4c47-bd4f-4eedd42cad74" points="7.8 6.5 0 6.5 13.3 24 7.8 6.5"/><polygon class="a879d513-ea58-4c47-bd4f-4eedd42cad74" points="16 0 21.2 5.1 24.2 0 16 0"/><polygon class="a879d513-ea58-4c47-bd4f-4eedd42cad74" points="5.3 0 8.3 5.1 13.4 0 5.3 0"/><polygon class="a879d513-ea58-4c47-bd4f-4eedd42cad74" points="8.9 6.5 14.7 25 20.5 6.5 8.9 6.5"/><polygon class="a879d513-ea58-4c47-bd4f-4eedd42cad74" points="14.7 0.2 9.5 5.4 20 5.4 14.7 0.2"/></g></g></svg>