<svg xmlns="http://www.w3.org/2000/svg" viewBox="0 0 24.95 25"><defs><style>.f3264bb1-cd9e-48a7-867a-f0f8084a9474{fill:#c09c4c;}</style></defs><title>m-dash</title><g id="a06e4de4-0283-469f-b3bd-e05439bc6085" data-name="Capa 2"><g id="ab64dce3-cbac-43fc-9d0e-312d2b7eb830" data-name="Layer 1"><path class="f3264bb1-cd9e-48a7-867a-f0f8084a9474" d="M24.27,10.9h0L14.08.7a2.36,2.36,0,0,0-1.6-.7,2,2,0,0,0-1.61.7L.68,10.9h0a2.22,2.22,0,0,0,0,3.2,2.63,2.63,0,0,0,1.5.7h.5v7.5A2.68,2.68,0,0,0,5.37,25h4a.68.68,0,0,0,.7-.7V18.4a1.22,1.22,0,0,1,1.2-1.2h2.4a1.22,1.22,0,0,1,1.2,1.2v5.9a.69.69,0,0,0,.71.7h4a2.69,2.69,0,0,0,2.7-2.7V14.8h.4a2,2,0,0,0,1.6-.7A2.23,2.23,0,0,0,24.27,10.9Z"/></g></g></svg>