<svg xmlns="http://www.w3.org/2000/svg" viewBox="0 0 24.94 24.9"><defs><style>.f3b34a1f-9f00-40de-9679-24ffae91b5b2{fill:#c09c4c;}</style></defs><title>m-set</title><g id="ff494a4e-bc6f-47eb-bb2f-4c450edd6bd1" data-name="Capa 2"><g id="f6323c77-9dc4-435e-84ea-3040dd1f67d5" data-name="Layer 1"><path class="f3b34a1f-9f00-40de-9679-24ffae91b5b2" d="M23.7,9.8l-2-.2c-.2-.5-.4-1-.6-1.4l1.2-1.6a1.66,1.66,0,0,0-.1-2.1L20.6,2.9a1.53,1.53,0,0,0-2.1-.1L16.9,4c-.5-.2-.9-.4-1.4-.6l-.2-2A1.6,1.6,0,0,0,13.8,0H11.5A1.45,1.45,0,0,0,10,1.4l-.2,2c-.5.2-1,.4-1.4.6L6.7,2.7a1.65,1.65,0,0,0-2.1.1L3,4.5a1.43,1.43,0,0,0-.2,2L4,8.1c-.2.5-.4.9-.6,1.4l-2,.2A1.6,1.6,0,0,0,0,11.2v2.4a1.45,1.45,0,0,0,1.4,1.5l2,.2c.2.5.4,1,.6,1.4L2.8,18.3a1.66,1.66,0,0,0,.1,2.1L4.5,22a1.53,1.53,0,0,0,2.1.1l1.6-1.2c.5.2.9.4,1.4.6l.2,2a1.6,1.6,0,0,0,1.5,1.4h2.3a1.45,1.45,0,0,0,1.5-1.4l.2-2c.5-.2,1-.4,1.4-.6l1.6,1.2a1.66,1.66,0,0,0,2.1-.1L22,20.4a1.53,1.53,0,0,0,.1-2.1l-1.2-1.6c.2-.5.4-.9.6-1.4l2-.2a1.6,1.6,0,0,0,1.4-1.5V11.3a1.24,1.24,0,0,0-1.2-1.5ZM12.6,17.7a5.2,5.2,0,1,1,5.2-5.2,5.16,5.16,0,0,1-5.2,5.2Z"/></g></g></svg>