<svg xmlns="http://www.w3.org/2000/svg" viewBox="0 0 22 25.1"><defs><style>.fc28770f-cde3-4904-8e89-e8a3d290cd89{fill:#c09c4c;}</style></defs><title>m-supp</title><g id="a3d70b14-8dc4-432d-85a2-92dc4936ca7b" data-name="Capa 2"><g id="a888dbe8-eff3-4c98-b966-ba5f2b1367a8" data-name="Capa 1"><path class="fc28770f-cde3-4904-8e89-e8a3d290cd89" d="M5.1,10.3a2.22,2.22,0,0,0-2.2,2.2v6a2.2,2.2,0,0,0,4.4,0v-6A2.22,2.22,0,0,0,5.1,10.3Z"/><path class="fc28770f-cde3-4904-8e89-e8a3d290cd89" d="M1.4,12.5a1.27,1.27,0,0,1,.1-.6A2.16,2.16,0,0,0,0,14v3a2.16,2.16,0,0,0,1.5,2.1c0-.2-.1-.4-.1-.6Z"/><path class="fc28770f-cde3-4904-8e89-e8a3d290cd89" d="M16.8,10.3a2.22,2.22,0,0,0-2.2,2.2v6a2.22,2.22,0,0,0,2.2,2.2,1.27,1.27,0,0,0,.6-.1,2.25,2.25,0,0,1-2.1,1.6H13a2.16,2.16,0,0,0-2.1-1.5,2.2,2.2,0,1,0,0,4.4A2.16,2.16,0,0,0,13,23.6h2.3A3.69,3.69,0,0,0,19,19.9V12.4A2.2,2.2,0,0,0,16.8,10.3Z"/><path class="fc28770f-cde3-4904-8e89-e8a3d290cd89" d="M20.4,11.9c0,.2.1.4.1.6v6a1.27,1.27,0,0,1-.1.6A2.16,2.16,0,0,0,21.9,17V14A2,2,0,0,0,20.4,11.9Z"/><path class="fc28770f-cde3-4904-8e89-e8a3d290cd89" d="M11,0A11,11,0,0,0,0,11H0a5.23,5.23,0,0,1,1.5-.7,9.52,9.52,0,0,1,19,.1,3.48,3.48,0,0,1,1.5.7h0A11.12,11.12,0,0,0,11,0Z"/></g></g></svg>