<?xml version="1.0" encoding="utf-8"?>
<!-- Generator: Adobe Illustrator 25.2.3, SVG Export Plug-In . SVG Version: 6.00 Build 0)  -->
<svg version="1.1" id="Capa_1" xmlns="http://www.w3.org/2000/svg" xmlns:xlink="http://www.w3.org/1999/xlink" x="0px" y="0px"
	 viewBox="0 0 28 28" style="enable-background:new 0 0 28 28;" xml:space="preserve">
<style type="text/css">
	.st0{fill:#C09C4C;}
</style>
<g>
	<g>
		<path class="st0" d="M20.4,11c-0.2-0.3-0.5-0.3-0.7-0.1L18,12.1c-0.2,0.2-0.3,0.4-0.1,0.7c0.4,0.7,0.6,1.5,0.6,2.2
			c0,2.5-2,4.6-4.5,4.6S9.5,17.4,9.5,15c0-2.3,1.8-4.2,4-4.5V12c0,0.4,0.5,0.6,0.8,0.4l4-3c0.3-0.2,0.3-0.6,0-0.8l-4-3
			c-0.3-0.2-0.8,0-0.8,0.4v1.5c-3.9,0.3-7,3.5-7,7.5c0,4.1,3.4,7.6,7.5,7.6s7.5-3.4,7.5-7.6C21.5,13.6,21.1,12.2,20.4,11z"/>
	</g>
</g>
</svg>
